#N canvas 478 263 216 180 10;
#X obj 17 16 inlet;
#X obj 17 45 unpack 0 0 0;
#X obj 111 16 inlet;
#X obj 111 45 unpack 0 0 0;
#X obj 17 81 + \$1;
#X obj 17 112 pack 0 0 0;
#X obj 17 142 outlet;
#X obj 51 81 + \$2;
#X obj 86 81 + \$3;
#X connect 0 0 1 0;
#X connect 1 0 4 0;
#X connect 1 1 7 0;
#X connect 1 2 8 0;
#X connect 2 0 3 0;
#X connect 3 0 4 1;
#X connect 3 1 7 1;
#X connect 3 2 8 1;
#X connect 4 0 5 0;
#X connect 5 0 6 0;
#X connect 7 0 5 1;
#X connect 8 0 5 2;
