#N canvas 145 180 187 305 10;
#X obj 95 153 swap 1;
#X obj 95 176 -;
#X obj 95 202 * 0.5;
#X obj 33 124 t f f;
#X obj 33 165 + 1;
#X obj 95 227 sqrt;
#X obj 95 273 outlet;
#X obj 33 202 * 0.5;
#X obj 33 227 sqrt;
#X obj 95 250 *;
#X obj 33 273 outlet;
#X obj 33 250 *;
#X obj 90 74 t f f;
#X obj 33 26 inlet;
#X obj 33 52 normalise3;
#X obj 126 26 inlet;
#X obj 33 100 3d/dot3 \$1 \$2 \$3;
#X connect 0 0 1 0;
#X connect 0 1 1 1;
#X connect 1 0 2 0;
#X connect 2 0 5 0;
#X connect 3 0 4 0;
#X connect 3 1 0 0;
#X connect 4 0 7 0;
#X connect 5 0 9 0;
#X connect 7 0 8 0;
#X connect 8 0 11 0;
#X connect 9 0 6 0;
#X connect 11 0 10 0;
#X connect 12 0 11 1;
#X connect 12 1 9 1;
#X connect 13 0 14 0;
#X connect 14 0 16 0;
#X connect 14 1 12 0;
#X connect 15 0 16 1;
#X connect 16 0 3 0;
