#N canvas 581 262 381 243 10;
#X obj 118 51 normalise3;
#X obj 93 97 dot3;
#X obj 51 125 scale3;
#X obj 51 97 f3;
#X obj 142 158 scale3 -1;
#X obj 121 181 add3;
#X obj 33 171 f3;
#X obj 33 51 t b a b a;
#X obj 118 24 inlet reference;
#X obj 33 24 inlet vector;
#X obj 33 208 outlet normal;
#X obj 121 208 outlet tangent;
#X obj 217 208 outlet reference-length;
#X connect 0 0 1 1;
#X connect 0 0 3 1;
#X connect 0 1 12 0;
#X connect 1 0 2 1;
#X connect 2 0 4 0;
#X connect 2 0 6 1;
#X connect 3 0 2 0;
#X connect 4 0 5 1;
#X connect 5 0 11 0;
#X connect 6 0 10 0;
#X connect 7 0 6 0;
#X connect 7 1 5 0;
#X connect 7 2 3 0;
#X connect 7 3 1 0;
#X connect 8 0 0 0;
#X connect 9 0 7 0;
