#N canvas 283 258 450 300 10;
#X obj 108 53 inlet;
#X obj 87 190 outlet;
#X obj 108 108 unpack 0 0 0;
#X obj 87 159 pack 0 0 0;
#X obj 87 132 f \$1;
#X obj 121 132 f \$2;
#X obj 156 132 f \$3;
#X obj 108 79 t a b b b;
#X connect 0 0 7 0;
#X connect 2 0 4 1;
#X connect 2 1 5 1;
#X connect 2 2 6 1;
#X connect 3 0 1 0;
#X connect 4 0 3 0;
#X connect 5 0 3 1;
#X connect 6 0 3 2;
#X connect 7 0 2 0;
#X connect 7 1 4 0;
#X connect 7 2 5 0;
#X connect 7 3 6 0;
