#N canvas 478 263 210 207 10;
#X obj 20 15 inlet;
#X obj 20 43 unpack 0 0 0;
#X obj 113 16 inlet;
#X obj 113 43 unpack 0 0 0;
#X obj 20 169 outlet;
#X obj 20 82 * \$1;
#X obj 57 82 * \$2;
#X obj 93 82 * \$3;
#X obj 57 111 +;
#X obj 20 138 +;
#X connect 0 0 1 0;
#X connect 1 0 5 0;
#X connect 1 1 6 0;
#X connect 1 2 7 0;
#X connect 2 0 3 0;
#X connect 3 0 5 1;
#X connect 3 1 6 1;
#X connect 3 2 7 1;
#X connect 5 0 9 0;
#X connect 6 0 8 0;
#X connect 7 0 8 1;
#X connect 8 0 9 1;
#X connect 9 0 4 0;
