#N canvas 365 301 210 219 10;
#X obj 23 12 inlet;
#X obj 23 39 route bang;
#X obj 123 66 inlet;
#X obj 80 122 pack 0 \$1 \$2 \$3;
#X obj 80 158 route 0;
#X obj 109 96 unpack 0 0 0;
#X obj 80 66 t b a;
#X obj 80 190 outlet;
#X connect 0 0 1 0;
#X connect 1 0 3 0;
#X connect 1 1 6 0;
#X connect 2 0 5 0;
#X connect 3 0 4 0;
#X connect 4 0 7 0;
#X connect 5 0 3 1;
#X connect 5 1 3 2;
#X connect 5 2 3 3;
#X connect 6 0 3 0;
#X connect 6 1 5 0;
