#N canvas 989 85 244 265 10;
#X obj 26 22 inlet;
#X obj 161 22 inlet;
#X obj 90 226 outlet;
#X obj 90 191 t a a;
#X obj 101 22 inlet;
#X obj 90 129 scale3 \$1;
#X obj 90 159 add3 \$2 \$3 \$4;
#X obj 26 51 route bang reset set delta;
#X msg 64 78 0 0 0;
#X connect 0 0 7 0;
#X connect 1 0 5 1;
#X connect 3 0 2 0;
#X connect 3 1 6 1;
#X connect 4 0 6 1;
#X connect 5 0 6 0;
#X connect 6 0 3 0;
#X connect 7 0 8 0;
#X connect 7 1 8 0;
#X connect 7 2 6 1;
#X connect 7 3 5 1;
#X connect 7 4 5 0;
#X connect 8 0 6 1;
