#N canvas 713 389 149 226 10;
#X obj 23 17 inlet;
#X obj 23 43 unpack f f f;
#X obj 23 86 *;
#X obj 23 64 t f f;
#X obj 59 86 *;
#X obj 59 64 t f f;
#X obj 95 86 *;
#X obj 95 64 t f f;
#X obj 59 112 +;
#X obj 23 139 +;
#X obj 23 163 sqrt;
#X obj 23 186 outlet;
#X connect 0 0 1 0;
#X connect 1 0 3 0;
#X connect 1 1 5 0;
#X connect 1 2 7 0;
#X connect 2 0 9 0;
#X connect 3 0 2 0;
#X connect 3 1 2 1;
#X connect 4 0 8 0;
#X connect 5 0 4 0;
#X connect 5 1 4 1;
#X connect 6 0 8 1;
#X connect 7 0 6 0;
#X connect 7 1 6 1;
#X connect 8 0 9 1;
#X connect 9 0 10 0;
#X connect 10 0 11 0;
