#N canvas 76 128 287 336 10;
#X obj 68 38 inlet;
#X obj 127 23 inlet;
#X obj 182 23 loadbang;
#X obj 127 50 f \$1;
#N canvas 534 45 291 343 alpha 0;
#X msg 55 -145 1;
#X obj 55 -121 atan;
#X obj 55 -96 * 4;
#X obj 28 -50 tan;
#X obj 28 -73 *;
#X obj 28 -167 t f b;
#X obj 28 -191 inlet;
#X obj 28 -25 outlet;
#X floatatom 99 -39 5 0 0 0 - - -;
#X connect 0 0 1 0;
#X connect 1 0 2 0;
#X connect 2 0 4 1;
#X connect 3 0 7 0;
#X connect 4 0 3 0;
#X connect 4 0 8 0;
#X connect 5 0 4 0;
#X connect 5 1 0 0;
#X connect 6 0 5 0;
#X restore 127 74 pd alpha;
#N canvas 530 276 130 179 c 0;
#X obj 38 -16 t f f;
#X obj 65 9 + 1;
#X obj 38 34 /;
#X obj 38 61 outlet;
#X obj 38 -40 inlet;
#X obj 38 9 - 1;
#X connect 0 0 5 0;
#X connect 0 1 1 0;
#X connect 1 0 2 1;
#X connect 2 0 3 0;
#X connect 4 0 0 0;
#X connect 5 0 2 0;
#X restore 127 97 pd c;
#X obj 127 119 + 1;
#X obj 127 140 / 2;
#X obj 176 185 -;
#X obj 68 208 scale3 1;
#X obj 131 208 scale3 0;
#X obj 68 234 add3;
#X obj 68 258 t a a;
#X obj 68 285 outlet;
#X obj 176 163 swap 1;
#X connect 0 0 9 0;
#X connect 1 0 3 0;
#X connect 2 0 3 0;
#X connect 3 0 4 0;
#X connect 4 0 5 0;
#X connect 5 0 6 0;
#X connect 6 0 7 0;
#X connect 7 0 9 1;
#X connect 7 0 14 0;
#X connect 8 0 10 1;
#X connect 9 0 11 0;
#X connect 10 0 11 1;
#X connect 11 0 12 0;
#X connect 12 0 13 0;
#X connect 12 1 10 0;
#X connect 14 0 8 0;
#X connect 14 1 8 1;
