#N canvas 319 349 187 218 10;
#X obj 23 9 inlet;
#X obj 23 38 t a a;
#X obj 23 156 scale3;
#X obj 23 183 outlet;
#X obj 56 63 length3;
#X obj 56 110 swap 1;
#X obj 56 132 /;
#X obj 56 86 t f f;
#X obj 83 183 outlet length;
#X connect 0 0 1 0;
#X connect 1 0 2 0;
#X connect 1 1 4 0;
#X connect 2 0 3 0;
#X connect 4 0 7 0;
#X connect 5 0 6 0;
#X connect 5 1 6 1;
#X connect 6 0 2 1;
#X connect 7 0 5 0;
#X connect 7 1 8 0;
