#N canvas 91 524 614 286 10;
#X obj 161 -36 tgl 15 0 empty empty empty 17 7 0 10 -262144 -1 -1 1
1;
#X obj 161 -58 loadbang;
#X obj 29 -40 inlet;
#X obj 29 88 outlet;
#X obj 29 36 t a a;
#X obj 162 69 unpack;
#X obj 131 47 t b a;
#N canvas 565 126 229 174 colour 0;
#X obj 21 20 loadbang;
#X obj 21 66 - 1;
#X obj 21 88 * 80;
#X obj 21 134 outlet;
#X obj 21 43 f \$3;
#X obj 21 111 ../utility/hsv2rgb 0 0.5 1;
#X connect 0 0 4 0;
#X connect 1 0 2 0;
#X connect 2 0 5 0;
#X connect 4 0 1 0;
#X connect 5 0 3 0;
#X restore 28 117 pd colour;
#X obj 28 139 s \$0-colour;
#X obj 230 -46 r \$0-colour;
#X obj 29 11 pack \$4 \$5;
#N canvas 535 126 211 272 text 0;
#X obj 23 21 gemhead;
#X obj 23 229 text2d;
#X obj 119 110 + 0.8;
#X obj 23 132 translateXYZ \$4 \$5 0;
#X obj 23 110 color;
#X msg 44 204 text \$1;
#X obj 44 159 loadbang;
#X obj 50 88 r \$0-colour;
#X obj 119 20 loadbang;
#X obj 63 43 r \$0-pos;
#X obj 62 65 unpack;
#X obj 119 43 pack \$4 \$5;
#X obj 44 181 symbol \$2;
#X obj 23 -2 inlet;
#X connect 0 0 4 0;
#X connect 2 0 3 2;
#X connect 3 0 1 0;
#X connect 4 0 3 0;
#X connect 5 0 1 0;
#X connect 6 0 12 0;
#X connect 7 0 4 1;
#X connect 8 0 11 0;
#X connect 9 0 10 0;
#X connect 10 0 3 1;
#X connect 10 1 2 0;
#X connect 11 0 10 0;
#X connect 12 0 5 0;
#X connect 13 0 0 0;
#X restore 244 -16 pd text;
#X obj 131 24 r \$0-pos;
#X obj 56 59 s \$0-pos;
#X obj 501 82 route -1 \$3;
#X obj 131 94 pack \$3 0 0;
#N canvas 366 125 131 135 accumulate-weights 0;
#X obj 22 67 +;
#X obj 50 67 t f;
#X msg 37 43 0;
#X obj 92 19 inlet;
#X obj 37 18 inlet;
#X obj 22 92 outlet;
#X connect 0 0 1 0;
#X connect 0 0 5 0;
#X connect 1 0 0 1;
#X connect 2 0 0 1;
#X connect 3 0 0 0;
#X connect 4 0 2 0;
#X restore 378 116 pd accumulate-weights;
#X obj 256 60 delay 20;
#X obj 361 82 route -1 \$3;
#N canvas 309 297 218 217 accumulate-list 0;
#X obj 154 -3 inlet;
#X obj 164 83 list;
#X obj 150 153 list;
#X obj 18 111 +;
#X obj 111 -3 inlet;
#X obj 150 180 outlet;
#X msg 164 57 list;
#X obj 111 23 t b b b;
#X obj 18 138 ../list/parallelise;
#X obj 18 84 ../list/serialisepair;
#X obj 18 50 ../utility/first;
#X connect 0 0 10 0;
#X connect 1 0 2 1;
#X connect 1 0 9 1;
#X connect 2 0 5 0;
#X connect 3 0 8 0;
#X connect 4 0 7 0;
#X connect 6 0 1 0;
#X connect 7 0 10 1;
#X connect 7 1 6 0;
#X connect 7 2 2 0;
#X connect 8 0 1 0;
#X connect 9 0 3 0;
#X connect 9 1 8 1;
#X connect 10 0 9 0;
#X connect 10 1 1 0;
#X restore 256 116 pd accumulate-list;
#X obj 353 140 /;
#X obj 256 140 ../list/elemop;
#X obj 256 84 t b b;
#X obj 256 166 outlet;
#X obj 131 117 s \$1-cursorX;
#X obj 256 14 r \$1-cursorX;
#X obj 361 53 r \$1-paramsX;
#X obj 501 54 r \$1-weightsX;
#X obj 29 -15 ../grabpoint/grabpoint \$4 \$5 1 1 1;
#X obj 119 -58 inlet;
#X obj 256 37 route -1 \$3;
#X connect 0 0 28 1;
#X connect 0 0 11 0;
#X connect 1 0 0 0;
#X connect 1 0 10 0;
#X connect 2 0 28 0;
#X connect 4 0 3 0;
#X connect 4 1 13 0;
#X connect 5 0 15 1;
#X connect 5 1 15 2;
#X connect 6 0 15 0;
#X connect 6 1 5 0;
#X connect 7 0 8 0;
#X connect 9 0 28 2;
#X connect 10 0 4 0;
#X connect 12 0 6 0;
#X connect 14 0 16 1;
#X connect 14 1 16 1;
#X connect 15 0 24 0;
#X connect 16 0 20 1;
#X connect 17 0 22 0;
#X connect 18 0 19 1;
#X connect 18 1 19 1;
#X connect 19 0 21 0;
#X connect 20 0 21 1;
#X connect 21 0 23 0;
#X connect 21 1 20 0;
#X connect 22 0 19 0;
#X connect 22 1 16 0;
#X connect 25 0 30 0;
#X connect 26 0 18 0;
#X connect 27 0 14 0;
#X connect 28 0 10 0;
#X connect 28 1 10 1;
#X connect 29 0 0 0;
#X connect 30 0 17 0;
#X connect 30 1 17 0;
