#N canvas 856 344 391 424 10;
#X obj 24 23 inlet position;
#X obj 124 151 inlet value;
#X obj 67 51 inlet on;
#N canvas 565 126 229 174 colour 0;
#X obj 21 20 loadbang;
#X obj 21 66 - 1;
#X obj 21 88 * 80;
#X obj 21 134 outlet;
#X obj 21 43 f \$3;
#X obj 21 111 ../utility/hsv2rgb 0 0.7 0.5;
#X connect 0 0 4 0;
#X connect 1 0 2 0;
#X connect 2 0 5 0;
#X connect 4 0 1 0;
#X connect 5 0 3 0;
#X restore 25 183 pd colour;
#X obj 151 226 list;
#X obj 25 205 s \$0-colour;
#X obj 136 67 r \$0-colour;
#N canvas 285 116 340 137 values 0;
#X obj 21 46 list \$7 \$8 \$9 \$10 \$11 \$12 \$13 \$14 \$15 \$17 \$18
\$19;
#X obj 21 71 list split \$6;
#X obj 21 22 loadbang;
#X obj 21 95 outlet;
#X connect 0 0 1 0;
#X connect 1 0 3 0;
#X connect 1 2 3 0;
#X connect 2 0 0 0;
#X restore 151 173 pd values;
#X obj 24 144 s \$0-pos;
#N canvas 0 22 211 272 text 0;
#X obj 23 21 gemhead;
#X obj 23 229 text2d;
#X obj 23 132 translateXYZ \$4 \$5 0;
#X obj 23 110 color;
#X msg 44 204 text \$1;
#X obj 44 159 loadbang;
#X obj 50 88 r \$0-colour;
#X obj 119 20 loadbang;
#X obj 63 43 r \$0-pos;
#X obj 62 65 unpack;
#X obj 119 43 pack \$4 \$5;
#X obj 44 181 symbol \$2;
#X obj 119 110 + 0.7;
#X connect 0 0 3 0;
#X connect 2 0 1 0;
#X connect 3 0 2 0;
#X connect 4 0 1 0;
#X connect 5 0 11 0;
#X connect 6 0 3 1;
#X connect 7 0 10 0;
#X connect 8 0 9 0;
#X connect 9 0 2 1;
#X connect 9 1 12 0;
#X connect 10 0 9 0;
#X connect 11 0 4 0;
#X connect 12 0 2 2;
#X restore 25 235 pd text;
#N canvas 177 329 170 277 distance 0;
#X obj 28 109 -;
#X obj 89 110 -;
#X obj 28 172 *;
#X obj 28 149 t f f;
#X obj 66 172 *;
#X obj 66 149 t f f;
#X obj 28 195 +;
#X obj 28 218 sqrt;
#X obj 28 30 inlet;
#X obj 28 55 unpack;
#X obj 89 30 inlet;
#X obj 89 55 unpack;
#X obj 28 241 outlet;
#X connect 0 0 3 0;
#X connect 1 0 5 0;
#X connect 2 0 6 0;
#X connect 3 0 2 0;
#X connect 3 1 2 1;
#X connect 4 0 6 1;
#X connect 5 0 4 0;
#X connect 5 1 4 1;
#X connect 6 0 7 0;
#X connect 7 0 12 0;
#X connect 8 0 9 0;
#X connect 9 0 0 0;
#X connect 9 1 1 0;
#X connect 10 0 11 0;
#X connect 11 0 0 1;
#X connect 11 1 1 1;
#X restore 251 99 pd distance;
#N canvas 221 241 106 232 weighting 0;
#X obj 21 17 inlet;
#X obj 21 42 + 0.1;
#X obj 21 67 swap 1;
#X obj 21 94 /;
#X obj 21 189 outlet;
#X obj 21 157 min 1;
#X obj 21 127 pow 2;
#X connect 0 0 1 0;
#X connect 1 0 2 0;
#X connect 2 0 3 0;
#X connect 2 1 3 1;
#X connect 3 0 6 0;
#X connect 5 0 4 0;
#X connect 6 0 5 0;
#X restore 251 125 pd weighting;
#X obj 217 48 unpack 0 0 0;
#X obj 251 75 pack;
#X obj 314 46 r \$0-pos;
#X obj 251 148 t f f;
#X obj 217 175 t f f;
#X obj 257 200 pack;
#X obj 251 282 list;
#X obj 348 311 *;
#X obj 251 311 ../list/elemop;
#X obj 251 254 t b f;
#X obj 217 341 list append;
#X obj 151 252 t b a;
#X obj 119 310 unpack 0 0 0;
#X obj 119 337 pack -1 0 0;
#X obj 98 363 list;
#X obj 119 283 r \$1-cursorX;
#X obj 98 387 s \$1-cursorX;
#X obj 257 227 s \$1-weightsX;
#X obj 217 19 r \$1-cursorX;
#X obj 217 367 s \$1-paramsX;
#X obj 314 71 t b a;
#X obj 151 199 t b a;
#X obj 24 121 pack \$4 \$5;
#X obj 35 72 loadbang;
#X obj 24 96 ../grabpoint/grabpoint \$4 \$5 0 0 0 1;
#X connect 0 0 36 0;
#X connect 1 0 33 0;
#X connect 2 0 36 1;
#X connect 3 0 5 0;
#X connect 4 0 23 0;
#X connect 6 0 36 2;
#X connect 7 0 33 0;
#X connect 10 0 11 0;
#X connect 11 0 15 0;
#X connect 12 0 16 0;
#X connect 12 1 13 0;
#X connect 12 2 13 1;
#X connect 13 0 10 0;
#X connect 14 0 32 0;
#X connect 15 0 21 0;
#X connect 15 1 17 1;
#X connect 16 0 22 0;
#X connect 16 1 17 0;
#X connect 17 0 29 0;
#X connect 18 0 20 0;
#X connect 19 0 20 1;
#X connect 20 0 22 1;
#X connect 20 1 19 0;
#X connect 21 0 18 0;
#X connect 21 1 19 1;
#X connect 22 0 31 0;
#X connect 23 0 26 0;
#X connect 23 1 18 1;
#X connect 24 0 25 0;
#X connect 24 1 25 1;
#X connect 24 2 25 2;
#X connect 25 0 26 1;
#X connect 26 0 28 0;
#X connect 27 0 24 0;
#X connect 30 0 12 0;
#X connect 32 0 4 0;
#X connect 32 1 10 1;
#X connect 33 0 4 0;
#X connect 33 1 4 1;
#X connect 34 0 8 0;
#X connect 35 0 34 0;
#X connect 36 0 34 0;
#X connect 36 1 34 1;
