#N canvas 273 264 359 277 10;
#X obj 18 70 ctlin;
#X obj 51 128 == \$1;
#X obj 66 100 == 1;
#X obj 51 155 &&;
#X obj 18 182 spigot;
#X obj 18 239 outlet;
#X obj 18 211 / 127;
#X obj 77 71 moses 1;
#X obj 77 44 f \$2;
#X obj 77 17 loadbang;
#X obj 122 100 inlet;
#X obj 122 230 ctlout;
#X obj 122 200 pack 0 \$1 1;
#X obj 122 127 * 127;
#X obj 122 152 + 0.5;
#X obj 122 175 int;
#X obj 180 78 r midi-faders-tx;
#X obj 180 104 route \$1;
#X obj 217 238 s midi-faders-rx;
#X obj 180 133 route z;
#X obj 217 207 pack \$1 0;
#X obj 217 179 t b f;
#X connect 0 0 4 0;
#X connect 0 1 1 0;
#X connect 0 2 2 0;
#X connect 1 0 3 0;
#X connect 2 0 3 1;
#X connect 3 0 4 1;
#X connect 4 0 6 0;
#X connect 6 0 5 0;
#X connect 7 1 2 1;
#X connect 7 1 12 2;
#X connect 8 0 7 0;
#X connect 9 0 8 0;
#X connect 10 0 13 0;
#X connect 10 0 21 0;
#X connect 12 0 11 0;
#X connect 13 0 14 0;
#X connect 14 0 15 0;
#X connect 15 0 12 0;
#X connect 16 0 17 0;
#X connect 17 0 19 0;
#X connect 19 1 5 0;
#X connect 20 0 18 0;
#X connect 21 0 20 0;
#X connect 21 1 20 1;
