#N canvas 943 86 294 295 10;
#X declare -path ../3d;
#X obj 26 19 inlet;
#X obj 146 242 declare -path ../3d;
#X obj 111 168 * -1;
#X obj 66 195 scale3 0;
#X obj 66 85 r \$1-pos;
#X obj 45 225 add3;
#X obj 45 255 outlet;
#N canvas 760 276 161 182 relative-pos 0;
#X obj 35 99 add3;
#X obj 56 75 scale3 -1;
#X obj 35 29 inlet;
#X obj 56 52 inlet;
#X obj 35 125 outlet;
#X connect 0 0 4 0;
#X connect 1 0 0 1;
#X connect 2 0 0 0;
#X connect 3 0 1 0;
#X restore 66 109 pd relative-pos;
#N canvas 586 186 203 380 offset 1;
#X obj 67 63 normalise3;
#X obj 67 170 scale3 0;
#X obj 47 199 add3;
#X obj 112 146 * -1;
#X obj 28 10 inlet;
#X obj 85 95 inlet;
#X obj 28 340 outlet pull;
#X obj 108 340 outlet push;
#X obj 28 315 f3;
#X obj 108 313 f3;
#X obj 28 238 length3;
#X obj 28 263 >;
#X obj 85 120 t f f;
#X obj 28 33 t a a a;
#X obj 28 288 route 1 0;
#X connect 0 0 1 0;
#X connect 1 0 2 1;
#X connect 2 0 8 1;
#X connect 2 0 9 1;
#X connect 3 0 1 1;
#X connect 4 0 13 0;
#X connect 5 0 12 0;
#X connect 8 0 6 0;
#X connect 9 0 7 0;
#X connect 10 0 11 0;
#X connect 11 0 14 0;
#X connect 12 0 11 1;
#X connect 12 1 3 0;
#X connect 13 0 10 0;
#X connect 13 1 2 0;
#X connect 13 2 0 0;
#X connect 14 0 8 0;
#X connect 14 1 9 0;
#X restore 66 134 pd offset;
#X obj 26 85 t f f;
#X obj 167 168 * -1;
#X obj 122 195 scale3 0;
#X obj 26 44 route spring pull push origin length;
#N canvas 820 169 213 392 offset 1;
#X obj 28 10 inlet;
#X obj 28 349 outlet pull;
#X obj 108 349 outlet push;
#X obj 28 324 f3;
#X obj 108 322 f3;
#X obj 28 272 >;
#X obj 28 33 t a a a;
#X obj 28 297 route 1 0;
#X obj 47 60 length3;
#X obj 47 113 -;
#X obj 62 85 inlet;
#X obj 28 173 normalise3;
#X obj 28 198 scale3;
#X obj 47 137 t f f;
#X obj 28 248 f;
#X obj 28 222 t b a a;
#X connect 0 0 6 0;
#X connect 3 0 1 0;
#X connect 4 0 2 0;
#X connect 5 0 7 0;
#X connect 6 0 11 0;
#X connect 6 1 8 0;
#X connect 7 0 3 0;
#X connect 7 1 4 0;
#X connect 8 0 9 0;
#X connect 9 0 13 0;
#X connect 10 0 9 1;
#X connect 11 0 12 0;
#X connect 12 0 15 0;
#X connect 13 0 14 1;
#X connect 13 1 12 1;
#X connect 14 0 5 0;
#X connect 15 0 14 0;
#X connect 15 1 3 1;
#X connect 15 2 4 1;
#X restore 199 140 pd offset;
#X connect 0 0 12 0;
#X connect 2 0 3 1;
#X connect 3 0 5 1;
#X connect 4 0 7 0;
#X connect 5 0 6 0;
#X connect 7 0 13 0;
#X connect 9 0 2 0;
#X connect 9 1 10 0;
#X connect 10 0 11 1;
#X connect 11 0 5 1;
#X connect 12 0 9 0;
#X connect 12 1 2 0;
#X connect 12 2 10 0;
#X connect 12 3 7 1;
#X connect 12 4 13 1;
#X connect 12 5 5 0;
#X connect 13 0 3 0;
#X connect 13 1 11 0;
