#N canvas 314 22 555 366 10;
#X obj 15 75 gemwin;
#X msg 264 35 \; pd dsp \$1;
#X obj 264 8 tgl 15 0 empty empty empty 17 7 0 10 -262144 -1 -1 0 1
;
#X obj 179 7 loadbang;
#X obj 177 81 bng 15 250 50 0 empty empty empty 17 7 0 10 -262144 -1
-1;
#X msg 35 51 destroy;
#X text 7 -16 grabpoint: a point that can be 'grabbed' with the mouse
in GEM;
#X msg 15 30 dimen 250 250 \, create \, 1;
#X floatatom 17 174 5 0 0 0 - - -;
#X floatatom 78 175 5 0 0 0 - - -;
#X msg 17 125 0 0;
#X obj 140 125 tgl 15 0 empty empty empty 17 7 0 10 -262144 -1 -1 1
1;
#X text 54 171 X;
#X text 112 176 Y;
#X obj 192 293 dac~;
#X obj 17 148 grabpoint 0 0 0 0.8 1;
#X floatatom 204 176 5 0 0 0 - - -;
#X floatatom 265 177 5 0 0 0 - - -;
#X obj 315 127 tgl 15 0 empty empty empty 17 7 0 10 -262144 -1 -1 1
1;
#X text 241 173 X;
#X text 299 178 Y;
#X msg 204 125 0 1;
#N canvas 537 325 450 350 tickles 0;
#X obj 29 290 outlet~;
#X obj 25 245 *~ 1;
#X obj 194 122 osc~;
#X obj 28 221 *~;
#X floatatom 189 98 5 0 0 0 - - -;
#X obj 193 170 pow~ 1000;
#X obj 44 12 inlet;
#X obj 46 115 osc~ 2000;
#X obj 43 90 * 2000;
#X obj 43 42 + 5;
#X obj 40 69 / 9;
#X obj 172 16 inlet;
#X obj 238 101 loadbang;
#X msg 241 135 1000;
#X obj 146 85 / 9;
#X obj 186 58 + 5;
#X obj 156 119 * 20;
#X obj 47 163 *~ 0.4;
#X connect 1 0 0 0;
#X connect 2 0 5 0;
#X connect 3 0 1 0;
#X connect 4 0 2 0;
#X connect 5 0 3 1;
#X connect 6 0 15 0;
#X connect 7 0 17 0;
#X connect 8 0 7 0;
#X connect 9 0 10 0;
#X connect 10 0 8 0;
#X connect 11 0 9 0;
#X connect 12 0 13 0;
#X connect 13 0 5 1;
#X connect 14 0 16 0;
#X connect 15 0 14 0;
#X connect 16 0 2 0;
#X connect 17 0 3 0;
#X restore 204 209 pd tickles;
#X floatatom 385 177 5 0 0 0 - - -;
#X floatatom 446 178 5 0 0 0 - - -;
#X obj 496 128 tgl 15 0 empty empty empty 17 7 0 10 -262144 -1 -1 1
1;
#X text 422 174 X;
#X text 480 179 Y;
#X msg 385 126 0 2;
#X obj 66 238 *~ 1;
#X obj 385 235 *~ 1;
#X obj 202 237 *~ 1;
#X msg 235 79 1;
#N canvas 339 281 450 300 phas 0;
#X obj 17 22 inlet;
#X obj 17 126 phasor~;
#X obj 163 132 osc~;
#X obj 163 182 +~ 0.5;
#X obj 17 46 + 5;
#X obj 17 73 / 9;
#X obj 17 100 * 300;
#X obj 47 238 *~;
#X obj 162 26 inlet;
#X obj 162 50 + 5;
#X obj 162 77 / 9;
#X obj 160 102 * 5;
#X obj 163 155 *~ 0.4;
#X obj 47 258 outlet~;
#X obj 21 189 lop~ 100;
#X obj 82 125 phasor~;
#X obj 86 188 lop~ 100;
#X obj 65 97 * 1.01;
#X obj 22 154 *~ 0.4;
#X obj 87 153 *~ 0.4;
#X connect 0 0 9 0;
#X connect 1 0 18 0;
#X connect 2 0 12 0;
#X connect 3 0 7 1;
#X connect 4 0 5 0;
#X connect 5 0 6 0;
#X connect 6 0 1 0;
#X connect 6 0 17 0;
#X connect 7 0 13 0;
#X connect 8 0 4 0;
#X connect 9 0 10 0;
#X connect 10 0 11 0;
#X connect 11 0 2 0;
#X connect 12 0 3 0;
#X connect 14 0 7 0;
#X connect 15 0 19 0;
#X connect 16 0 7 0;
#X connect 17 0 15 0;
#X connect 18 0 14 0;
#X connect 19 0 16 0;
#X restore 386 204 pd phas;
#N canvas 537 325 450 350 windy 0;
#X obj 31 265 outlet~;
#X obj 30 10 noise~;
#X obj 137 11 inlet;
#X obj 134 43 + 4;
#X obj 135 98 + 60;
#X obj 222 38 + 4;
#X obj 219 11 inlet;
#X msg 47 112 \$1 40;
#X floatatom 182 176 5 0 0 0 - - -;
#X obj 27 220 *~ 1;
#X obj 47 135 line;
#X obj 31 158 bp~ 100 1;
#X obj 222 69 * 25;
#X obj 30 38 lop~ 1500;
#X obj 174 152 / 30;
#X obj 139 66 * 80;
#X connect 1 0 13 0;
#X connect 2 0 3 0;
#X connect 3 0 15 0;
#X connect 4 0 7 0;
#X connect 5 0 12 0;
#X connect 6 0 5 0;
#X connect 7 0 10 0;
#X connect 8 0 9 1;
#X connect 9 0 0 0;
#X connect 10 0 11 1;
#X connect 11 0 9 0;
#X connect 12 0 11 2;
#X connect 12 0 14 0;
#X connect 13 0 11 0;
#X connect 14 0 8 0;
#X connect 15 0 4 0;
#X restore 17 207 pd windy;
#X text 374 311 Lorenzo Sutton 2010;
#X text 375 324 lsutton@libero.it;
#X obj 204 150 grabpoint 0 0 1 1 0;
#X obj 385 151 grabpoint 0 0 1 0 0;
#X connect 2 0 1 0;
#X connect 3 0 4 0;
#X connect 3 0 7 0;
#X connect 3 0 32 0;
#X connect 4 0 10 0;
#X connect 4 0 21 0;
#X connect 4 0 28 0;
#X connect 5 0 0 0;
#X connect 7 0 0 0;
#X connect 8 0 34 0;
#X connect 9 0 34 1;
#X connect 10 0 15 0;
#X connect 11 0 15 1;
#X connect 11 0 29 1;
#X connect 15 0 8 0;
#X connect 15 1 9 0;
#X connect 16 0 22 0;
#X connect 17 0 22 1;
#X connect 18 0 31 1;
#X connect 18 0 37 1;
#X connect 21 0 37 0;
#X connect 22 0 31 0;
#X connect 23 0 33 0;
#X connect 24 0 33 1;
#X connect 25 0 30 1;
#X connect 25 0 38 1;
#X connect 28 0 38 0;
#X connect 29 0 14 0;
#X connect 29 0 14 1;
#X connect 30 0 14 1;
#X connect 30 0 14 0;
#X connect 31 0 14 0;
#X connect 31 0 14 1;
#X connect 32 0 25 0;
#X connect 32 0 18 0;
#X connect 32 0 11 0;
#X connect 33 0 30 0;
#X connect 34 0 29 0;
#X connect 37 0 16 0;
#X connect 37 1 17 0;
#X connect 38 0 23 0;
#X connect 38 1 24 0;
