#N canvas 580 77 860 499 10;
#X obj 16 247 color \$3 \$4 \$5;
#X obj 15 17 inlet;
#X obj 15 46 unpack f f;
#X obj 15 72 s \$0-x;
#X obj 87 71 s \$0-y;
#X obj 14 382 r \$0-x;
#X obj 73 383 r \$0-y;
#X obj 14 414 outlet;
#X obj 73 414 outlet;
#X obj 322 48 gemmouse 8 8;
#X obj 303 92 - 4;
#X obj 339 72 t b f;
#X obj 339 100 4;
#X obj 339 124 -;
#X obj 391 72 s \$0-lb;
#X obj 303 171 s \$0-mouseX;
#X obj 339 149 s \$0-mouseY;
#X obj 468 134 f \$1;
#X obj 558 135 f \$2;
#X obj 345 231 r \$0-mouseY;
#X obj 300 209 r \$0-mouseX;
#X obj 300 290 spigot;
#X obj 345 290 spigot;
#X obj 378 264 r \$0-pass;
#X obj 300 314 s \$0-x;
#X obj 345 314 s \$0-y;
#X obj 549 86 r \$0-x;
#X obj 606 85 r \$0-y;
#X obj 500 347 &&;
#X obj 458 297 r \$0-lb;
#X obj 515 297 f;
#X obj 458 319 pipe 1;
#X obj 573 160 r \$0-mouseY;
#X obj 483 158 r \$0-mouseX;
#X obj 468 186 -;
#X obj 468 208 abs;
#X obj 558 186 -;
#X obj 558 208 abs;
#X obj 515 266 &&;
#X obj 468 103 until;
#X msg 468 83 10;
#X obj 468 232 <= 0.2;
#X obj 558 231 <= 0.2;
#X obj 90 47 f \$1;
#X obj 132 47 f \$2;
#X obj 90 18 loadbang;
#X obj 16 295 circle 0.2;
#X obj 185 -13 inlet active;
#X obj 152 95 gemhead;
#X obj 191 139 r \$0-x;
#X obj 233 139 r \$0-y;
#X obj 152 215 translateXYZ \$1 \$2 0;
#X obj 152 120 spigot;
#X obj 160 287 f \$3;
#X obj 200 287 f \$4;
#X obj 240 287 f \$5;
#X obj 152 361 color;
#X obj 179 331 pack f f f;
#X obj 185 47 f 1;
#X obj 160 239 loadbang;
#X obj 160 310 + 0.5;
#X obj 200 310 + 0.5;
#X obj 240 310 + 0.5;
#X obj 152 393 spigot;
#X obj 200 367 r \$0-pass;
#X obj 152 415 circle 0.3;
#X obj 160 262 t b b b;
#X obj 263 367 r \$0-hover;
#X obj 500 370 change;
#X obj 500 431 s \$0-pass;
#X obj 468 -12 loadbang;
#X obj 468 37 metro 200;
#X obj 468 13 f 1;
#X obj 555 295 change;
#X obj 555 321 s \$0-hover;
#X obj 191 187 line;
#X obj 233 187 line;
#X msg 191 162 \$1 20;
#X msg 233 162 \$1 20;
#X obj 500 402 &&;
#X obj 577 371 != 1;
#X text 616 386 one and hopefully no other send with;
#X text 616 399 this name exists :);
#X text 614 364 this should help avoid collisions;
#X text 616 375 if two points are near grabing only;
#X obj 579 349 r grabpointhasbeentakenalready_man!;
#X obj 584 431 s grabpointhasbeentakenalready_man!;
#X text 666 -13 Lorenzo Sutton 2010;
#X text 667 0 lsutton@libero.it;
#X obj 366 367 r \$0-lb;
#X obj 366 390 outlet;
#X obj 710 61 inlet;
#X obj 710 89 s \$0-color;
#X obj 55 156 r \$0-color;
#X obj 75 181 unpack 0 0 0;
#X obj 16 340 rectangle 0.2 0.2;
#X obj 16 317 spigot \$6;
#X obj 152 437 spigot \$6;
#X obj 152 460 rectangle 0.3 0.3;
#X connect 0 0 46 0;
#X connect 1 0 2 0;
#X connect 2 0 3 0;
#X connect 2 1 4 0;
#X connect 5 0 7 0;
#X connect 6 0 8 0;
#X connect 9 0 10 0;
#X connect 9 1 11 0;
#X connect 9 2 14 0;
#X connect 10 0 15 0;
#X connect 11 0 12 0;
#X connect 11 1 13 1;
#X connect 12 0 13 0;
#X connect 13 0 16 0;
#X connect 17 0 34 0;
#X connect 18 0 36 0;
#X connect 19 0 22 0;
#X connect 20 0 21 0;
#X connect 21 0 24 0;
#X connect 22 0 25 0;
#X connect 23 0 22 1;
#X connect 23 0 21 1;
#X connect 26 0 17 1;
#X connect 27 0 18 1;
#X connect 28 0 68 0;
#X connect 29 0 31 0;
#X connect 30 0 28 1;
#X connect 31 0 28 0;
#X connect 32 0 36 1;
#X connect 33 0 34 1;
#X connect 34 0 35 0;
#X connect 35 0 41 0;
#X connect 36 0 37 0;
#X connect 37 0 42 0;
#X connect 38 0 30 0;
#X connect 38 0 73 0;
#X connect 39 0 17 0;
#X connect 39 0 18 0;
#X connect 40 0 39 0;
#X connect 41 0 38 0;
#X connect 42 0 38 1;
#X connect 43 0 3 0;
#X connect 44 0 4 0;
#X connect 45 0 43 0;
#X connect 45 0 44 0;
#X connect 45 0 58 0;
#X connect 46 0 96 0;
#X connect 47 0 58 0;
#X connect 47 0 72 0;
#X connect 48 0 52 0;
#X connect 49 0 77 0;
#X connect 50 0 78 0;
#X connect 51 0 56 0;
#X connect 51 0 0 0;
#X connect 52 0 51 0;
#X connect 53 0 60 0;
#X connect 54 0 61 0;
#X connect 55 0 62 0;
#X connect 56 0 63 0;
#X connect 57 0 56 1;
#X connect 58 0 52 1;
#X connect 59 0 66 0;
#X connect 60 0 57 0;
#X connect 61 0 57 1;
#X connect 62 0 57 2;
#X connect 63 0 65 0;
#X connect 64 0 63 1;
#X connect 65 0 97 0;
#X connect 66 0 53 0;
#X connect 66 1 54 0;
#X connect 66 2 55 0;
#X connect 67 0 63 1;
#X connect 68 0 79 0;
#X connect 70 0 72 0;
#X connect 71 0 40 0;
#X connect 72 0 71 0;
#X connect 73 0 74 0;
#X connect 75 0 51 1;
#X connect 76 0 51 2;
#X connect 77 0 75 0;
#X connect 78 0 76 0;
#X connect 79 0 69 0;
#X connect 79 0 86 0;
#X connect 80 0 79 1;
#X connect 85 0 80 0;
#X connect 89 0 90 0;
#X connect 91 0 92 0;
#X connect 93 0 0 1;
#X connect 93 0 94 0;
#X connect 94 0 53 0;
#X connect 94 1 54 0;
#X connect 94 2 55 0;
#X connect 96 0 95 0;
#X connect 97 0 98 0;
