#N canvas 488 276 193 296 10;
#X obj 51 64 until;
#X obj 51 85 list append;
#X obj 51 108 list split 1;
#X obj 134 108 bang;
#X obj 83 149 outlet;
#X obj 51 9 inlet;
#X obj 83 170 inlet;
#X msg 115 197 bang;
#X obj 51 34 t b l b;
#X obj 134 222 list;
#X obj 31 248 list;
#X obj 31 273 outlet;
#X obj 52 222 list prepend;
#X connect 0 0 1 0;
#X connect 1 0 2 0;
#X connect 2 0 4 0;
#X connect 2 1 1 1;
#X connect 2 2 3 0;
#X connect 3 0 0 1;
#X connect 3 0 10 0;
#X connect 5 0 8 0;
#X connect 6 0 12 0;
#X connect 7 0 12 1;
#X connect 8 0 0 0;
#X connect 8 1 1 1;
#X connect 8 2 7 0;
#X connect 9 0 12 1;
#X connect 10 0 11 0;
#X connect 12 0 9 0;
#X connect 12 0 10 1;
