#N canvas 568 397 123 207 10;
#X obj 15 129 parallelise;
#X obj 15 15 inlet;
#X obj 15 160 outlet;
#X obj 34 74 until;
#X msg 77 74 0;
#X obj 34 101 f;
#X obj 64 101 + 1;
#X obj 15 43 t b f b;
#X connect 0 0 2 0;
#X connect 1 0 7 0;
#X connect 3 0 5 0;
#X connect 4 0 5 1;
#X connect 5 0 6 0;
#X connect 5 0 0 0;
#X connect 6 0 5 1;
#X connect 7 0 0 1;
#X connect 7 1 3 0;
#X connect 7 2 4 0;
