#N canvas 704 44 450 300 12;
#N canvas 388 81 178 251 rshift 0;
#X obj 35 18 inlet;
#X obj 35 43 list split 1;
#X obj 35 169 list append;
#X obj 35 139 list;
#X obj 35 210 outlet;
#X obj 35 98 t b f;
#X obj 93 18 inlet;
#X obj 35 74 + 0;
#X connect 0 0 1 0;
#X connect 1 0 7 0;
#X connect 1 1 3 1;
#X connect 2 0 4 0;
#X connect 3 0 2 0;
#X connect 5 0 3 0;
#X connect 5 1 2 1;
#X connect 6 0 7 1;
#X connect 7 0 5 0;
#X restore 319 213 pd rshift;
#N canvas 184 107 235 291 lshift 0;
#X obj 24 13 inlet;
#X obj 24 223 list append;
#X obj 24 255 outlet;
#X obj 101 71 list length;
#X obj 24 41 t l l;
#X obj 24 120 list split;
#X obj 101 96 - 1;
#X obj 24 196 list;
#X obj 24 162 t b l;
#X obj 168 13 inlet;
#X obj 88 161 - 0;
#X connect 0 0 4 0;
#X connect 1 0 2 0;
#X connect 3 0 6 0;
#X connect 4 0 5 0;
#X connect 4 1 3 0;
#X connect 5 0 8 0;
#X connect 5 1 10 0;
#X connect 6 0 5 1;
#X connect 7 0 1 0;
#X connect 8 0 7 0;
#X connect 8 1 1 1;
#X connect 9 0 10 1;
#X connect 10 0 7 1;
#X restore 124 214 pd lshift;
#X obj 131 267 outlet;
#X obj 36 184 * -1;
#X obj 100 114 moses 0;
#X obj 199 117 list;
#X obj 36 214 iterate;
#X obj 233 213 iterate;
#X obj 285 144 route 0;
#X obj 285 118 float \$1;
#X obj 100 68 t f b b;
#X obj 100 42 inlet number;
#X obj 228 70 inlet list;
#X obj 346 70 inlet wrap;
#X connect 0 0 7 1;
#X connect 1 0 6 1;
#X connect 3 0 6 0;
#X connect 4 0 3 0;
#X connect 4 1 7 0;
#X connect 5 0 6 1;
#X connect 5 0 7 1;
#X connect 6 0 2 0;
#X connect 6 1 1 0;
#X connect 7 0 2 0;
#X connect 7 1 0 0;
#X connect 8 1 1 1;
#X connect 8 1 0 1;
#X connect 9 0 8 0;
#X connect 10 0 4 0;
#X connect 10 1 5 0;
#X connect 10 2 9 0;
#X connect 11 0 10 0;
#X connect 12 0 5 1;
#X connect 13 0 9 1;
