#N canvas 320 10 370 388 12;
#X obj 90 59 inlet;
#X obj 169 60 inlet;
#X obj 96 339 outlet;
#X obj 183 337 outlet;
#X obj 114 126 f;
#X obj 204 282 list;
#X obj 251 182 - 1;
#X obj 110 191 route 0;
#X obj 82 260 list;
#X obj 162 240 t f b;
#X connect 0 0 4 0;
#X connect 1 0 5 1;
#X connect 1 0 8 1;
#X connect 4 0 7 0;
#X connect 5 0 3 0;
#X connect 6 0 4 0;
#X connect 7 0 8 0;
#X connect 7 1 9 0;
#X connect 8 0 2 0;
#X connect 9 0 6 0;
#X connect 9 1 5 0;
