#N canvas 0 22 236 321 10;
#X obj -45 15 inlet;
#X obj -45 72 list/serialise;
#X obj -45 138 >;
#X obj -45 218 f;
#X obj -60 256 f;
#X obj -45 164 sel 1;
#X obj 55 72 list split 1;
#X obj 55 95 list trim;
#X obj -60 284 outlet;
#X obj 34 285 outlet;
#X obj -45 109 t f f b;
#X obj 94 187 + 1;
#X obj 64 187 f;
#X obj -45 39 t l l b;
#X msg 79 162 0;
#X obj 49 218 f;
#X obj -45 190 t b b;
#X obj 7 225 t b b;
#X obj 34 257 f;
#X connect 0 0 13 0;
#X connect 1 0 10 0;
#X connect 1 1 17 0;
#X connect 2 0 5 0;
#X connect 3 0 2 1;
#X connect 3 0 4 1;
#X connect 4 0 8 0;
#X connect 5 0 16 0;
#X connect 6 0 7 0;
#X connect 7 0 2 1;
#X connect 7 0 4 1;
#X connect 10 0 2 0;
#X connect 10 1 3 1;
#X connect 10 2 12 0;
#X connect 11 0 12 1;
#X connect 12 0 11 0;
#X connect 12 0 15 1;
#X connect 13 0 1 0;
#X connect 13 1 6 0;
#X connect 13 2 14 0;
#X connect 14 0 12 1;
#X connect 14 0 18 1;
#X connect 15 0 18 1;
#X connect 16 0 3 0;
#X connect 16 1 15 0;
#X connect 17 0 4 0;
#X connect 17 1 18 0;
#X connect 18 0 9 0;
