#N canvas 352 99 351 496 10;
#X obj -12 19 inlet;
#X obj 81 150 list prepend;
#X msg 34 83 list;
#X obj -12 50 route bang reset;
#X obj 60 177 list;
#X obj 60 251 indexof /\$0/;
#X obj 81 82 list append /\$0/;
#X obj 60 347 list split;
#X obj 60 278 sel -1;
#X obj 88 375 list split 1;
#X obj 100 107 t b a;
#X msg 186 199 list;
#X obj 150 126 t a;
#X obj 60 434 outlet;
#X obj 122 434 outlet;
#X obj 122 405 route bang;
#X obj 93 323 list;
#X obj 93 300 t b f;
#X obj 60 202 t a a;
#X obj 60 226 t b a;
#X connect 0 0 3 0;
#X connect 1 0 4 1;
#X connect 1 0 12 0;
#X connect 2 0 1 1;
#X connect 3 0 4 0;
#X connect 3 1 2 0;
#X connect 3 2 6 0;
#X connect 4 0 18 0;
#X connect 5 0 8 0;
#X connect 6 0 1 0;
#X connect 7 0 13 0;
#X connect 7 1 9 0;
#X connect 7 2 11 0;
#X connect 8 0 14 0;
#X connect 8 1 17 0;
#X connect 9 1 15 0;
#X connect 9 2 11 0;
#X connect 10 0 1 0;
#X connect 10 1 1 1;
#X connect 11 0 10 0;
#X connect 12 0 1 1;
#X connect 15 0 11 0;
#X connect 15 1 10 0;
#X connect 16 0 7 0;
#X connect 17 0 16 0;
#X connect 17 1 7 1;
#X connect 18 0 19 0;
#X connect 18 1 16 1;
#X connect 19 0 5 0;
#X connect 19 1 5 1;
