#N canvas 736 86 450 300 12;
#X obj 59 4 inlet;
#X obj 30 163 outlet;
#X obj 115 4 inlet;
#X obj 59 101 list prepend;
#X obj 30 130 list;
#X obj 159 73 t l;
#X connect 0 0 3 0;
#X connect 2 0 4 0;
#X connect 2 0 3 1;
#X connect 3 0 4 1;
#X connect 3 0 5 0;
#X connect 4 0 1 0;
#X connect 5 0 3 1;
