#N canvas 369 372 278 443 10;
#X obj 25 7 inlet;
#X obj 25 33 serialise;
#X obj 44 181 ../control/localpeak;
#X obj 76 66 t b b;
#X obj 184 109 outlet;
#X obj 44 213 spigot 0;
#X obj 161 213 spigot 0;
#X msg 135 131 0;
#X msg 25 136 1;
#X obj 25 106 t b f b;
#X obj 44 387 outlet;
#X obj 122 213 - 1;
#N canvas 585 178 151 114 count 0;
#X obj 22 62 f 0;
#X obj 51 62 + 1;
#X obj 22 19 inlet;
#X obj 70 6 inlet;
#X msg 70 31 0;
#X obj 22 88 outlet;
#X connect 0 0 1 0;
#X connect 0 0 5 0;
#X connect 1 0 0 1;
#X connect 2 0 0 0;
#X connect 3 0 4 0;
#X connect 4 0 0 1;
#X restore 64 136 pd count;
#X obj 96 106 t b b b;
#N canvas 256 74 258 284 quadpeak 0;
#X obj 28 44 unpack f f f;
#X obj 112 44 unpack f f f;
#X obj 28 16 t a a;
#X obj 112 96 -;
#X obj 139 96 -;
#X obj 154 68 * 2;
#X obj 139 124 +;
#X obj 112 149 /;
#X obj 112 171 * 0.5;
#X obj 112 69 t f f;
#X obj 181 68 t f f;
#X obj 62 135 -;
#X obj 139 217 outlet offset;
#X obj 112 193 t f f;
#X obj 28 83 -;
#X obj 28 109 * 0.25;
#X obj 28 135 *;
#X obj 28 160 swap;
#X obj 28 185 -;
#X obj 28 214 outlet peak;
#X obj 28 -11 inlet;
#X connect 0 0 14 0;
#X connect 0 1 11 0;
#X connect 0 2 14 1;
#X connect 1 0 9 0;
#X connect 1 1 5 0;
#X connect 1 2 10 0;
#X connect 2 0 0 0;
#X connect 2 1 1 0;
#X connect 3 0 7 0;
#X connect 4 0 6 0;
#X connect 5 0 4 1;
#X connect 6 0 7 1;
#X connect 7 0 8 0;
#X connect 8 0 13 0;
#X connect 9 0 3 0;
#X connect 9 1 4 0;
#X connect 10 0 3 1;
#X connect 10 1 6 1;
#X connect 11 0 17 1;
#X connect 13 0 16 1;
#X connect 13 1 12 0;
#X connect 14 0 15 0;
#X connect 15 0 16 0;
#X connect 16 0 17 0;
#X connect 17 0 18 0;
#X connect 17 1 18 1;
#X connect 18 0 19 0;
#X connect 20 0 2 0;
#X restore 44 307 pd quadpeak;
#X obj 107 331 +;
#X obj 44 237 bang;
#X obj 44 363 pack;
#X obj 86 245 shiftreg 3;
#X obj 44 285 list;
#N canvas 256 74 258 284 quadpeak 0;
#X obj 28 44 unpack f f f;
#X obj 112 44 unpack f f f;
#X obj 28 16 t a a;
#X obj 112 96 -;
#X obj 139 96 -;
#X obj 154 68 * 2;
#X obj 139 124 +;
#X obj 112 149 /;
#X obj 112 171 * 0.5;
#X obj 112 69 t f f;
#X obj 181 68 t f f;
#X obj 62 135 -;
#X obj 139 217 outlet offset;
#X obj 112 193 t f f;
#X obj 28 83 -;
#X obj 28 109 * 0.25;
#X obj 28 135 *;
#X obj 28 160 swap;
#X obj 28 185 -;
#X obj 28 214 outlet peak;
#X obj 28 -11 inlet;
#X connect 0 0 14 0;
#X connect 0 1 11 0;
#X connect 0 2 14 1;
#X connect 1 0 9 0;
#X connect 1 1 5 0;
#X connect 1 2 10 0;
#X connect 2 0 0 0;
#X connect 2 1 1 0;
#X connect 3 0 7 0;
#X connect 4 0 6 0;
#X connect 5 0 4 1;
#X connect 6 0 7 1;
#X connect 7 0 8 0;
#X connect 8 0 13 0;
#X connect 9 0 3 0;
#X connect 9 1 4 0;
#X connect 10 0 3 1;
#X connect 10 1 6 1;
#X connect 11 0 17 1;
#X connect 13 0 16 1;
#X connect 13 1 12 0;
#X connect 14 0 15 0;
#X connect 15 0 16 0;
#X connect 16 0 17 0;
#X connect 17 0 18 0;
#X connect 17 1 18 1;
#X connect 18 0 19 0;
#X connect 20 0 2 0;
#X restore 161 307 pd quadpeak;
#X obj 224 331 +;
#X obj 161 237 bang;
#X obj 161 285 list;
#X obj 161 387 outlet;
#X obj 161 363 pack;
#X obj 25 66 t f f;
#X connect 0 0 1 0;
#X connect 1 0 26 0;
#X connect 1 1 3 0;
#X connect 2 0 5 0;
#X connect 2 1 6 0;
#X connect 3 0 13 0;
#X connect 3 1 4 0;
#X connect 5 0 16 0;
#X connect 6 0 22 0;
#X connect 7 0 5 1;
#X connect 7 0 6 1;
#X connect 8 0 5 1;
#X connect 8 0 6 1;
#X connect 9 0 8 0;
#X connect 9 1 2 0;
#X connect 9 2 12 0;
#X connect 11 0 15 1;
#X connect 11 0 21 1;
#X connect 12 0 11 0;
#X connect 13 0 12 1;
#X connect 13 1 2 1;
#X connect 13 2 7 0;
#X connect 14 0 17 0;
#X connect 14 1 15 0;
#X connect 15 0 17 1;
#X connect 16 0 19 0;
#X connect 17 0 10 0;
#X connect 18 0 19 1;
#X connect 18 0 23 1;
#X connect 19 0 14 0;
#X connect 20 0 25 0;
#X connect 20 1 21 0;
#X connect 21 0 25 1;
#X connect 22 0 23 0;
#X connect 23 0 20 0;
#X connect 25 0 24 0;
#X connect 26 0 9 0;
#X connect 26 1 18 1;
