#N canvas 299 93 234 326 10;
#X obj 25 7 inlet;
#X msg 95 157 0;
#X obj 25 33 serialise;
#X obj 44 181 ../control/localpeak;
#X obj 76 56 t b b;
#X obj 184 109 outlet;
#X obj 44 213 spigot 0;
#X obj 161 213 spigot 0;
#X msg 120 136 0;
#X msg 25 136 1;
#X obj 25 106 t b f b;
#X obj 44 262 pack;
#X obj 161 261 pack;
#X obj 44 289 outlet;
#X obj 161 288 outlet;
#X obj 83 235 - 1;
#N canvas 585 178 151 114 count 0;
#X obj 22 62 f 0;
#X obj 51 62 + 1;
#X obj 22 19 inlet;
#X obj 70 6 inlet;
#X msg 70 31 0;
#X obj 22 88 outlet;
#X connect 0 0 1 0;
#X connect 0 0 5 0;
#X connect 1 0 0 1;
#X connect 2 0 0 0;
#X connect 3 0 4 0;
#X connect 4 0 0 1;
#X restore 64 136 pd count;
#X obj 76 106 t b b b;
#X connect 0 0 2 0;
#X connect 1 0 3 0;
#X connect 2 0 10 0;
#X connect 2 1 4 0;
#X connect 3 0 6 0;
#X connect 3 1 7 0;
#X connect 4 0 17 0;
#X connect 4 1 5 0;
#X connect 6 0 11 0;
#X connect 7 0 12 0;
#X connect 8 0 6 1;
#X connect 8 0 7 1;
#X connect 9 0 6 1;
#X connect 9 0 7 1;
#X connect 10 0 9 0;
#X connect 10 1 3 0;
#X connect 10 2 16 0;
#X connect 11 0 13 0;
#X connect 12 0 14 0;
#X connect 15 0 11 1;
#X connect 15 0 12 1;
#X connect 16 0 15 0;
#X connect 17 0 16 1;
#X connect 17 1 1 0;
#X connect 17 2 8 0;
