#N canvas 810 172 359 202 10;
#X obj 5 16 inlet bang;
#X obj 86 16 inlet prepend;
#X obj 186 16 inlet append;
#X obj 276 45 inlet list;
#X obj 125 104 list;
#X obj 104 130 list;
#X obj 104 160 outlet;
#X obj 5 45 bang;
#X obj 86 45 list append;
#X obj 186 45 list prepend;
#X connect 0 0 7 0;
#X connect 1 0 8 0;
#X connect 2 0 9 0;
#X connect 3 0 4 0;
#X connect 4 0 5 1;
#X connect 4 0 8 1;
#X connect 4 0 9 1;
#X connect 5 0 6 0;
#X connect 7 0 5 0;
#X connect 8 0 4 0;
#X connect 9 0 4 0;
