#N canvas 0 22 292 217 12;
#X obj 90 10 inlet;
#X obj 61 178 outlet;
#X obj 61 145 list;
#X obj 214 124 t l;
#X obj 185 67 t b b;
#X obj 90 117 list append;
#X obj 90 37 list/serialise;
#X connect 0 0 6 0;
#X connect 2 0 1 0;
#X connect 3 0 5 1;
#X connect 4 0 2 0;
#X connect 4 1 5 1;
#X connect 5 0 2 1;
#X connect 5 0 3 0;
#X connect 6 0 5 0;
#X connect 6 1 4 0;
