#N canvas 736 86 450 300 12;
#X obj 35 151 list split 1;
#X obj 35 68 until;
#X obj 35 106 list append;
#X obj 61 35 t b l;
#X obj 165 151 bang;
#X obj 59 4 inlet;
#X obj 37 187 outlet;
#X obj 166 184 outlet;
#X connect 0 0 6 0;
#X connect 0 1 2 1;
#X connect 0 2 4 0;
#X connect 1 0 2 0;
#X connect 2 0 0 0;
#X connect 3 0 1 0;
#X connect 3 1 2 1;
#X connect 4 0 1 1;
#X connect 4 0 7 0;
#X connect 5 0 3 0;
