#N canvas 0 22 450 300 10;
#X obj 42 31 inlet;
#X obj 245 117 inlet;
#X obj 42 176 list split 1;
#X obj 42 93 until;
#X obj 42 149 list append;
#X obj 42 62 t b l;
#X obj 124 176 bang;
#X obj 182 176 list split 1;
#X obj 182 149 list append;
#X obj 42 240 outlet;
#X obj 124 240 outlet;
#X obj 333 117 inlet;
#X obj 270 176 list split 1;
#X obj 270 149 list append;
#X obj 42 211 pack 0 0 0;
#X obj 42 120 t b b b;
#X connect 0 0 5 0;
#X connect 1 0 8 1;
#X connect 2 0 14 0;
#X connect 2 1 4 1;
#X connect 2 2 6 0;
#X connect 3 0 15 0;
#X connect 4 0 2 0;
#X connect 5 0 3 0;
#X connect 5 1 4 1;
#X connect 6 0 3 1;
#X connect 6 0 10 0;
#X connect 7 0 14 1;
#X connect 7 1 8 1;
#X connect 8 0 7 0;
#X connect 11 0 13 1;
#X connect 12 0 14 2;
#X connect 12 1 13 1;
#X connect 13 0 12 0;
#X connect 14 0 9 0;
#X connect 15 0 4 0;
#X connect 15 1 8 0;
#X connect 15 2 13 0;
