#N canvas 0 22 300 278 10;
#X obj 42 31 inlet;
#X obj 245 117 inlet;
#X obj 42 176 list split 1;
#X obj 42 93 until;
#X obj 42 149 list append;
#X obj 42 62 t b l;
#X obj 124 176 bang;
#X obj 42 120 t b b;
#X obj 182 176 list split 1;
#X obj 182 149 list append;
#X obj 42 211 pack;
#X obj 42 240 outlet;
#X obj 124 240 outlet;
#X connect 0 0 5 0;
#X connect 1 0 9 1;
#X connect 2 0 10 0;
#X connect 2 1 4 1;
#X connect 2 2 6 0;
#X connect 3 0 7 0;
#X connect 4 0 2 0;
#X connect 5 0 3 0;
#X connect 5 1 4 1;
#X connect 6 0 3 1;
#X connect 6 0 12 0;
#X connect 7 0 4 0;
#X connect 7 1 9 0;
#X connect 8 0 10 1;
#X connect 8 1 9 1;
#X connect 9 0 8 0;
#X connect 10 0 11 0;
