#N canvas 704 297 260 237 10;
#X obj 20 43 inlet;
#N canvas 489 45 137 264 makelist 0;
#X obj 48 174 list;
#X obj 48 123 until;
#X obj 83 174 t a;
#X obj 48 97 max 1;
#X obj 48 72 f \$1;
#X obj 27 19 loadbang;
#X obj 27 199 list;
#X obj 27 45 t b b;
#X obj 27 225 outlet;
#X obj 48 149 f \$2;
#X connect 0 0 2 0;
#X connect 0 0 6 1;
#X connect 1 0 9 0;
#X connect 2 0 0 1;
#X connect 3 0 1 0;
#X connect 4 0 3 0;
#X connect 5 0 7 0;
#X connect 6 0 8 0;
#X connect 7 0 6 0;
#X connect 7 1 4 0;
#X connect 9 0 0 0;
#X restore 60 43 pd makelist;
#X obj 135 43 inlet;
#X obj 39 103 list;
#X obj 96 121 - 1;
#X obj 96 99 f \$1;
#X obj 39 143 list split;
#X obj 20 70 t f b b;
#X obj 20 170 list;
#X obj 20 201 outlet;
#X obj 162 141 list split 1;
#X obj 135 70 t f b;
#X obj 135 170 list prepend;
#X obj 162 103 list;
#X connect 0 0 7 0;
#X connect 1 0 3 1;
#X connect 1 0 13 1;
#X connect 2 0 11 0;
#X connect 3 0 6 0;
#X connect 3 0 10 0;
#X connect 4 0 6 1;
#X connect 5 0 4 0;
#X connect 6 0 8 1;
#X connect 7 0 8 0;
#X connect 7 1 3 0;
#X connect 7 2 5 0;
#X connect 8 0 3 1;
#X connect 8 0 9 0;
#X connect 8 0 13 1;
#X connect 10 1 12 1;
#X connect 11 0 12 0;
#X connect 11 1 13 0;
#X connect 12 0 3 1;
#X connect 12 0 9 0;
#X connect 12 0 13 1;
#X connect 13 0 10 0;
