#N canvas 843 329 270 302 10;
#N canvas 451 302 296 298 extract 0;
#X obj 50 69 inlet list;
#X obj 107 100 inlet index;
#X obj 50 130 list split;
#X obj 78 161 list split 1;
#X obj 50 196 list;
#X obj 155 244 outlet element;
#X obj 50 244 outlet remainder;
#X obj 155 196 list trim;
#X connect 0 0 2 0;
#X connect 1 0 2 1;
#X connect 2 0 4 0;
#X connect 2 1 3 0;
#X connect 3 0 7 0;
#X connect 3 1 4 1;
#X connect 4 0 6 0;
#X connect 7 0 5 0;
#X restore 43 166 pd extract;
#X obj 43 112 t a a;
#N canvas 538 298 242 248 nonemptylist 0;
#X obj 46 69 t a a;
#X obj 79 97 list length;
#X obj 79 126 > 0;
#X obj 46 154 spigot;
#X obj 151 154 sel 0;
#X obj 151 182 outlet empty;
#X obj 46 36 inlet list;
#X obj 46 182 outlet nonempty;
#X connect 0 0 3 0;
#X connect 0 1 1 0;
#X connect 1 0 2 0;
#X connect 2 0 3 1;
#X connect 2 0 4 0;
#X connect 3 0 7 0;
#X connect 4 0 5 0;
#X connect 6 0 0 0;
#X restore 7 86 pd nonemptylist;
#X obj 7 45 inlet;
#X obj 100 246 outlet;
#X obj 70 138 list/listmax;
#X obj 100 194 list/parallelise;
#X obj 100 219 list/reverse;
#X connect 0 0 2 0;
#X connect 0 1 6 0;
#X connect 1 0 0 0;
#X connect 1 1 5 0;
#X connect 2 0 1 0;
#X connect 2 1 6 1;
#X connect 3 0 2 0;
#X connect 5 1 0 1;
#X connect 6 0 7 0;
#X connect 7 0 4 0;
