#N canvas 1138 120 277 335 10;
#N canvas 687 24 344 178 parameters 0;
#X obj 19 39 route adsr attack decay sustain release;
#X obj 19 63 unpack f f f f;
#X obj 19 15 inlet;
#X obj 18 141 outlet attack;
#X obj 111 140 outlet decay;
#X obj 157 115 outlet sustain;
#X obj 203 90 outlet release;
#X obj 250 65 outlet note;
#X connect 0 0 1 0;
#X connect 0 1 3 0;
#X connect 0 2 4 0;
#X connect 0 3 5 0;
#X connect 0 4 6 0;
#X connect 0 5 7 0;
#X connect 1 0 3 0;
#X connect 1 1 4 0;
#X connect 1 2 5 0;
#X connect 1 3 6 0;
#X connect 2 0 0 0;
#X restore 136 35 pd parameters;
#X obj 7 83 route float;
#X obj 70 107 unpack;
#X obj 136 12 inlet;
#X obj 81 254 pack 0 \$4;
#X obj 144 279 vline~;
#X obj 144 301 outlet~;
#X obj 81 229 delay;
#X msg 81 206 stop \, bang;
#N canvas 829 248 224 209 attack 0;
#X obj 26 128 pack 0 \$1 \$2 0;
#X obj 107 104 * \$3;
#X obj 26 38 t f f;
#X msg 26 152 \$1 \$2 \, \$4 \$3 \$2;
#X obj 26 176 outlet;
#X obj 26 13 inlet amplitude;
#X obj 71 35 inlet attack;
#X obj 94 58 inlet decay;
#X obj 128 80 inlet sustain;
#X connect 0 0 3 0;
#X connect 1 0 0 3;
#X connect 2 0 0 0;
#X connect 2 1 1 0;
#X connect 3 0 4 0;
#X connect 5 0 2 0;
#X connect 6 0 0 1;
#X connect 7 0 0 2;
#X connect 8 0 1 1;
#X restore 144 254 pd attack;
#X obj 7 135 sel 0;
#X obj 7 164 t b b;
#X msg 34 187 stop;
#X obj 81 183 spigot;
#X obj 114 160 t f f;
#X msg 114 135 0;
#X obj 7 107 t f b;
#X obj 54 160 t f b;
#X connect 0 0 9 1;
#X connect 0 1 9 2;
#X connect 0 2 9 3;
#X connect 0 3 4 1;
#X connect 0 4 1 0;
#X connect 1 0 16 0;
#X connect 1 1 2 0;
#X connect 2 0 10 0;
#X connect 2 1 14 0;
#X connect 3 0 0 0;
#X connect 4 0 5 0;
#X connect 5 0 6 0;
#X connect 7 0 4 0;
#X connect 8 0 7 0;
#X connect 9 0 5 0;
#X connect 10 0 11 0;
#X connect 10 1 17 0;
#X connect 11 0 4 0;
#X connect 11 1 12 0;
#X connect 12 0 7 0;
#X connect 13 0 8 0;
#X connect 14 0 13 1;
#X connect 14 1 7 1;
#X connect 15 0 14 0;
#X connect 16 0 10 0;
#X connect 16 1 15 0;
#X connect 17 0 9 0;
#X connect 17 1 13 0;
