#N canvas 536 253 341 332 10;
#X obj 17 11 inlet~;
#X obj 68 11 inlet~;
#X obj 123 11 inlet;
#X obj 17 214 outlet~;
#X obj 17 178 *~;
#X obj 68 178 *~;
#X obj 123 108 -;
#X obj 123 84 swap 1;
#X obj 123 58 t f f;
#X obj 179 132 t f f;
#X obj 162 157 pow 2;
#X obj 206 157 pow 2;
#X obj 162 179 +;
#X obj 162 202 pow -0.5;
#X obj 123 230 *;
#X obj 162 230 *;
#X obj 233 6 loadbang;
#X obj 266 80 route 0;
#X msg 266 104 2;
#X obj 266 157 /;
#X obj 266 180 * -1;
#X obj 123 290 line~;
#X obj 162 290 line~;
#X obj 123 34 clip 0 1;
#X msg 162 268 \$1 50;
#X msg 123 268 \$1 50;
#X obj 266 57 f \$2;
#X obj 233 32 t b b;
#X obj 229 56 f \$1;
#X obj 266 134 swap 1;
#X obj 133 179 f;
#X obj 123 132 t f b f;
#X connect 0 0 4 0;
#X connect 1 0 5 0;
#X connect 2 0 23 0;
#X connect 4 0 3 0;
#X connect 5 0 3 0;
#X connect 6 0 31 0;
#X connect 7 0 6 0;
#X connect 7 1 6 1;
#X connect 8 0 7 0;
#X connect 8 1 9 0;
#X connect 9 0 30 1;
#X connect 9 1 11 0;
#X connect 10 0 12 0;
#X connect 11 0 12 1;
#X connect 12 0 13 0;
#X connect 13 0 14 1;
#X connect 13 0 15 1;
#X connect 14 0 25 0;
#X connect 15 0 24 0;
#X connect 16 0 27 0;
#X connect 17 0 18 0;
#X connect 17 1 10 1;
#X connect 17 1 11 1;
#X connect 18 0 10 1;
#X connect 18 0 11 1;
#X connect 18 0 29 0;
#X connect 19 0 20 0;
#X connect 20 0 13 1;
#X connect 21 0 4 1;
#X connect 22 0 5 1;
#X connect 23 0 8 0;
#X connect 24 0 22 0;
#X connect 25 0 21 0;
#X connect 26 0 17 0;
#X connect 27 0 28 0;
#X connect 27 1 26 0;
#X connect 28 0 8 0;
#X connect 29 0 19 0;
#X connect 29 1 19 1;
#X connect 30 0 15 0;
#X connect 31 0 14 0;
#X connect 31 1 30 0;
#X connect 31 2 10 0;
