#N canvas 526 113 252 209 10;
#X obj 32 35 inlet~ compare;
#X obj 32 148 outlet~;
#X obj 134 35 inlet release;
#X obj 32 66 rzero~ 1;
#X obj 32 93 clip~ 0 1;
#X obj 32 120 attrel~ 0 50;
#X connect 0 0 3 0;
#X connect 2 0 5 2;
#X connect 3 0 4 0;
#X connect 4 0 5 0;
#X connect 5 0 1 0;
