#N canvas 485 288 206 153 10;
#X obj 9 -14 inlet~;
#X obj 9 12 +~;
#X obj 157 47 *~ \$2;
#X obj 9 35 delwrite~ \$0-delay 100;
#X obj 9 58 delread~ \$0-delay \$1;
#X obj 9 82 outlet~;
#X connect 0 0 1 0;
#X connect 1 0 3 0;
#X connect 2 0 1 1;
#X connect 4 0 5 0;
#X connect 4 0 2 0;
