#N canvas 698 206 269 211 10;
#X obj 99 146 *~;
#X obj 99 170 outlet~;
#N canvas 542 412 276 329 grainsignals 1;
#X obj 71 296 outlet~;
#X obj 86 196 line~;
#X obj 130 71 -;
#X obj 130 95 t b f;
#X obj 130 118 delay;
#X obj 130 144 f;
#X obj 145 48 t f f;
#X obj 16 96 samplerate~;
#X obj 16 118 *;
#X obj 16 142 / 1000;
#X obj 59 -4 inlet length fadein fadeout offset;
#X obj 59 18 unpack 0 0 0 0;
#X obj 16 249 outlet;
#X obj 16 225 pack;
#X obj 16 202 swap;
#X obj 16 71 t b f;
#X obj 71 247 sig~ 1;
#X obj 71 271 -~;
#X obj 86 221 *~;
#X msg 86 172 0 \$1;
#X msg 130 172 1 \$1;
#X connect 1 0 18 0;
#X connect 1 0 18 1;
#X connect 2 0 3 0;
#X connect 3 0 4 0;
#X connect 3 1 4 1;
#X connect 4 0 5 0;
#X connect 5 0 20 0;
#X connect 6 0 2 1;
#X connect 6 1 5 1;
#X connect 7 0 8 0;
#X connect 8 0 9 0;
#X connect 9 0 14 0;
#X connect 10 0 11 0;
#X connect 11 0 2 0;
#X connect 11 0 15 0;
#X connect 11 1 19 0;
#X connect 11 2 6 0;
#X connect 11 3 14 1;
#X connect 13 0 12 0;
#X connect 14 0 13 0;
#X connect 14 1 13 1;
#X connect 15 0 7 0;
#X connect 15 1 8 1;
#X connect 16 0 17 0;
#X connect 17 0 0 0;
#X connect 18 0 17 1;
#X connect 19 0 1 0;
#X connect 20 0 1 0;
#X restore 99 89 pd grainsignals;
#X obj 36 36 route table;
#X msg 36 89 set \$1;
#N canvas 0 22 393 189 symbol-change 0;
#X obj 30 -45 inlet;
#X obj 159 93 outlet;
#X obj 30 0 t a a;
#X obj 159 70 symbol;
#X obj 30 -23 symbol;
#X obj 30 23 sel this_silly_object_needs_a_symbol_in_its_creation_argument
;
#X connect 0 0 4 0;
#X connect 2 0 5 0;
#X connect 2 1 3 1;
#X connect 3 0 1 0;
#X connect 3 0 5 1;
#X connect 4 0 2 0;
#X connect 5 1 3 0;
#X restore 36 62 pd symbol-change;
#X obj 99 118 tabplay~ \$1;
#X obj 36 10 inlet length fadein fadeout offset;
#X connect 0 0 1 0;
#X connect 2 0 6 0;
#X connect 2 1 0 1;
#X connect 3 0 5 0;
#X connect 3 1 2 0;
#X connect 4 0 6 0;
#X connect 5 0 4 0;
#X connect 6 0 0 0;
#X connect 7 0 3 0;
