#N canvas 698 206 217 205 10;
#X obj 36 10 inlet;
#X obj 99 146 *~;
#X obj 99 170 outlet~;
#N canvas 892 368 240 328 grainsignals 1;
#X obj 43 280 outlet~;
#X obj 109 280 outlet~;
#X obj 86 -1 inlet;
#X obj 109 228 line~;
#X msg 109 204 1 \$1;
#X obj 153 103 -;
#X obj 153 127 t b f;
#X obj 153 150 delay;
#X msg 153 204 0 \$1;
#X obj 153 176 f;
#X obj 168 80 t f f;
#X obj 43 226 line~;
#X obj 43 80 samplerate~;
#X obj 43 102 *;
#X obj 43 126 / 1000;
#X obj 43 174 pack;
#X obj 43 55 t b f f f;
#X msg 43 202 0 \, \$1 \$2;
#X obj 86 21 unpack 0 0 0 0 0;
#X obj 43 249 +~;
#X obj 43 150 *;
#X obj 109 254 sqrt~;
#X connect 2 0 18 0;
#X connect 3 0 21 0;
#X connect 4 0 3 0;
#X connect 5 0 6 0;
#X connect 6 0 7 0;
#X connect 6 1 7 1;
#X connect 7 0 9 0;
#X connect 8 0 3 0;
#X connect 9 0 8 0;
#X connect 10 0 5 1;
#X connect 10 1 9 1;
#X connect 11 0 19 0;
#X connect 12 0 13 0;
#X connect 13 0 14 0;
#X connect 14 0 20 0;
#X connect 15 0 17 0;
#X connect 16 0 12 0;
#X connect 16 1 13 1;
#X connect 16 2 15 1;
#X connect 16 3 5 0;
#X connect 17 0 11 0;
#X connect 18 0 16 0;
#X connect 18 1 4 0;
#X connect 18 2 10 0;
#X connect 18 3 19 1;
#X connect 18 4 20 1;
#X connect 19 0 0 0;
#X connect 20 0 15 0;
#X connect 21 0 1 0;
#X restore 99 89 pd grainsignals;
#X obj 99 118 tabread4~ \$1;
#X obj 36 36 route table;
#X msg 36 89 set \$1;
#N canvas 0 22 393 189 symbol-change 0;
#X obj 30 -45 inlet;
#X obj 159 93 outlet;
#X obj 30 0 t a a;
#X obj 159 70 symbol;
#X obj 30 -23 symbol;
#X obj 30 23 sel this_silly_object_needs_a_symbol_in_its_creation_argument
;
#X connect 0 0 4 0;
#X connect 2 0 5 0;
#X connect 2 1 3 1;
#X connect 3 0 1 0;
#X connect 3 0 5 1;
#X connect 4 0 2 0;
#X connect 5 1 3 0;
#X restore 36 62 pd symbol-change;
#X connect 0 0 5 0;
#X connect 1 0 2 0;
#X connect 3 0 4 0;
#X connect 3 1 1 1;
#X connect 4 0 1 0;
#X connect 5 0 7 0;
#X connect 5 1 3 0;
#X connect 6 0 4 0;
#X connect 7 0 6 0;
