#N canvas 107 22 432 299 10;
#X obj 20 -46 loadbang;
#N canvas 398 518 347 278 makegrain 0;
#X obj 41 27 inlet;
#X obj 176 108 - 1000;
#X obj 98 176 + 1000;
#X obj 176 129 + 1;
#X obj 98 153 random 1001;
#X obj 176 74 t b f f;
#X obj 290 73 outlet;
#X obj 41 49 route float fadelength minoffset maxoffset;
#X obj 41 74 t f b;
#X obj 41 199 pack 0 0 0;
#X msg 41 223 \$1 \$2 \$2 \$3;
#X obj 41 250 outlet length fadein fadeout offset;
#X connect 0 0 7 0;
#X connect 1 0 3 0;
#X connect 2 0 9 2;
#X connect 3 0 4 1;
#X connect 4 0 2 0;
#X connect 5 0 1 0;
#X connect 5 1 1 1;
#X connect 5 2 2 1;
#X connect 7 0 8 0;
#X connect 7 1 9 1;
#X connect 7 2 5 0;
#X connect 7 3 1 0;
#X connect 7 4 6 0;
#X connect 8 0 9 0;
#X connect 8 1 4 0;
#X connect 9 0 10 0;
#X connect 10 0 11 0;
#X restore 20 113 pd makegrain;
#N canvas 119 255 360 313 overlappinggraintrigger 0;
#X obj 76 273 delay;
#X obj 139 82 t b f f;
#X obj 28 140 spigot 0;
#X msg 55 111 1;
#X obj 28 86 t b b;
#X obj 76 249 t b f;
#X obj 28 6 inlet;
#X obj 139 116 - 1000;
#X obj 76 194 + 1000;
#X obj 76 223 - 50;
#X obj 83 59 route 1;
#X obj 28 33 route bang float minlength maxlength fadelength;
#X obj 139 140 + 1;
#X obj 76 168 random 1001;
#X obj 118 223 outlet length;
#X obj 307 65 outlet;
#X connect 0 0 2 0;
#X connect 1 0 7 0;
#X connect 1 1 7 1;
#X connect 1 2 8 1;
#X connect 2 0 13 0;
#X connect 3 0 2 1;
#X connect 4 0 2 0;
#X connect 4 1 3 0;
#X connect 5 0 0 0;
#X connect 5 1 0 1;
#X connect 6 0 11 0;
#X connect 7 0 12 0;
#X connect 8 0 9 0;
#X connect 8 0 14 0;
#X connect 9 0 5 0;
#X connect 10 0 4 0;
#X connect 10 1 2 1;
#X connect 11 0 4 0;
#X connect 11 1 10 0;
#X connect 11 2 1 0;
#X connect 11 3 7 0;
#X connect 11 4 9 1;
#X connect 11 5 15 0;
#X connect 12 0 13 1;
#X connect 13 0 8 0;
#X restore 20 89 pd overlappinggraintrigger;
#X obj 20 32 tgl 15 0 empty empty empty 17 7 0 10 -262144 -1 -1 1 1
;
#N canvas 450 430 179 194 distribute 0;
#X obj 42 18 inlet;
#X obj 42 48 t a b;
#X obj 24 125 spigot 0;
#X obj 69 100 == 0;
#X obj 89 125 spigot 0;
#X obj 134 100 == 1;
#X obj 24 152 outlet;
#X obj 89 152 outlet;
#X obj 69 73 f;
#X obj 97 73 == 0;
#X connect 0 0 1 0;
#X connect 1 0 2 0;
#X connect 1 0 4 0;
#X connect 1 1 8 0;
#X connect 2 0 6 0;
#X connect 3 0 2 1;
#X connect 4 0 7 0;
#X connect 5 0 4 1;
#X connect 8 0 9 0;
#X connect 8 0 3 0;
#X connect 8 0 5 0;
#X connect 9 0 8 1;
#X restore 20 160 pd distribute;
#X obj 20 216 outlet~;
#X obj 54 65 inlet;
#X obj 20 -19 t b b;
#X obj 172 137 route minlength maxlength;
#X obj 172 162 print granulator~: command not supported;
#X msg 47 25 minlength \$1 \, maxlength \$2 \, fadelength \$3 \, minoffset
\$4 \, maxoffset \$5;
#X obj 173 114 route minoffset maxoffset;
#X obj 47 2 pack \$2 \$3 \$4 \$5 \$6;
#X obj 20 187 grainread~ \$1;
#X obj 116 187 grainread~ \$1;
#X connect 0 0 7 0;
#X connect 1 0 4 0;
#X connect 1 1 8 0;
#X connect 2 0 1 0;
#X connect 2 1 11 0;
#X connect 3 0 2 0;
#X connect 4 0 13 0;
#X connect 4 1 14 0;
#X connect 6 0 2 0;
#X connect 6 0 1 0;
#X connect 7 0 3 0;
#X connect 7 1 12 0;
#X connect 8 2 9 0;
#X connect 10 0 2 0;
#X connect 10 0 1 0;
#X connect 12 0 10 0;
#X connect 13 0 5 0;
#X connect 14 0 5 0;
