#N canvas 123 177 579 383 10;
#X obj 125 106 vradio 15 1 0 3 empty empty empty 0 -8 0 10 -262144
-1 -1 0;
#X text 144 120 sync;
#X text 144 106 mult;
#X text 144 135 freq;
#X obj 180 136 hsl 128 15 1 10000 1 0 empty empty empty -2 -8 0 10
-262144 -1 -1 7437 1;
#X floatatom 177 113 5 0 0 0 - - -;
#X obj 217 114 hsl 91 15 -20 20 0 0 empty empty empty -2 -8 0 10 -262144
-1 -1 4500 1;
#X obj 181 233 phasor~;
#X obj 214 28 loadbang;
#X msg 214 79 0;
#X obj 181 191 sig~;
#X obj 181 212 lop~ 20;
#X obj 117 343 outlet~;
#X obj 219 255 *~;
#X obj 234 191 < 2;
#X obj 234 212 sig~;
#X obj 234 233 lop~ 20;
#X obj 28 278 *~;
#X obj 43 235 sig~;
#X obj 43 256 lop~ 20;
#X obj 43 214 == 0;
#X obj 68 182 *~ 1;
#X obj 105 276 *~;
#X obj 120 233 sig~;
#X obj 120 254 lop~ 20;
#X obj 125 157 t f f f f;
#X obj 120 212 == 1;
#X obj 17 25 inlet~ freq;
#X obj 112 26 inlet~ phase;
#X obj 17 181 phasor~;
#X obj 17 134 *~ 1;
#X obj 332 273 *~;
#X obj 347 230 sig~;
#X obj 347 251 lop~ 20;
#X obj 347 209 == 2;
#X obj 293 247 phasor~;
#X obj 293 204 sig~;
#X obj 293 225 lop~ 20;
#X msg 177 79 1;
#X msg 251 79 220;
#X obj 214 50 t b b b b;
#X msg 125 78 0;
#X floatatom 313 136 7 0 0 0 - - -;
#X floatatom 313 114 5 0 0 0 - - -;
#X msg 288 79 set \$1;
#X msg 338 79 set \$1;
#X connect 0 0 25 0;
#X connect 4 0 42 0;
#X connect 5 0 21 1;
#X connect 5 0 30 1;
#X connect 6 0 43 0;
#X connect 7 0 13 0;
#X connect 8 0 40 0;
#X connect 9 0 6 0;
#X connect 9 0 0 0;
#X connect 10 0 11 0;
#X connect 11 0 7 0;
#X connect 13 0 12 0;
#X connect 14 0 15 0;
#X connect 15 0 16 0;
#X connect 16 0 13 1;
#X connect 17 0 12 0;
#X connect 18 0 19 0;
#X connect 19 0 17 1;
#X connect 20 0 18 0;
#X connect 21 0 22 0;
#X connect 22 0 12 0;
#X connect 23 0 24 0;
#X connect 24 0 22 1;
#X connect 25 0 20 0;
#X connect 25 1 26 0;
#X connect 25 2 14 0;
#X connect 25 3 34 0;
#X connect 26 0 23 0;
#X connect 27 0 30 0;
#X connect 28 0 21 0;
#X connect 29 0 17 0;
#X connect 30 0 29 0;
#X connect 31 0 12 0;
#X connect 32 0 33 0;
#X connect 33 0 31 1;
#X connect 34 0 32 0;
#X connect 35 0 31 0;
#X connect 36 0 37 0;
#X connect 37 0 35 0;
#X connect 38 0 5 0;
#X connect 39 0 4 0;
#X connect 40 0 41 0;
#X connect 40 1 38 0;
#X connect 40 2 9 0;
#X connect 40 3 39 0;
#X connect 41 0 0 0;
#X connect 42 0 36 0;
#X connect 42 0 45 0;
#X connect 43 0 44 0;
#X connect 43 0 10 0;
#X connect 44 0 6 0;
#X connect 45 0 4 0;
#X coords 0 -1 1 1 240 56 2 120 100;
