#N canvas 771 335 442 345 10;
#X obj 185 34 vradio 15 1 0 9 empty empty empty 0 -8 0 10 -262144 -1
-1 0;
#X text 203 34 off;
#X text 203 64 triange;
#X text 203 49 sine;
#X text 203 93 saw;
#X text 203 108 saw_rev;
#X text 204 123 pulse;
#X text 204 138 noise;
#X text 203 78 square;
#X text 204 153 table;
#X obj 245 126 hsl 32 12 0.1 0.9 0 0 empty empty empty -2 -8 0 10 -262144
-1 -1 0 1;
#X obj 245 141 hsl 32 12 1 10000 1 0 empty empty empty -2 -8 0 10 -262144
-1 -1 0 1;
#X obj 245 156 hsl 32 12 0 1 0 0 empty empty empty -2 -8 0 10 -262144
-1 -1 0 1;
#X obj 32 273 ../patch/audio/oscillator~;
#X obj 185 174 - 1;
#X obj 185 197 route 5 6 7;
#X msg 185 245 5 \$1;
#X msg 221 245 6 \$1;
#X obj 185 222 f 0.5;
#X obj 221 222 f 10000;
#X obj 269 222 f 0.5;
#X msg 269 245 7 wavetable 0.1 \$1;
#X obj 256 37 loadbang;
#X obj 256 58 t b b b b;
#X msg 256 79 0;
#X msg 273 100 0.5;
#X msg 290 79 10000;
#X msg 307 100 0.5;
#X obj 32 226 inlet~ freq;
#X obj 83 249 inlet~ phase;
#X obj 32 296 outlet~;
#X obj 113 226 inlet sync;
#X connect 0 0 14 0;
#X connect 10 0 18 0;
#X connect 11 0 19 0;
#X connect 12 0 20 0;
#X connect 13 0 30 0;
#X connect 14 0 15 0;
#X connect 15 0 18 0;
#X connect 15 1 19 0;
#X connect 15 2 20 0;
#X connect 15 3 13 3;
#X connect 16 0 13 3;
#X connect 17 0 13 3;
#X connect 18 0 16 0;
#X connect 19 0 17 0;
#X connect 20 0 21 0;
#X connect 21 0 13 3;
#X connect 22 0 23 0;
#X connect 23 0 24 0;
#X connect 23 1 25 0;
#X connect 23 2 26 0;
#X connect 23 3 27 0;
#X connect 24 0 0 0;
#X connect 25 0 10 0;
#X connect 26 0 11 0;
#X connect 27 0 12 0;
#X connect 28 0 13 0;
#X connect 29 0 13 1;
#X connect 31 0 13 2;
#X coords 0 -1 1 1 110 144 2 180 30;
