#N canvas -10 22 872 500 10;
#X obj 263 30 inlet shape;
#X obj 29 30 inlet~ freq;
#X obj 105 30 inlet~ phase;
#X obj 32 455 outlet~;
#X obj 29 143 sin~;
#X obj 187 30 inlet phase;
#X obj 65 143 cos~;
#X obj 65 168 outlet~;
#X obj 44 68 sig~ \$1;
#X obj 82 262 == 0;
#X obj 67 331 *~;
#N canvas 387 348 453 344 shape 0;
#X obj 22 15 inlet;
#X obj 61 254 list prepend 0;
#X obj 101 231 list prepend 1;
#X obj 22 306 outlet;
#X obj 142 207 list prepend 2;
#X obj 183 184 list prepend 3;
#X obj 224 161 list prepend 4;
#X obj 265 138 list prepend 5;
#X obj 306 114 list prepend 6;
#X obj 347 91 list prepend 7;
#X obj 22 277 list trim;
#X obj 22 40 route float;
#X obj 61 65 route sine triangle square saw saw2 pulse noise table
off;
#X obj 372 134 list prepend -1;
#X connect 0 0 11 0;
#X connect 1 0 10 0;
#X connect 2 0 10 0;
#X connect 4 0 10 0;
#X connect 5 0 10 0;
#X connect 6 0 10 0;
#X connect 7 0 10 0;
#X connect 8 0 10 0;
#X connect 9 0 10 0;
#X connect 10 0 3 0;
#X connect 11 0 10 0;
#X connect 11 1 12 0;
#X connect 12 0 1 0;
#X connect 12 1 2 0;
#X connect 12 2 4 0;
#X connect 12 3 5 0;
#X connect 12 4 6 0;
#X connect 12 5 7 0;
#X connect 12 6 8 0;
#X connect 12 7 9 0;
#X connect 12 8 13 0;
#X connect 12 9 10 0;
#X connect 13 0 10 0;
#X restore 263 56 pd shape;
#X obj 263 79 t a a a a a a a a;
#X obj 133 286 sig~;
#X obj 118 331 *~;
#X obj 133 262 == 1;
#X obj 184 286 sig~;
#X obj 169 331 *~;
#X obj 184 262 == 2;
#X obj 235 286 sig~;
#X obj 220 331 *~;
#X obj 235 262 == 3;
#X obj 286 286 sig~;
#X obj 271 331 *~;
#X obj 286 262 == 4;
#X obj 338 331 sig~;
#X obj 323 376 *~;
#X obj 338 262 route 5;
#X msg 338 309 1;
#X msg 377 309 0;
#X obj 408 331 sig~;
#X obj 393 376 *~;
#X msg 408 309 1;
#X msg 447 309 0;
#X obj 408 262 route 6;
#X obj 82 286 sig~ 1;
#X obj 118 125 -~ 0.5;
#X obj 118 150 *~ 2;
#X obj 206 151 *~ -2;
#X obj 82 309 lop~ 50;
#X obj 133 309 lop~ 50;
#X obj 184 309 lop~ 50;
#X obj 235 309 lop~ 50;
#X obj 286 309 lop~ 50;
#X obj 338 354 lop~ 50;
#X obj 408 354 lop~ 50;
#N canvas 486 207 101 157 saw-to-tri 0;
#X obj 21 20 inlet~;
#X obj 21 112 outlet~;
#X obj 21 42 abs~;
#X obj 21 65 *~ -2;
#X obj 21 88 +~ 1;
#X connect 0 0 2 0;
#X connect 2 0 3 0;
#X connect 3 0 4 0;
#X connect 4 0 1 0;
#X restore 118 182 pd saw-to-tri;
#N canvas 486 207 101 157 saw2-to-square 0;
#X obj 21 20 inlet~;
#X obj 21 112 outlet~;
#X obj 21 44 *~ 1e+06;
#X obj 21 69 clip~ -1 1;
#X connect 0 0 2 0;
#X connect 2 0 3 0;
#X connect 3 0 1 0;
#X restore 206 182 pd saw2-to-square;
#N canvas 470 364 182 143 phased-phasor 0;
#X obj 19 14 inlet~;
#X obj 71 14 inlet~;
#X obj 19 58 phasor~;
#X obj 19 110 outlet~;
#X obj 19 83 wrap~;
#X obj 119 14 inlet;
#X connect 0 0 2 0;
#X connect 1 0 4 0;
#X connect 2 0 4 0;
#X connect 4 0 3 0;
#X connect 5 0 2 1;
#X restore 29 97 pd phased-phasor;
#N canvas 756 268 155 218 phasor-to-pulse 0;
#X obj 21 20 inlet~;
#X obj 21 176 outlet~;
#X obj 21 131 clip~ -1 1;
#X obj 74 6 inlet;
#X obj 74 58 sig~;
#X obj 74 80 lop~ 20;
#X obj 21 153 *~ -1;
#X obj 74 32 * -1;
#X obj 21 108 *~ 100000;
#X connect 0 0 8 0;
#X connect 2 0 6 0;
#X connect 3 0 7 0;
#X connect 4 0 5 0;
#X connect 5 0 8 0;
#X connect 6 0 1 0;
#X connect 7 0 4 0;
#X connect 8 0 2 0;
#X restore 323 168 pd phasor-to-pulse;
#X obj 463 263 ../control/noiselfo~;
#X obj 338 286 t b a;
#X obj 428 145 f 0.5;
#X obj 428 99 route float;
#X obj 491 121 t b;
#X obj 463 194 route float;
#X obj 526 216 t b;
#X obj 408 286 t b a;
#X obj 526 238 loadbang;
#X obj 463 240 f 10000;
#X obj 596 263 route 7;
#X obj 671 326 symbol;
#X obj 671 300 list split 1;
#X obj 82 237 t f;
#X obj 133 237 t f;
#X obj 184 237 t f;
#X obj 235 237 t f;
#X obj 286 237 t f;
#X obj 596 332 sig~;
#X obj 581 377 *~;
#X msg 596 310 1;
#X msg 635 310 0;
#X obj 596 355 lop~ 50;
#X obj 596 287 t b a;
#N canvas 0 22 450 300 (subpatch) 0;
#X array \$0-dummy 1 float 3;
#A 0 0;
#X coords 0 1 1 -1 200 140 1;
#X restore 579 24 graph;
#X obj 581 189 ../patch/audio/wavetable~ \$0-dummy 0.1 1;
#X obj 721 326 unpack 0.1 1;
#X obj 164 91 phasor~;
#X obj 529 151 *~ 1;
#X obj 791 354 t f f;
#X connect 0 0 11 0;
#X connect 1 0 48 0;
#X connect 1 0 77 0;
#X connect 2 0 48 1;
#X connect 2 0 78 0;
#X connect 4 0 10 0;
#X connect 5 0 48 2;
#X connect 5 0 77 1;
#X connect 6 0 7 0;
#X connect 8 0 48 0;
#X connect 9 0 35 0;
#X connect 10 0 3 0;
#X connect 11 0 12 0;
#X connect 12 0 63 0;
#X connect 12 1 64 0;
#X connect 12 2 65 0;
#X connect 12 3 66 0;
#X connect 12 4 67 0;
#X connect 12 5 27 0;
#X connect 12 6 34 0;
#X connect 12 7 60 0;
#X connect 13 0 40 0;
#X connect 14 0 3 0;
#X connect 15 0 13 0;
#X connect 16 0 41 0;
#X connect 17 0 3 0;
#X connect 18 0 16 0;
#X connect 19 0 42 0;
#X connect 20 0 3 0;
#X connect 21 0 19 0;
#X connect 22 0 43 0;
#X connect 23 0 3 0;
#X connect 24 0 22 0;
#X connect 25 0 44 0;
#X connect 26 0 3 0;
#X connect 27 0 51 0;
#X connect 27 1 29 0;
#X connect 28 0 25 0;
#X connect 29 0 25 0;
#X connect 30 0 45 0;
#X connect 31 0 3 0;
#X connect 32 0 30 0;
#X connect 33 0 30 0;
#X connect 34 0 57 0;
#X connect 34 1 33 0;
#X connect 35 0 39 0;
#X connect 36 0 37 0;
#X connect 36 0 38 0;
#X connect 37 0 20 0;
#X connect 37 0 46 0;
#X connect 38 0 23 0;
#X connect 38 0 47 0;
#X connect 39 0 10 1;
#X connect 40 0 14 1;
#X connect 41 0 17 1;
#X connect 42 0 20 1;
#X connect 43 0 23 1;
#X connect 44 0 26 1;
#X connect 45 0 31 1;
#X connect 46 0 14 0;
#X connect 47 0 17 0;
#X connect 48 0 36 0;
#X connect 48 0 6 0;
#X connect 48 0 4 0;
#X connect 48 0 49 0;
#X connect 49 0 26 0;
#X connect 50 0 31 0;
#X connect 51 0 28 0;
#X connect 51 1 53 0;
#X connect 52 0 49 1;
#X connect 53 0 52 0;
#X connect 53 1 54 0;
#X connect 54 0 52 0;
#X connect 55 0 59 0;
#X connect 55 1 56 0;
#X connect 56 0 59 0;
#X connect 57 0 32 0;
#X connect 57 1 55 0;
#X connect 58 0 59 0;
#X connect 59 0 50 0;
#X connect 60 0 73 0;
#X connect 60 1 71 0;
#X connect 61 0 75 2;
#X connect 62 0 61 0;
#X connect 62 1 76 0;
#X connect 63 0 9 0;
#X connect 64 0 15 0;
#X connect 65 0 18 0;
#X connect 66 0 21 0;
#X connect 67 0 24 0;
#X connect 68 0 72 0;
#X connect 69 0 3 0;
#X connect 70 0 68 0;
#X connect 71 0 68 0;
#X connect 72 0 69 1;
#X connect 73 0 70 0;
#X connect 73 1 62 0;
#X connect 75 0 69 0;
#X connect 76 0 75 3;
#X connect 76 1 79 0;
#X connect 77 0 75 0;
#X connect 78 0 75 1;
#X connect 79 0 78 1;
#X connect 79 1 75 4;
