#N canvas 686 292 259 163 10;
#X obj 81 111 outlet~;
#X obj 81 -3 inlet~;
#X obj 126 -3 inlet;
#X obj 139 111 outlet~;
#X obj 117 84 sin~;
#X obj 81 84 cos~;
#X obj 21 -3 loadbang;
#X obj 21 22 f \$1;
#X obj 81 54 phasor~;
#X obj 21 47 sig~;
#X connect 1 0 8 0;
#X connect 2 0 8 1;
#X connect 4 0 3 0;
#X connect 5 0 0 0;
#X connect 6 0 7 0;
#X connect 7 0 9 0;
#X connect 8 0 5 0;
#X connect 8 0 4 0;
#X connect 9 0 8 0;
