#N canvas 600 203 146 263 10;
#X obj 26 15 inlet;
#X obj 26 202 *~;
#X obj 26 66 random \$2;
#X obj 26 174 readsf~;
#X obj 26 41 t b f;
#X obj 26 92 + 1;
#X obj 26 227 outlet~;
#X msg 26 148 open \$1 \, 1;
#X obj 81 227 outlet;
#X obj 26 120 makefilename \$1;
#X connect 0 0 4 0;
#X connect 1 0 6 0;
#X connect 2 0 5 0;
#X connect 3 0 1 0;
#X connect 3 1 8 0;
#X connect 4 0 2 0;
#X connect 4 1 1 1;
#X connect 5 0 9 0;
#X connect 7 0 3 0;
#X connect 9 0 7 0;
