#N canvas 765 383 214 264 10;
#X obj 26 14 inlet;
#X obj 26 228 outlet~;
#X obj 26 65 spigot 0;
#X obj 71 40 == 0;
#X obj 61 86 spigot 0;
#X obj 93 108 spigot 0;
#X obj 106 61 == 1;
#X obj 138 83 == 2;
#X obj 71 14 inlet;
#X obj 26 133 randtab~ \$1 \$2;
#X obj 61 154 randtab~ \$3 \$4;
#X obj 93 176 randtab~ \$5 \$6;
#X connect 0 0 2 0;
#X connect 0 0 4 0;
#X connect 0 0 5 0;
#X connect 2 0 9 0;
#X connect 3 0 2 1;
#X connect 4 0 10 0;
#X connect 5 0 11 0;
#X connect 6 0 4 1;
#X connect 7 0 5 1;
#X connect 8 0 3 0;
#X connect 8 0 6 0;
#X connect 8 0 7 0;
#X connect 9 0 1 0;
#X connect 10 0 1 0;
#X connect 11 0 1 0;
