#N canvas 765 383 152 269 10;
#X obj 26 175 tabplay~;
#X obj 26 18 inlet;
#X obj 26 44 t b f;
#X obj 26 95 + 1;
#X msg 26 149 set \$1 \, bang;
#X obj 26 201 *~;
#X obj 26 228 outlet~;
#X obj 78 228 outlet;
#X obj 26 69 random \$2;
#X obj 26 123 makefilename \$1;
#X connect 0 0 5 0;
#X connect 0 1 7 0;
#X connect 1 0 2 0;
#X connect 2 0 8 0;
#X connect 2 1 5 1;
#X connect 3 0 9 0;
#X connect 4 0 0 0;
#X connect 5 0 6 0;
#X connect 8 0 3 0;
#X connect 9 0 4 0;
