#N canvas 325 279 148 192 10;
#X obj 24 29 inlet~;
#X obj 83 29 inlet;
#X obj 24 85 -~ 0.5;
#X obj 24 112 *~ 2;
#X obj 24 137 outlet~;
#X obj 24 59 phasor~ \$1;
#X connect 0 0 5 0;
#X connect 1 0 5 1;
#X connect 2 0 3 0;
#X connect 3 0 4 0;
#X connect 5 0 2 0;
