#N canvas 806 35 322 529 10;
#X obj 78 434 outlet;
#X obj 32 28 inlet~;
#X obj 93 27 table \$0-block 64;
#X obj 32 58 tabsend~ \$0-block;
#X obj 32 86 bang~;
#X obj 32 134 f 64;
#X obj 32 157 until;
#X obj 32 111 t b b;
#X obj 63 183 + 1;
#X obj 32 236 tabread \$0-block;
#X obj 32 183 f 0;
#X msg 70 157 0;
#X obj 212 27 block~ 64;
#X obj 32 434 outlet;
#X obj 32 403 f;
#X obj 78 403 f;
#X obj 32 209 t f f f;
#X obj 32 351 change 0;
#X obj 32 328 > \$1;
#X obj 146 236 inlet;
#X obj 146 313 spigot;
#X obj 193 313 spigot;
#X obj 179 289 == 0;
#X obj 146 289 f \$1;
#X obj 193 336 * -1;
#X obj 179 264 t b f f;
#X obj 32 374 sel 0 1;
#X connect 1 0 3 0;
#X connect 4 0 7 0;
#X connect 5 0 6 0;
#X connect 6 0 10 0;
#X connect 7 0 5 0;
#X connect 7 1 11 0;
#X connect 8 0 10 1;
#X connect 9 0 18 0;
#X connect 10 0 8 0;
#X connect 10 0 16 0;
#X connect 11 0 10 1;
#X connect 14 0 13 0;
#X connect 15 0 0 0;
#X connect 16 0 9 0;
#X connect 16 1 14 1;
#X connect 16 2 15 1;
#X connect 17 0 25 0;
#X connect 17 0 26 0;
#X connect 18 0 17 0;
#X connect 19 0 23 0;
#X connect 20 0 18 1;
#X connect 21 0 24 0;
#X connect 22 0 20 1;
#X connect 23 0 20 0;
#X connect 23 0 21 0;
#X connect 24 0 18 1;
#X connect 25 0 23 0;
#X connect 25 1 22 0;
#X connect 25 2 21 1;
#X connect 26 0 14 0;
#X connect 26 1 15 0;
