#N canvas 381 22 576 829 10;
#N canvas 0 22 450 300 (subpatch) 0;
#X array \$0-scope 8820 float 0;
#X coords 0 1 8819 -1 300 120 1;
#X restore 22 22 graph;
#X obj 18 318 inlet~;
#X obj 327 -49 loadbang;
#X msg 327 -3 4;
#X msg 361 -3 4;
#X obj 135 344 == 0;
#X obj 332 378 s \$0-scope;
#X msg 332 355 resize \$1;
#X obj 125 524 == 0;
#X msg 467 -5 0;
#X obj 327 -27 t b b b b b;
#X obj 136 573 spigot;
#X obj 98 269 sel 0;
#X obj 98 246 t f f;
#X obj 38 176 ../patch/utility/map 0.01 0.1 0.2 0.5 1 2 5 10;
#X obj 244 266 ../patch/utility/map 10 20 50 100 200 500 1000 2000
;
#X obj 332 332 ../patch/utility/ms2samples;
#N canvas 1088 569 188 188 timer 0;
#X obj 24 13 inlet on;
#X obj 82 13 inlet duration;
#X obj 109 95 max 100;
#X obj 24 151 outlet;
#X obj 24 128 metro;
#X obj 32 96 spigot;
#X obj 24 41 t f f;
#X msg 32 72 bang;
#X obj 82 40 t b f;
#X obj 109 68 + 10;
#X connect 0 0 6 0;
#X connect 1 0 8 0;
#X connect 2 0 4 1;
#X connect 4 0 3 0;
#X connect 5 0 4 0;
#X connect 6 0 4 0;
#X connect 6 1 5 1;
#X connect 7 0 5 0;
#X connect 8 0 7 0;
#X connect 8 1 9 0;
#X connect 9 0 2 0;
#X restore 135 368 pd timer;
#N canvas 997 339 422 357 scale 0;
#X obj 19 23 inlet~;
#X obj 19 124 *~ 1;
#X obj 19 48 /~ 1;
#X obj 19 287 clip~ -1 1;
#X obj 19 312 outlet~;
#X obj 65 23 inlet scale;
#X obj 236 23 inlet offset;
#X obj 66 242 hip~ 0.5;
#X obj 66 266 *~ 0;
#X obj 19 265 *~ 1;
#X obj 52 218 != 0;
#X obj 87 218 == 0;
#X obj 52 196 t f f;
#X obj 40 149 sel 2;
#X msg 40 173 -1;
#X msg 67 173 0;
#X obj 19 211 +~ 0;
#X obj 236 48 t f f f;
#X obj 40 75 sel 2;
#X msg 40 99 2;
#X msg 67 99 1;
#X obj 141 23 inlet duration;
#X obj 141 50 swap 1000;
#X obj 141 78 /;
#X obj 141 180 t b f;
#X msg 124 204 clear;
#X obj 168 204 * 0.1;
#X obj -87 23 inlet~;
#X obj -87 124 *~ 1;
#X obj -87 48 /~ 1;
#X obj -87 287 clip~ -1 1;
#X obj -40 242 hip~ 0.5;
#X obj -40 266 *~ 0;
#X obj -87 265 *~ 1;
#X obj -87 211 +~ 0;
#X obj -87 312 outlet~;
#X connect 0 0 2 0;
#X connect 1 0 16 0;
#X connect 2 0 1 0;
#X connect 3 0 4 0;
#X connect 5 0 2 1;
#X connect 5 0 29 1;
#X connect 6 0 17 0;
#X connect 7 0 8 0;
#X connect 8 0 3 0;
#X connect 9 0 3 0;
#X connect 10 0 9 1;
#X connect 10 0 33 1;
#X connect 11 0 8 1;
#X connect 11 0 32 1;
#X connect 12 0 10 0;
#X connect 12 1 11 0;
#X connect 13 0 14 0;
#X connect 13 1 15 0;
#X connect 14 0 16 1;
#X connect 14 0 34 1;
#X connect 15 0 16 1;
#X connect 15 0 34 1;
#X connect 16 0 7 0;
#X connect 16 0 9 0;
#X connect 17 0 18 0;
#X connect 17 1 13 0;
#X connect 17 2 12 0;
#X connect 18 0 19 0;
#X connect 18 1 20 0;
#X connect 19 0 1 1;
#X connect 19 0 28 1;
#X connect 20 0 1 1;
#X connect 20 0 28 1;
#X connect 21 0 22 0;
#X connect 22 0 23 0;
#X connect 22 1 23 1;
#X connect 23 0 24 0;
#X connect 24 0 25 0;
#X connect 24 1 26 0;
#X connect 25 0 7 0;
#X connect 25 0 31 0;
#X connect 26 0 7 1;
#X connect 26 0 31 1;
#X connect 27 0 29 0;
#X connect 28 0 34 0;
#X connect 29 0 28 0;
#X connect 30 0 35 0;
#X connect 31 0 32 0;
#X connect 32 0 30 0;
#X connect 33 0 30 0;
#X connect 34 0 31 0;
#X connect 34 0 33 0;
#X restore 16 528 pd scale;
#X obj 88 293 f;
#X obj 38 152 r \$0-scale-sel;
#X obj 244 243 r \$0-duration-sel;
#X obj 88 199 r \$0-sync-sel;
#X obj 98 223 r \$0-freeze-sel;
#X msg 436 -4 0;
#X obj 439 76 vradio 15 1 0 3 \$0-sync-sel empty empty 0 -8 0 10 -262144
-1 -1 1;
#X obj 488 105 bng 15 50 50 0 \$0-sync-out \$0-sync empty 17 7 0 10
-262144 -1 -1;
#X obj 327 22 vradio 15 1 0 8 \$0-scale-sel empty empty 0 -8 0 10 -262144
-1 -1 2;
#X text 349 21 0.01;
#X text 349 36 0.1;
#X text 349 51 0.2;
#X text 349 66 0.5;
#X text 349 81 1;
#X text 349 96 2;
#X text 349 111 5;
#X text 343 126 10;
#X obj 382 22 vradio 15 1 0 8 \$0-duration-sel empty empty 0 -8 0 10
-262144 -1 -1 4;
#X text 404 21 10ms;
#X text 404 36 20ms;
#X text 404 51 50ms;
#X text 398 66 100ms;
#X text 398 81 200ms;
#X text 398 96 500ms;
#X text 410 111 1s;
#X text 410 126 2s;
#X obj 439 22 vradio 15 1 0 3 \$0-offset-sel empty empty 0 -8 0 10
-262144 -1 -1 1;
#X text 456 51 Unipolar;
#X text 456 36 Bipolar;
#X obj 439 127 tgl 15 0 \$0-freeze-sel empty empty 17 7 0 10 -262144
-1 -1 0 1;
#X text 456 126 Freeze;
#X obj 88 343 == 1;
#X obj 393 600 outlet;
#X obj 345 176 s \$0-sync-in;
#X obj 345 155 inlet;
#N canvas 1188 68 215 235 autosync 0;
#X obj 53 92 inlet on;
#X obj 101 17 inlet duration;
#X obj 20 201 outlet;
#X obj 20 17 inlet~;
#N canvas 1176 297 246 341 detectcycle 0;
#X obj 24 17 inlet~;
#X obj 24 314 outlet;
#X obj 57 43 swap 1000;
#X obj 57 71 /;
#X obj 24 292 zerocrossing~;
#X obj 73 17 inlet duration;
#X obj 117 292 throw~ \$0-syncwave;
#X obj 24 198 lop~;
#X obj 24 220 lop~;
#X obj 24 242 lop~;
#X obj 24 264 lop~;
#X msg 37 124 clear;
#X obj 57 98 t b f f;
#X obj 24 151 hip~;
#X obj 96 150 * 0.2;
#X obj 24 174 hip~;
#X obj 114 124 * 4;
#X connect 0 0 13 0;
#X connect 2 0 3 0;
#X connect 2 1 3 1;
#X connect 3 0 12 0;
#X connect 4 0 1 0;
#X connect 5 0 2 0;
#X connect 7 0 8 0;
#X connect 8 0 9 0;
#X connect 9 0 10 0;
#X connect 10 0 6 0;
#X connect 10 0 4 0;
#X connect 11 0 7 0;
#X connect 11 0 8 0;
#X connect 11 0 9 0;
#X connect 11 0 10 0;
#X connect 11 0 13 0;
#X connect 11 0 15 0;
#X connect 12 0 11 0;
#X connect 12 1 16 0;
#X connect 12 2 14 0;
#X connect 13 0 15 0;
#X connect 14 0 7 1;
#X connect 14 0 8 1;
#X connect 14 0 9 1;
#X connect 14 0 10 1;
#X connect 15 0 7 0;
#X connect 16 0 13 1;
#X connect 16 0 15 1;
#X restore 20 69 pd detectcycle;
#X obj 20 139 spigot;
#N canvas 1128 343 264 150 waitforwrite 0;
#X obj 17 110 outlet;
#X obj 87 13 inlet duration;
#X obj 17 13 inlet sync;
#X obj 180 13 inlet reset;
#X obj 158 64 max 100;
#X obj 17 87 ../patch/utility/cooloff;
#X obj 87 37 t f b;
#X connect 1 0 6 0;
#X connect 2 0 5 0;
#X connect 3 0 5 1;
#X connect 4 0 5 2;
#X connect 5 0 0 0;
#X connect 6 0 4 0;
#X connect 6 1 5 1;
#X restore 20 171 pd waitforwrite;
#X obj 53 115 t f b;
#X obj 101 43 t f f;
#X connect 0 0 7 0;
#X connect 1 0 8 0;
#X connect 3 0 4 0;
#X connect 4 0 5 0;
#X connect 5 0 6 0;
#X connect 6 0 2 0;
#X connect 7 0 5 1;
#X connect 7 1 6 2;
#X connect 8 0 4 1;
#X connect 8 1 6 1;
#X restore 57 368 pd autosync;
#N canvas 715 251 182 121 extsync 0;
#X obj 23 18 inlet on;
#X obj 23 83 outlet;
#X obj 23 56 spigot;
#X obj 81 18 inlet ext;
#X connect 0 0 2 1;
#X connect 2 0 1 0;
#X connect 3 0 2 0;
#X restore 191 368 pd extsync;
#X obj 248 342 r \$0-sync-in;
#X obj 191 343 == 2;
#N canvas 855 506 264 150 waitforwrite 0;
#X obj 17 110 outlet;
#X obj 87 13 inlet duration;
#X obj 87 37 t b f;
#X obj 17 13 inlet sync;
#X obj 180 13 inlet reset;
#X obj 158 63 max 100;
#X obj 17 87 ../patch/utility/cooloff;
#X connect 1 0 2 0;
#X connect 2 0 6 1;
#X connect 2 1 5 0;
#X connect 3 0 6 0;
#X connect 4 0 6 1;
#X connect 5 0 6 2;
#X connect 6 0 0 0;
#X restore 136 596 pd waitforwrite;
#X obj 88 318 t f f f b;
#X text 456 75 No Sync;
#X text 456 90 Auto;
#X text 456 105 Ext.;
#X text 456 21 No DC;
#X msg 398 -3 1;
#X obj 61 498 r \$0-offset-sel;
#X obj 136 549 r \$0-sync-out;
#X obj 393 506 r \$0-sync-out;
#X obj 135 462 s \$0-sync;
#X obj 239 476 catch~ \$0-syncwave;
#X obj 239 556 outlet~ sync;
#X obj 244 292 t f f f f f;
#X obj 239 503 *~ 1;
#X obj 93 644 f;
#X obj 93 692 -;
#X obj 93 668 swap 63;
#N canvas 62 58 133 154 delayblock 0;
#X obj 29 54 delay 1;
#X obj 29 30 inlet;
#X obj 29 77 outlet;
#X connect 0 0 2 0;
#X connect 1 0 0 0;
#X restore 163 703 pd delayblock;
#X obj 60 712 delay~;
#X obj 136 618 t b b;
#X obj 393 574 f;
#X obj 162 440 s \$0-sync-offset;
#X obj 408 546 r \$0-sync-offset;
#X obj 124 644 r \$0-sync-offset;
#X msg 135 392 0;
#X obj 135 416 t b f;
#X obj 225 674 block~ 64;
#N canvas 0 22 450 300 (subpatch) 0;
#X array \$0-scope2 8820 float 0;
#X coords 0 1 8819 -1 300 120 1;
#X restore 22 22 graph;
#X obj 28 438 inlet~;
#X obj 16 618 tabwrite~ \$0-scope;
#X obj 16 592 delay~;
#X obj 60 738 tabwrite~ \$0-scope2;
#X obj 402 378 s \$0-scope2;
#X connect 1 0 54 0;
#X connect 1 0 18 0;
#X connect 2 0 10 0;
#X connect 3 0 27 0;
#X connect 4 0 36 0;
#X connect 5 0 17 0;
#X connect 7 0 6 0;
#X connect 7 0 91 0;
#X connect 8 0 11 1;
#X connect 9 0 48 0;
#X connect 10 0 3 0;
#X connect 10 1 4 0;
#X connect 10 2 64 0;
#X connect 10 3 24 0;
#X connect 10 4 9 0;
#X connect 11 0 58 0;
#X connect 12 0 19 0;
#X connect 13 0 12 0;
#X connect 13 1 8 0;
#X connect 14 0 18 2;
#X connect 15 0 71 0;
#X connect 16 0 7 0;
#X connect 17 0 83 0;
#X connect 18 0 89 0;
#X connect 18 1 77 0;
#X connect 19 0 59 0;
#X connect 20 0 14 0;
#X connect 21 0 15 0;
#X connect 22 0 19 0;
#X connect 23 0 13 0;
#X connect 24 0 25 0;
#X connect 50 0 54 1;
#X connect 53 0 52 0;
#X connect 54 0 84 0;
#X connect 55 0 84 0;
#X connect 56 0 55 1;
#X connect 57 0 55 0;
#X connect 58 0 78 0;
#X connect 59 0 50 0;
#X connect 59 1 5 0;
#X connect 59 2 57 0;
#X connect 59 3 58 2;
#X connect 64 0 45 0;
#X connect 65 0 18 4;
#X connect 66 0 11 0;
#X connect 67 0 79 0;
#X connect 69 0 72 0;
#X connect 71 0 54 2;
#X connect 71 1 17 1;
#X connect 71 2 58 1;
#X connect 71 3 16 0;
#X connect 71 4 18 3;
#X connect 72 0 70 0;
#X connect 73 0 75 0;
#X connect 74 0 77 1;
#X connect 74 0 89 1;
#X connect 75 0 74 0;
#X connect 75 1 74 1;
#X connect 76 0 90 0;
#X connect 76 0 88 0;
#X connect 77 0 90 0;
#X connect 78 0 73 0;
#X connect 78 1 76 0;
#X connect 79 0 51 0;
#X connect 81 0 79 1;
#X connect 82 0 73 1;
#X connect 83 0 84 0;
#X connect 84 0 68 0;
#X connect 84 1 80 0;
#X connect 87 0 18 1;
#X connect 89 0 88 0;
#X coords 0 -1 1 1 488 124 2 20 20;
