#N canvas 291 285 225 140 10;
#X obj 25 21 inlet~;
#X obj 82 21 inlet;
#X obj 25 73 expr~ if($v1 < 0.5 \, 1 \, -1);
#X obj 25 99 outlet~;
#X obj 25 48 phasor~ \$1;
#X connect 0 0 4 0;
#X connect 1 0 4 1;
#X connect 2 0 3 0;
#X connect 4 0 2 0;
