#N canvas 374 33 209 202 10;
#X obj 83 127 *~;
#X obj 83 161 outlet~;
#X obj 83 99 tabread4~ \$1;
#X obj 20 44 route table;
#X msg 20 70 set \$1;
#X obj 20 18 inlet;
#N canvas 450 330 308 307 grain-signals 0;
#X obj 193 92 adsr~ \$2 \$3 \$4 \$5;
#X obj 193 116 outlet~;
#X obj 107 117 sel 0;
#X obj 107 59 t f f;
#X obj 150 59 t l l;
#X obj 150 92 unpack;
#X obj 134 208 sig~;
#X msg 166 209 clear;
#X obj 134 186 t f b;
#X obj 134 230 rpole~ 1;
#X obj 22 14 inlet;
#X obj 134 277 outlet~;
#X obj 134 139 bang;
#X obj 134 253 +~ 0;
#X obj 134 163 f 1;
#X obj 22 36 route offset pitch float list;
#X connect 0 0 1 0;
#X connect 2 1 12 0;
#X connect 3 0 2 0;
#X connect 3 1 0 0;
#X connect 4 0 5 0;
#X connect 4 1 0 0;
#X connect 5 0 2 0;
#X connect 6 0 9 0;
#X connect 7 0 9 0;
#X connect 8 0 6 0;
#X connect 8 1 7 0;
#X connect 9 0 13 0;
#X connect 10 0 15 0;
#X connect 12 0 14 0;
#X connect 13 0 11 0;
#X connect 14 0 8 0;
#X connect 15 0 13 1;
#X connect 15 1 14 1;
#X connect 15 2 3 0;
#X connect 15 3 4 0;
#X connect 15 4 0 0;
#X restore 83 70 pd grain-signals;
#X connect 0 0 1 0;
#X connect 2 0 0 0;
#X connect 3 0 4 0;
#X connect 3 1 6 0;
#X connect 4 0 2 0;
#X connect 5 0 3 0;
#X connect 6 0 2 0;
#X connect 6 1 0 1;
