#N canvas 149 65 235 303 10;
#X obj 46 32 inlet;
#X obj 46 85 sig~ \$1;
#X obj 110 34 noise~;
#X obj 110 58 lop~ 2;
#X obj 110 106 *~ \$1;
#X obj 46 57 t f f;
#X obj 110 83 *~ 4;
#X obj 46 164 rzero~ 1;
#X obj 46 139 phasor~;
#X obj 46 252 outlet~;
#X obj 170 34 inlet;
#X obj 46 190 bp~ \$2 50;
#X obj 46 222 *~;
#X obj 118 190 +~ 1;
#X obj 118 166 *~ 3;
#X connect 0 0 5 0;
#X connect 1 0 8 0;
#X connect 2 0 3 0;
#X connect 3 0 6 0;
#X connect 4 0 8 0;
#X connect 5 0 1 0;
#X connect 5 1 4 1;
#X connect 6 0 4 0;
#X connect 6 0 14 0;
#X connect 7 0 11 0;
#X connect 8 0 7 0;
#X connect 10 0 11 1;
#X connect 11 0 12 0;
#X connect 12 0 9 0;
#X connect 13 0 12 1;
#X connect 14 0 13 0;
