#N canvas 92 95 235 307 10;
#X obj 31 30 noise~;
#X obj 78 30 inlet;
#X obj 50 85 sig~ \$1;
#X obj 31 145 vcf~ \$2;
#X obj 31 219 *~;
#X obj 103 181 lop~ 5;
#X obj 103 132 /;
#X obj 103 85 sqrt;
#X obj 103 108 swap 120;
#X obj 70 220 *~;
#X obj 70 249 outlet~;
#X obj 31 273 outlet~;
#X obj 103 157 sig~ 53.67;
#X obj 122 30 inlet;
#X obj 78 55 t f f;
#X obj 50 109 lop~ 20;
#X obj 168 90 pow 0.2;
#X obj 122 55 t f f;
#X obj 31 170 *~ 1;
#X obj 70 170 *~ 1;
#X obj 168 113 t f f;
#X connect 0 0 3 0;
#X connect 1 0 14 0;
#X connect 2 0 15 0;
#X connect 3 0 18 0;
#X connect 3 1 19 0;
#X connect 4 0 11 0;
#X connect 5 0 9 1;
#X connect 5 0 4 1;
#X connect 6 0 12 0;
#X connect 7 0 8 0;
#X connect 8 0 6 0;
#X connect 8 1 6 1;
#X connect 9 0 10 0;
#X connect 12 0 5 0;
#X connect 13 0 17 0;
#X connect 14 0 2 0;
#X connect 14 1 7 0;
#X connect 15 0 3 1;
#X connect 16 0 20 0;
#X connect 17 0 3 2;
#X connect 17 1 16 0;
#X connect 18 0 4 0;
#X connect 19 0 9 0;
#X connect 20 0 18 1;
#X connect 20 1 19 1;
