#N canvas 498 85 236 477 10;
#X obj 17 297 tabplay~;
#X obj 17 -84 inlet;
#X obj 17 221 + 1;
#X msg 17 271 set \$1 \, bang;
#X obj 17 323 *~;
#X obj 17 350 outlet~;
#X obj 17 245 makefilename \$1;
#X obj 117 297 tabplay~;
#X msg 117 271 set \$1 \, bang;
#X obj 117 323 *~;
#X obj 117 245 makefilename \$1;
#X obj 17 82 int;
#X obj 32 -10 f \$2;
#X obj 32 -32 loadbang;
#X obj 32 12 - 1;
#X obj 71 198 swap 1;
#X obj 71 220 -;
#X obj 71 176 t f f;
#X obj 71 153 -;
#X obj 17 34 *;
#X obj 17 -62 clip 0 1;
#X obj 17 58 t f f;
#X obj 17 106 t f f;
#X obj 71 131 swap;
#X obj 117 221 + 2;
#X obj 17 175 t f f;
#X connect 0 0 4 0;
#X connect 1 0 20 0;
#X connect 2 0 6 0;
#X connect 3 0 0 0;
#X connect 4 0 5 0;
#X connect 6 0 3 0;
#X connect 7 0 9 0;
#X connect 8 0 7 0;
#X connect 9 0 5 0;
#X connect 10 0 8 0;
#X connect 11 0 22 0;
#X connect 12 0 14 0;
#X connect 13 0 12 0;
#X connect 14 0 19 1;
#X connect 15 0 16 0;
#X connect 15 1 16 1;
#X connect 16 0 4 1;
#X connect 17 0 15 0;
#X connect 17 1 9 1;
#X connect 18 0 17 0;
#X connect 19 0 21 0;
#X connect 20 0 19 0;
#X connect 21 0 11 0;
#X connect 21 1 23 1;
#X connect 22 0 25 0;
#X connect 22 1 23 0;
#X connect 23 0 18 0;
#X connect 23 1 18 1;
#X connect 24 0 10 0;
#X connect 25 0 2 0;
#X connect 25 1 24 0;
