#N canvas 1082 158 247 242 10;
#X obj 26 33 inlet~;
#X obj 77 33 inlet;
#X obj 77 135 line~;
#X obj 128 122 dbtorms;
#X msg 77 111 \$1 50;
#X obj 26 168 *~;
#X obj 77 55 moses -80;
#X msg 77 83 0;
#X obj 26 195 outlet~;
#X obj 173 29 loadbang;
#X obj 173 54 f \$1;
#X obj 128 86 + 100;
#X connect 0 0 5 0;
#X connect 1 0 6 0;
#X connect 2 0 5 1;
#X connect 3 0 4 0;
#X connect 4 0 2 0;
#X connect 5 0 8 0;
#X connect 6 0 7 0;
#X connect 6 1 11 0;
#X connect 7 0 4 0;
#X connect 9 0 10 0;
#X connect 10 0 3 0;
#X connect 11 0 3 0;
