#N canvas 29 26 392 479 10;
#X obj 30 20 inlet~;
#X obj 105 448 outlet~;
#X obj 258 192 expr size("$s1");
#X obj 258 169 symbol \$1;
#X obj 231 117 loadbang;
#X obj 148 207 f \$2;
#X obj 261 20 inlet;
#X obj 86 20 inlet~;
#X obj 31 405 *~;
#X obj 172 401 *~;
#N canvas 581 308 199 356 crossfade 0;
#X obj 62 59 swap 1;
#X obj 62 105 /;
#X obj 77 83 max 0.0001;
#X obj 41 154 min~ 1;
#X obj 41 129 *~ 1;
#X obj 42 198 cos~;
#X obj 41 176 *~ 0.5;
#X obj 90 232 *~ 0.5;
#X obj 90 259 +~ 0.5;
#X obj 42 258 +~ 0.5;
#X obj 42 231 *~ -0.5;
#X obj 28 27 inlet~;
#X obj 33 295 outlet~;
#X obj 90 296 outlet~;
#X obj 88 34 inlet;
#X connect 0 0 1 0;
#X connect 0 1 2 0;
#X connect 1 0 4 1;
#X connect 2 0 1 1;
#X connect 3 0 6 0;
#X connect 4 0 3 0;
#X connect 5 0 7 0;
#X connect 5 0 10 0;
#X connect 6 0 5 0;
#X connect 7 0 8 0;
#X connect 8 0 13 0;
#X connect 9 0 12 0;
#X connect 10 0 9 0;
#X connect 11 0 4 0;
#X connect 14 0 0 0;
#X restore 79 281 pd crossfade;
#X obj 31 322 wrap~;
#X obj 31 349 *~ 1;
#X obj 172 322 wrap~;
#X obj 172 349 *~ 1;
#X obj 172 273 +~ 1;
#X obj 172 373 tabread4~ \$1;
#X obj 135 20 inlet;
#X obj 258 215 t f f;
#X obj 261 45 t f f;
#X obj 231 141 t b b;
#X obj 31 374 tabread4~ \$1;
#X obj 196 20 inlet;
#X obj 31 297 *~ \$3;
#X obj 172 297 *~ \$3;
#X msg 142 113 set \$1;
#X obj 135 45 t s s;
#X connect 0 0 10 0;
#X connect 0 0 15 0;
#X connect 0 0 23 0;
#X connect 2 0 18 0;
#X connect 3 0 2 0;
#X connect 4 0 20 0;
#X connect 5 0 10 1;
#X connect 6 0 19 0;
#X connect 7 0 11 0;
#X connect 7 0 13 0;
#X connect 8 0 1 0;
#X connect 9 0 1 0;
#X connect 10 0 8 1;
#X connect 10 1 9 1;
#X connect 11 0 12 0;
#X connect 12 0 21 0;
#X connect 13 0 14 0;
#X connect 14 0 16 0;
#X connect 15 0 24 0;
#X connect 16 0 9 0;
#X connect 17 0 26 0;
#X connect 18 0 12 1;
#X connect 18 1 14 1;
#X connect 19 0 23 1;
#X connect 19 1 24 1;
#X connect 20 0 5 0;
#X connect 20 1 3 0;
#X connect 21 0 8 0;
#X connect 22 0 5 0;
#X connect 23 0 11 0;
#X connect 24 0 13 0;
#X connect 25 0 21 0;
#X connect 25 0 16 0;
#X connect 26 0 25 0;
#X connect 26 1 3 0;
