#N canvas 1128 38 259 561 10;
#X obj 68 509 outlet;
#X obj 22 18 inlet~;
#X obj 83 17 table \$0-block 64;
#X obj 22 48 tabsend~ \$0-block;
#X obj 22 76 bang~;
#X obj 22 124 f 64;
#X obj 22 147 until;
#X obj 22 101 t b b;
#X obj 53 173 + 1;
#X obj 22 226 tabread \$0-block;
#X obj 22 173 f 0;
#X msg 60 147 0;
#X obj 55 302 f;
#X obj 22 250 change;
#X obj 55 327 *;
#X obj 55 351 <= 0;
#X obj 123 104 block~ 64;
#X obj 22 425 > 0;
#X obj 22 377 spigot;
#X obj 22 276 t f f b f;
#X obj 22 451 sel 1;
#X obj 22 401 t f f;
#X obj 68 451 sel 1;
#X obj 68 425 < 0;
#X obj 22 509 outlet;
#X obj 22 478 f;
#X obj 68 478 f;
#X obj 22 199 t f f f;
#X connect 1 0 3 0;
#X connect 4 0 7 0;
#X connect 5 0 6 0;
#X connect 6 0 10 0;
#X connect 7 0 5 0;
#X connect 7 1 11 0;
#X connect 8 0 10 1;
#X connect 9 0 13 0;
#X connect 10 0 8 0;
#X connect 10 0 27 0;
#X connect 11 0 10 1;
#X connect 12 0 14 0;
#X connect 13 0 19 0;
#X connect 14 0 15 0;
#X connect 15 0 18 1;
#X connect 17 0 20 0;
#X connect 18 0 21 0;
#X connect 19 0 18 0;
#X connect 19 1 12 1;
#X connect 19 2 12 0;
#X connect 19 3 14 1;
#X connect 20 0 25 0;
#X connect 21 0 17 0;
#X connect 21 1 23 0;
#X connect 22 0 26 0;
#X connect 23 0 22 0;
#X connect 25 0 24 0;
#X connect 26 0 0 0;
#X connect 27 0 9 0;
#X connect 27 1 25 1;
#X connect 27 2 26 1;
