#N canvas 159 78 208 327 10;
#X obj -44 210 symbol;
#X obj -44 11 inlet;
#X obj -44 233 pack s s;
#X msg -44 256 read -resize \$1 \$2;
#X obj -44 121 symbol;
#X obj -44 55 t b s;
#X obj -44 33 symbol;
#X obj 1 142 makefilename \$1;
#X obj -44 280 soundfiler;
#X obj -44 77 utility/countup \$3;
#X msg -44 187 \$1\$2;
#X obj -44 99 t b f f;
#X obj -44 164 pack s s;
#X obj 47 164 makefilename \$2;
#X obj 61 102 outlet finished;
#X obj -44 303 outlet lengths;
#X connect 0 0 2 0;
#X connect 1 0 6 0;
#X connect 2 0 3 0;
#X connect 3 0 8 0;
#X connect 4 0 12 0;
#X connect 5 0 9 0;
#X connect 5 1 4 1;
#X connect 6 0 5 0;
#X connect 7 0 12 1;
#X connect 8 0 15 0;
#X connect 9 0 11 0;
#X connect 9 1 14 0;
#X connect 10 0 0 0;
#X connect 11 0 4 0;
#X connect 11 1 7 0;
#X connect 11 2 13 0;
#X connect 12 0 10 0;
#X connect 13 0 2 1;
