#N canvas 1041 197 209 252 10;
#X obj 42 32 inlet;
#X obj 129 32 inlet;
#X obj 42 57 change;
#X obj 129 57 change;
#X obj 42 110 >;
#X obj 42 83 t f f;
#X obj 42 136 route 1;
#X obj 42 161 f;
#X obj 42 199 outlet;
#X obj 129 82 t f f;
#X obj 129 135 route 1;
#X obj 129 160 f;
#X obj 129 199 outlet;
#X obj 129 109 <;
#X connect 0 0 2 0;
#X connect 1 0 3 0;
#X connect 2 0 5 0;
#X connect 2 0 13 1;
#X connect 2 0 8 0;
#X connect 3 0 4 1;
#X connect 3 0 9 0;
#X connect 3 0 12 0;
#X connect 4 0 6 0;
#X connect 5 0 4 0;
#X connect 5 1 7 1;
#X connect 6 0 7 0;
#X connect 7 0 12 0;
#X connect 9 0 13 0;
#X connect 9 1 11 1;
#X connect 10 0 11 0;
#X connect 11 0 8 0;
#X connect 13 0 10 0;
