#N canvas 920 362 424 423 10;
#X obj 97 251 symbol;
#X obj 31 399 outlet;
#X obj 31 126 spigot 1;
#X msg 58 305 1;
#X msg 249 127 0;
#X obj 76 102 == 0;
#X obj 58 328 s \$0-loading;
#X obj 76 51 r \$0-loading;
#X obj 222 104 t b b;
#X obj 130 125 spigot 1;
#X obj 76 79 t f f;
#X obj 249 149 s \$0-loading;
#X msg 157 173 1;
#X obj 97 199 spigot 0;
#X obj 97 224 t b b;
#X msg 190 173 0;
#X obj 222 79 inlet loading-finished;
#X obj 31 26 inlet load-request;
#X obj 31 353 symbolchange;
#X obj 31 69 t a a;
#X obj 130 149 t a b;
#X obj 31 278 t a b;
#X obj 100 399 s \$0-loading;
#X msg 100 376 0;
#X obj 262 312 delay;
#X obj 289 221 loadbang;
#X obj 289 242 f \$1;
#X obj 289 264 sel 0;
#X msg 289 287 10000;
#X obj 307 312 r \$0-loading;
#X obj 262 334 spigot 0;
#X obj 31 376 t a b;
#X connect 0 0 21 0;
#X connect 2 0 21 0;
#X connect 3 0 6 0;
#X connect 4 0 11 0;
#X connect 5 0 2 1;
#X connect 7 0 10 0;
#X connect 8 0 13 0;
#X connect 8 1 4 0;
#X connect 9 0 20 0;
#X connect 10 0 5 0;
#X connect 10 1 9 1;
#X connect 12 0 13 1;
#X connect 13 0 14 0;
#X connect 14 0 0 0;
#X connect 14 1 15 0;
#X connect 15 0 13 1;
#X connect 16 0 8 0;
#X connect 17 0 19 0;
#X connect 18 0 31 0;
#X connect 18 1 23 0;
#X connect 19 0 2 0;
#X connect 19 1 9 0;
#X connect 20 0 0 1;
#X connect 20 1 12 0;
#X connect 21 0 18 0;
#X connect 21 1 3 0;
#X connect 23 0 22 0;
#X connect 24 0 30 0;
#X connect 25 0 26 0;
#X connect 26 0 27 0;
#X connect 27 0 28 0;
#X connect 27 1 24 1;
#X connect 28 0 24 1;
#X connect 29 0 30 1;
#X connect 30 0 8 0;
#X connect 31 0 1 0;
#X connect 31 1 24 0;
