#N canvas 1043 91 238 172 10;
#X obj 12 15 inlet;
#N canvas 433 128 393 325 generate 0;
#X obj 34 295 s pd-switcher.pd;
#X obj 95 201 + 2;
#X obj 122 201 + 3;
#X obj 34 18 loadbang;
#X obj 34 40 f \$1;
#X obj 34 84 until;
#X obj 57 180 * 50;
#X obj 57 201 + 65;
#X obj 34 62 route 0;
#X msg 94 46 3;
#X obj 95 158 * 3;
#X obj 149 201 + 4;
#X obj 34 107 f 0;
#X msg 126 46 0;
#X obj 70 107 + 1;
#X obj 156 159 route 0;
#X obj 95 180 t f f f f;
#X obj 34 131 t f f f;
#X obj 195 201 - 1;
#X obj 34 229 pack 0 0 0 0 0 0 0;
#X msg 34 255 obj \$2 15 t f f \, connect \$6 \$7 \$3 0 \, obj \$2
40 == \$1 \, connect \$3 0 \$4 0 \, obj \$2 65 outlet \, connect \$4
0 \$5 0;
#X obj 195 180 t f b;
#X msg 222 201 1;
#X obj 94 25 t b b;
#X obj 94 7 bng 15 250 50 0 empty empty empty 17 7 0 10 -262144 -1
-1;
#X connect 1 0 19 2;
#X connect 2 0 19 3;
#X connect 3 0 4 0;
#X connect 4 0 8 0;
#X connect 5 0 12 0;
#X connect 6 0 7 0;
#X connect 7 0 19 1;
#X connect 8 1 5 0;
#X connect 9 0 4 0;
#X connect 10 0 16 0;
#X connect 11 0 19 4;
#X connect 12 0 14 0;
#X connect 12 0 17 0;
#X connect 13 0 12 1;
#X connect 14 0 12 1;
#X connect 15 1 21 0;
#X connect 16 0 1 0;
#X connect 16 1 2 0;
#X connect 16 2 11 0;
#X connect 16 3 15 0;
#X connect 17 0 19 0;
#X connect 17 1 6 0;
#X connect 17 2 10 0;
#X connect 18 0 19 5;
#X connect 19 0 20 0;
#X connect 20 0 0 0;
#X connect 21 0 18 0;
#X connect 21 1 22 0;
#X connect 22 0 19 6;
#X connect 23 0 9 0;
#X connect 23 1 13 0;
#X connect 24 0 23 0;
#X restore 12 92 pd generate;
