#N canvas 340 255 164 178 10;
#X obj -42 57 print 0;
#X obj -23 34 print 1;
#X obj -4 11 print 2;
#X obj -42 -59 hradio 15 1 0 8 empty empty empty 0 -8 0 10 -262144
-1 -1 0;
#X obj -42 -34 switcher 4;
#X obj 15 -12 print 3;
#X connect 3 0 4 0;
#X connect 4 0 0 0;
#X connect 4 1 1 0;
#X connect 4 2 2 0;
#X connect 4 3 5 0;
