#N canvas 355 66 296 300 10;
#X obj 41 54 f;
#X obj 25 26 inlet signal;
#X obj 25 262 outlet;
#X obj 25 240 +;
#X obj 25 78 -;
#X obj 109 26 inlet attack;
#X obj 192 26 inlet release;
#X obj 52 123 >;
#X obj 52 171 sel 1 0;
#X obj 52 193 f \$1;
#X obj 83 193 f \$2;
#X obj 25 100 t f f;
#X obj 109 54 t b f;
#X obj 192 54 t b f;
#X obj 104 91 f -1;
#X obj 25 217 *;
#X obj 52 148 change -1;
#X connect 0 0 3 1;
#X connect 0 0 4 1;
#X connect 1 0 4 0;
#X connect 3 0 2 0;
#X connect 3 0 0 0;
#X connect 4 0 11 0;
#X connect 5 0 12 0;
#X connect 6 0 13 0;
#X connect 7 0 16 0;
#X connect 8 0 9 0;
#X connect 8 1 10 0;
#X connect 9 0 15 1;
#X connect 10 0 15 1;
#X connect 11 0 15 0;
#X connect 11 1 7 0;
#X connect 12 0 14 0;
#X connect 12 1 9 1;
#X connect 13 0 14 0;
#X connect 13 1 10 1;
#X connect 14 0 16 0;
#X connect 15 0 3 0;
#X connect 16 0 8 0;
