#N canvas 553 36 258 583 10;
#X obj 25 -23 inlet;
#X obj 25 8 list;
#X obj 58 67 list length;
#X obj 58 120 == 2;
#X obj 25 148 spigot;
#X obj 104 120 == 4;
#X obj 58 93 t f f;
#X obj 71 148 spigot;
#X obj 71 172 unpack 0 0 0 0;
#N canvas 834 486 141 273 random-range 0;
#X obj 20 25 inlet;
#X obj 68 25 inlet;
#X obj 47 75 swap;
#X obj 20 50 t f f;
#X obj 47 100 -;
#X obj 47 123 + 1;
#X obj 47 147 t b f;
#X obj 47 171 random;
#X obj 20 198 +;
#X obj 20 225 outlet;
#X connect 0 0 3 0;
#X connect 1 0 2 1;
#X connect 2 0 4 0;
#X connect 2 1 4 1;
#X connect 3 0 8 0;
#X connect 3 1 2 0;
#X connect 4 0 5 0;
#X connect 5 0 6 0;
#X connect 6 0 7 0;
#X connect 6 1 7 1;
#X connect 7 0 8 1;
#X connect 8 0 9 0;
#X restore 71 201 pd random-range;
#X obj 25 263 moses 1;
#X obj 64 289 t f b;
#X obj 110 437 f;
#X obj 25 410 bang;
#X obj 110 460 - 1;
#N canvas 834 486 141 273 random-range 0;
#X obj 20 25 inlet;
#X obj 68 25 inlet;
#X obj 47 75 swap;
#X obj 20 50 t f f;
#X obj 47 100 -;
#X obj 47 123 + 1;
#X obj 47 147 t b f;
#X obj 47 171 random;
#X obj 20 198 +;
#X obj 20 225 outlet;
#X connect 0 0 3 0;
#X connect 1 0 2 1;
#X connect 2 0 4 0;
#X connect 2 1 4 1;
#X connect 3 0 8 0;
#X connect 3 1 2 0;
#X connect 4 0 5 0;
#X connect 5 0 6 0;
#X connect 6 0 7 0;
#X connect 6 1 7 1;
#X connect 7 0 8 1;
#X connect 8 0 9 0;
#X restore 91 362 pd random-range;
#X obj 112 289 pack;
#X obj 91 339 unpack;
#X obj 91 315 list;
#X obj 110 414 delay;
#X obj 91 386 t b b f;
#X obj 25 498 outlet bang;
#X obj 110 498 outlet done;
#X obj 25 202 unpack;
#X obj 58 227 t f f;
#X obj 25 37 t l l b;
#X msg 193 297 stop;
#X connect 0 0 1 0;
#X connect 1 0 25 0;
#X connect 2 0 6 0;
#X connect 3 0 4 1;
#X connect 4 0 23 0;
#X connect 5 0 7 1;
#X connect 6 0 3 0;
#X connect 6 1 5 0;
#X connect 7 0 8 0;
#X connect 8 0 9 0;
#X connect 8 1 9 1;
#X connect 8 2 16 0;
#X connect 8 3 16 1;
#X connect 9 0 10 0;
#X connect 10 0 13 0;
#X connect 10 1 11 0;
#X connect 11 0 12 1;
#X connect 11 1 18 0;
#X connect 12 0 14 0;
#X connect 13 0 22 0;
#X connect 14 0 10 0;
#X connect 15 0 20 0;
#X connect 16 0 18 1;
#X connect 17 0 15 0;
#X connect 17 1 15 1;
#X connect 18 0 17 0;
#X connect 19 0 12 0;
#X connect 20 0 21 0;
#X connect 20 1 19 0;
#X connect 20 2 19 1;
#X connect 23 0 10 0;
#X connect 23 1 24 0;
#X connect 24 0 16 0;
#X connect 24 1 16 1;
#X connect 25 0 4 0;
#X connect 25 0 7 0;
#X connect 25 1 2 0;
#X connect 25 2 26 0;
#X connect 26 0 19 0;
