#N canvas 146 22 139 224 10;
#X obj 13 79 inlet;
#X obj 13 145 exp;
#X obj 13 123 *;
#X obj 59 100 log;
#X obj 59 13 loadbang;
#X obj 13 190 outlet;
#X obj 59 55 f \$2;
#X obj 91 55 f \$1;
#X obj 59 77 /;
#X obj 59 35 t b b;
#X obj 13 168 * \$1;
#X connect 0 0 2 0;
#X connect 1 0 10 0;
#X connect 2 0 1 0;
#X connect 3 0 2 1;
#X connect 4 0 9 0;
#X connect 6 0 8 0;
#X connect 7 0 8 1;
#X connect 8 0 3 0;
#X connect 9 0 6 0;
#X connect 9 1 7 0;
#X connect 10 0 5 0;
