#N canvas 410 248 319 327 10;
#X obj 81 116 textfile;
#N canvas 663 407 253 242 send-message 1;
#X obj 16 146 send;
#X obj 16 40 list split 1;
#X obj 16 95 list;
#X obj 16 65 t b a;
#X obj 16 121 t a a;
#X obj 77 89 t a a;
#X obj 16 17 inlet;
#X obj 57 161 list prepend;
#X obj 57 209 print message;
#X obj 57 185 list trim;
#X obj 126 135 makefilename %s:;
#X connect 1 0 3 0;
#X connect 1 1 2 1;
#X connect 2 0 4 0;
#X connect 3 0 2 0;
#X connect 3 1 5 0;
#X connect 4 0 0 0;
#X connect 4 1 7 0;
#X connect 5 0 0 1;
#X connect 5 1 10 0;
#X connect 6 0 1 0;
#X connect 7 0 9 0;
#X connect 10 0 7 1;
#X restore 165 288 pd send-message;
#X obj 138 264 t b a;
#N canvas 519 78 224 327 schedule 0;
#X obj 24 26 inlet;
#X obj 24 109 route float;
#X obj 24 57 list split 1;
#X obj 87 160 list append;
#X obj 58 83 t a a;
#X obj 51 160 list;
#X obj 24 271 list;
#X obj 24 298 outlet;
#X obj 24 132 t f b;
#X obj 95 187 inlet speed;
#N canvas 598 22 329 341 vardelay 0;
#X obj 27 46 inlet;
#X obj 237 60 inlet;
#N canvas 304 105 164 228 accumulate 0;
#X obj 91 47 inlet;
#X obj 91 103 +;
#X obj 91 160 outlet;
#X obj 30 -1 inlet;
#X obj 32 129 f;
#X msg 106 78 0;
#X obj 17 186 outlet;
#X msg 47 78 0;
#X obj 91 129 t f f;
#X obj 17 159 f;
#X obj 30 47 t b b b b;
#X obj 30 22 route bang float;
#X connect 0 0 1 0;
#X connect 1 0 4 1;
#X connect 1 0 8 0;
#X connect 3 0 11 0;
#X connect 4 0 9 1;
#X connect 5 0 1 1;
#X connect 7 0 4 1;
#X connect 8 0 2 0;
#X connect 8 1 1 1;
#X connect 9 0 6 0;
#X connect 10 0 9 0;
#X connect 10 1 7 0;
#X connect 10 2 4 0;
#X connect 10 3 5 0;
#X connect 11 0 10 0;
#X connect 11 1 1 1;
#X restore 27 147 pd accumulate;
#X obj 179 3 loadbang;
#X msg 179 33 1;
#X obj 179 56 metro 20;
#X obj 102 297 outlet;
#X obj 102 195 sel 1;
#X obj 102 109 t f b;
#X msg 179 80 20;
#X obj 27 75 route bang;
#X msg 42 107 0;
#X obj 179 112 * -1;
#X obj 237 82 * -1;
#X obj 102 172 <= 0;
#X obj 166 171 t b b;
#X obj 102 243 spigot 0;
#X msg 166 195 1;
#X obj 102 270 t b b;
#X msg 171 252 0;
#X connect 0 0 10 0;
#X connect 1 0 13 0;
#X connect 2 1 14 0;
#X connect 3 0 4 0;
#X connect 4 0 5 0;
#X connect 5 0 9 0;
#X connect 7 0 16 0;
#X connect 8 0 2 1;
#X connect 8 1 15 0;
#X connect 9 0 12 0;
#X connect 10 0 2 0;
#X connect 10 1 8 0;
#X connect 11 0 2 0;
#X connect 12 0 2 1;
#X connect 13 0 12 1;
#X connect 14 0 7 0;
#X connect 15 0 17 0;
#X connect 16 0 18 0;
#X connect 17 0 16 1;
#X connect 18 0 6 0;
#X connect 18 1 19 0;
#X connect 19 0 16 1;
#X restore 24 241 pd vardelay;
#X obj 95 211 route bang;
#X obj 151 242 inlet reset;
#X msg 151 265 list;
#X connect 0 0 2 0;
#X connect 1 0 8 0;
#X connect 1 1 3 0;
#X connect 2 0 1 0;
#X connect 2 1 4 0;
#X connect 3 0 7 0;
#X connect 4 0 5 1;
#X connect 4 1 3 1;
#X connect 5 0 6 1;
#X connect 6 0 7 0;
#X connect 8 0 10 0;
#X connect 8 1 5 0;
#X connect 9 0 11 0;
#X connect 10 0 6 0;
#X connect 11 0 10 0;
#X connect 11 1 10 1;
#X connect 12 0 13 0;
#X connect 13 0 6 1;
#X restore 81 216 pd schedule;
#X obj 81 241 route bang;
#X msg 96 90 rewind \, bang;
#X obj 33 147 t b;
#X obj 81 12 inlet;
#X msg 81 65 read \$1 \, rewind \, bang;
#X obj 81 36 t a b;
#X obj 146 161 inlet;
#X obj 219 27 inlet reset;
#X msg 185 89 rewind;
#X obj 219 50 t b b;
#X connect 0 0 3 0;
#X connect 0 1 5 0;
#X connect 2 0 6 0;
#X connect 2 1 1 0;
#X connect 3 0 4 0;
#X connect 4 0 6 0;
#X connect 4 1 2 0;
#X connect 5 0 0 0;
#X connect 6 0 0 0;
#X connect 7 0 9 0;
#X connect 8 0 0 0;
#X connect 9 0 8 0;
#X connect 9 1 3 1;
#X connect 10 0 3 1;
#X connect 11 0 13 0;
#X connect 12 0 0 0;
#X connect 13 0 12 0;
#X connect 13 1 3 2;
