#N canvas 98 27 125 145 10;
#X obj 20 115 outlet;
#X obj 20 23 inlet;
#X obj 20 46 moses \$1;
#X obj 20 92 f \$2;
#X obj 20 69 bang;
#X connect 1 0 2 0;
#X connect 2 0 4 0;
#X connect 2 1 0 0;
#X connect 3 0 0 0;
#X connect 4 0 3 0;
