#N canvas 603 249 183 279 10;
#X obj -7 4 inlet;
#X obj 40 102 -;
#X obj 60 74 f;
#N canvas 832 283 254 246 signchange 1;
#X obj 27 20 inlet;
#X obj 27 211 outlet;
#X obj 27 66 > 0;
#X obj 83 66 >= 0;
#X obj 27 126 change;
#X obj 27 152 * 2;
#X obj 27 179 - 1;
#X obj 27 90 spigot 1;
#X obj 83 90 spigot 0;
#X obj 91 153 == 1;
#X obj 57 152 == 0;
#X obj 141 14 inlet;
#X msg 202 59 set 0;
#X obj 141 37 t b b b;
#X msg 141 59 1;
#X msg 170 59 0;
#X connect 0 0 2 0;
#X connect 0 0 3 0;
#X connect 2 0 7 0;
#X connect 3 0 8 0;
#X connect 4 0 5 0;
#X connect 4 0 9 0;
#X connect 4 0 10 0;
#X connect 5 0 6 0;
#X connect 6 0 1 0;
#X connect 7 0 4 0;
#X connect 8 0 4 0;
#X connect 9 0 8 1;
#X connect 10 0 7 1;
#X connect 11 0 13 0;
#X connect 12 0 4 0;
#X connect 13 0 14 0;
#X connect 13 1 15 0;
#X connect 13 2 12 0;
#X connect 14 0 7 1;
#X connect 15 0 8 1;
#X restore 40 128 pd signchange;
#X obj 40 209 f;
#X obj 40 233 outlet high;
#X obj 40 156 route -1 1;
#X obj 73 186 f;
#X obj 73 210 outlet low;
#X obj -7 27 t f f f f b;
#X obj 101 5 inlet;
#X connect 0 0 9 0;
#X connect 1 0 3 0;
#X connect 2 0 1 1;
#X connect 3 0 6 0;
#X connect 4 0 5 0;
#X connect 6 0 4 0;
#X connect 6 1 7 0;
#X connect 7 0 8 0;
#X connect 9 0 4 1;
#X connect 9 1 7 1;
#X connect 9 2 2 1;
#X connect 9 3 1 0;
#X connect 9 4 2 0;
#X connect 10 0 3 1;
