#N canvas 355 66 309 179 10;
#X obj 40 53 f;
#X obj 25 26 inlet signal;
#X obj 109 26 inlet alpha;
#X obj 25 145 outlet;
#X obj 25 123 +;
#X obj 25 78 -;
#X obj 25 100 * \$1;
#X obj 190 26 inlet init;
#X connect 0 0 4 1;
#X connect 0 0 5 1;
#X connect 1 0 5 0;
#X connect 2 0 6 1;
#X connect 4 0 3 0;
#X connect 4 0 0 0;
#X connect 5 0 6 0;
#X connect 6 0 4 0;
#X connect 7 0 0 0;
