#N canvas 263 513 270 319 10;
#X obj 31 53 noise~;
#X obj 116 156 /;
#X obj 116 109 sqrt;
#X obj 116 132 swap 120;
#X obj 31 277 outlet~;
#X obj 93 10 inlet;
#X obj 31 83 lop~ 0.5;
#X obj 31 109 lop~ 0.5;
#X obj 195 32 f \$1;
#X msg 195 85 2;
#X obj 195 10 loadbang;
#X obj 195 59 route 0;
#X obj 31 228 *~;
#N canvas 293 300 185 272 warp 0;
#X obj 38 20 inlet;
#X obj 38 66 t f f;
#X obj 65 162 * 0.75;
#X obj 65 187 + 0.25;
#X obj 38 210 *;
#X obj 38 235 outlet;
#X obj 65 116 pow 0.3;
#X obj 38 42 clip 0.1 10000;
#X obj 65 90 / 10000;
#X connect 0 0 7 0;
#X connect 1 0 4 0;
#X connect 1 1 8 0;
#X connect 2 0 3 0;
#X connect 3 0 4 1;
#X connect 4 0 5 0;
#X connect 6 0 2 0;
#X connect 7 0 1 0;
#X connect 8 0 6 0;
#X restore 93 34 pd warp;
#X obj 93 82 line;
#X obj 116 203 line~;
#X msg 116 180 \$1 10;
#X msg 93 58 \$1 50;
#X obj 31 252 clip~ -1.4 1.4;
#X connect 0 0 6 0;
#X connect 1 0 16 0;
#X connect 2 0 3 0;
#X connect 3 0 1 0;
#X connect 3 1 1 1;
#X connect 5 0 13 0;
#X connect 6 0 7 0;
#X connect 7 0 12 0;
#X connect 8 0 11 0;
#X connect 9 0 13 0;
#X connect 10 0 8 0;
#X connect 11 0 9 0;
#X connect 11 1 13 0;
#X connect 12 0 18 0;
#X connect 13 0 17 0;
#X connect 13 0 2 0;
#X connect 14 0 7 1;
#X connect 14 0 6 1;
#X connect 15 0 12 1;
#X connect 16 0 15 0;
#X connect 17 0 14 0;
#X connect 18 0 4 0;
