#N canvas 291 173 220 389 10;
#X obj 23 -24 inlet signal;
#X obj 119 97 inlet mindelta;
#X obj 23 76 -;
#X obj 74 76 -;
#X obj 74 105 * -1;
#X obj 119 192 * -1;
#X obj 23 4 t f b;
#X obj 95 305 /;
#X obj 138 282 + 1;
#X obj 68 226 t b f;
#X obj 110 282 f 0;
#X msg 68 252 0;
#X obj 95 329 outlet;
#X obj 23 34 localpeak;
#X obj 23 133 moses \$1;
#X obj 74 164 moses \$1;
#X connect 0 0 6 0;
#X connect 1 0 14 1;
#X connect 1 0 15 1;
#X connect 2 0 14 0;
#X connect 3 0 4 0;
#X connect 4 0 15 0;
#X connect 5 0 9 0;
#X connect 6 0 13 0;
#X connect 6 1 10 0;
#X connect 7 0 12 0;
#X connect 8 0 10 1;
#X connect 9 0 11 0;
#X connect 9 1 7 0;
#X connect 10 0 8 0;
#X connect 10 0 7 1;
#X connect 11 0 10 0;
#X connect 13 0 2 0;
#X connect 13 0 3 1;
#X connect 13 1 2 1;
#X connect 13 1 3 0;
#X connect 14 1 9 0;
#X connect 15 1 5 0;
