#N canvas 827 106 312 216 10;
#X obj 45 45 inlet;
#X obj 45 104 - \$1;
#X obj 45 135 * 1;
#X obj 45 163 + \$3;
#X obj 45 74 clip \$1 \$2;
#X obj 127 110 /;
#X obj 127 86 -;
#X obj 161 86 -;
#X obj 127 8 loadbang;
#X obj 45 190 outlet;
#X obj 127 36 pack \$4 \$3 \$2 \$1;
#X obj 127 61 unpack 0 0 0 0;
#X connect 0 0 4 0;
#X connect 1 0 2 0;
#X connect 2 0 3 0;
#X connect 3 0 9 0;
#X connect 4 0 1 0;
#X connect 5 0 2 1;
#X connect 6 0 5 0;
#X connect 7 0 5 1;
#X connect 8 0 10 0;
#X connect 10 0 11 0;
#X connect 11 0 6 0;
#X connect 11 1 6 1;
#X connect 11 2 7 0;
#X connect 11 3 7 1;
