#N canvas 188 160 227 244 10;
#X obj 21 26 inlet;
#X obj 83 26 inlet;
#X obj 155 26 inlet;
#X obj 140 92 route 1;
#X obj 21 93 route 1;
#X obj 88 204 outlet;
#X msg 140 122 1;
#X msg 21 120 0;
#X obj 88 172 change;
#X obj 21 65 <= \$1;
#X obj 140 61 >= \$2;
#X connect 0 0 9 0;
#X connect 0 0 10 0;
#X connect 1 0 9 1;
#X connect 2 0 10 1;
#X connect 3 0 6 0;
#X connect 4 0 7 0;
#X connect 6 0 8 0;
#X connect 7 0 8 0;
#X connect 8 0 5 0;
#X connect 9 0 4 0;
#X connect 10 0 3 0;
