#N canvas 0 22 167 276 10;
#X obj 57 39 inlet;
#X obj 57 120 cos;
#X obj 57 68 clip 0 1;
#X obj 57 147 * -0.5;
#X obj 57 174 + 0.5;
#X obj 57 93 * 3.14159;
#X obj 57 198 clip 0 1;
#X obj 57 222 outlet;
#X connect 0 0 2 0;
#X connect 1 0 3 0;
#X connect 2 0 5 0;
#X connect 3 0 4 0;
#X connect 4 0 6 0;
#X connect 5 0 1 0;
#X connect 6 0 7 0;
