#N canvas 82 116 157 315 10;
#X obj 23 12 inlet;
#X obj 23 266 spigot;
#X obj 76 198 >;
#X obj 23 290 outlet;
#X obj 23 39 t f f b;
#X obj 92 87 timer;
#X obj 92 65 t b b;
#X obj 92 109 * -1;
#X obj 92 154 exp;
#X obj 92 176 *;
#X obj 70 266 spigot;
#X obj 103 243 == 0;
#X obj 23 220 t f f;
#X obj 70 290 outlet;
#X obj 76 221 t f f;
#X obj 121 154 * \$2;
#X obj 92 131 / \$1;
#X connect 0 0 4 0;
#X connect 1 0 3 0;
#X connect 1 0 15 0;
#X connect 2 0 14 0;
#X connect 4 0 12 0;
#X connect 4 1 2 0;
#X connect 4 2 6 0;
#X connect 5 0 7 0;
#X connect 6 0 5 0;
#X connect 6 1 5 1;
#X connect 7 0 16 0;
#X connect 8 0 9 0;
#X connect 9 0 2 1;
#X connect 10 0 13 0;
#X connect 11 0 10 1;
#X connect 12 0 1 0;
#X connect 12 1 10 0;
#X connect 14 0 1 1;
#X connect 14 1 11 0;
#X connect 15 0 9 1;
#X connect 16 0 8 0;
