#N canvas 135 225 505 401 10;
#X declare -path ../.;
#X obj 70 170 adaptenv~;
#X obj 55 69 inlet~;
#X obj 55 105 *~ 1;
#X obj 136 70 inlet;
#X obj 70 218 dynamics~ -12 3;
#X obj 55 245 *~;
#X obj 55 275 outlet~;
#X obj 157 244 outlet~;
#X obj 136 96 route attack release threshold ratio knee;
#X connect 0 0 4 0;
#X connect 1 0 2 0;
#X connect 2 0 5 0;
#X connect 2 0 0 0;
#X connect 3 0 8 0;
#X connect 4 0 5 1;
#X connect 4 1 7 0;
#X connect 5 0 6 0;
#X connect 8 0 0 1;
#X connect 8 1 0 2;
#X connect 8 2 4 1;
#X connect 8 3 4 2;
#X connect 8 4 4 3;
