#N canvas 23 101 554 567 10;
#X obj 39 44 inlet~;
#N canvas 47 73 155 220 lp~ 0;
#X obj 26 159 outlet~;
#X obj 26 109 *~;
#X obj 41 65 sig~ 1;
#X obj 41 87 -~;
#X obj 26 133 rpole~;
#X obj 26 34 inlet~;
#X obj 72 34 inlet~;
#X connect 1 0 4 0;
#X connect 2 0 3 0;
#X connect 3 0 1 1;
#X connect 4 0 0 0;
#X connect 5 0 1 0;
#X connect 6 0 3 1;
#X connect 6 0 4 1;
#X restore 39 190 pd lp~;
#N canvas 47 73 155 220 lp~ 0;
#X obj 26 159 outlet~;
#X obj 26 109 *~;
#X obj 41 65 sig~ 1;
#X obj 41 87 -~;
#X obj 26 133 rpole~;
#X obj 26 34 inlet~;
#X obj 72 34 inlet~;
#X connect 1 0 4 0;
#X connect 2 0 3 0;
#X connect 3 0 1 1;
#X connect 4 0 0 0;
#X connect 5 0 1 0;
#X connect 6 0 3 1;
#X connect 6 0 4 1;
#X restore 39 164 pd lp~;
#X obj 39 78 *~;
#X obj 109 50 * 0.707;
#X obj 109 24 inlet;
#X obj 21 333 delwrite~ \$0-compare 1;
#X obj 245 197 delread~ \$0-compare 0;
#N canvas 624 224 184 256 dbperms~ 0;
#X obj 23 26 inlet~;
#X obj 75 26 inlet~;
#X obj 23 210 outlet~;
#X obj 23 80 /~;
#X obj 23 106 rmstodb~;
#X obj 23 129 /~ 2;
#X obj 23 152 -~ 50;
#X obj 75 50 max~ 1e-05;
#X obj 85 130 samplerate~;
#X obj 85 107 loadbang;
#X obj 85 154 / 1000;
#X obj 23 185 *~ 44.1;
#X obj 85 76 block~ 1;
#X connect 0 0 3 0;
#X connect 1 0 7 0;
#X connect 3 0 4 0;
#X connect 4 0 5 0;
#X connect 5 0 6 0;
#X connect 6 0 11 0;
#X connect 7 0 3 1;
#X connect 8 0 10 0;
#X connect 9 0 8 0;
#X connect 10 0 11 1;
#X connect 11 0 2 0;
#X restore 176 250 pd dbperms~;
#X obj 337 527 outlet~;
#N canvas 0 22 227 175 interpolate~ 0;
#X obj 42 52 sig~ 1;
#X obj 42 74 -~;
#X obj 57 28 inlet~;
#X obj 118 29 inlet;
#X obj 157 29 inlet;
#X obj 78 96 *~ 0;
#X obj 42 96 *~ 1;
#X obj 42 139 outlet~;
#X connect 0 0 1 0;
#X connect 1 0 6 0;
#X connect 2 0 1 1;
#X connect 2 0 5 0;
#X connect 3 0 6 1;
#X connect 4 0 5 1;
#X connect 5 0 7 0;
#X connect 6 0 7 0;
#X restore 311 421 pd interpolate~;
#X obj 181 104 max;
#X obj 167 80 t b f;
#X obj 181 50 * 0.707;
#X obj 181 24 inlet;
#X obj 247 481 delwrite~ \$0-timeconst 1;
#X obj 247 458 timeconst~;
#X obj 39 248 outlet~;
#X obj 13 126 delread~ \$0-timeconst 0;
#N canvas 0 22 271 186 interpolate~ 0;
#X obj 42 52 sig~ 1;
#X obj 42 74 -~;
#X obj 57 28 inlet~;
#X obj 118 29 inlet;
#X obj 157 29 inlet;
#X obj 78 96 *~ 0;
#X obj 42 96 *~ 1;
#X obj 42 139 outlet~;
#X connect 0 0 1 0;
#X connect 1 0 6 0;
#X connect 2 0 1 1;
#X connect 2 0 5 0;
#X connect 3 0 6 1;
#X connect 4 0 5 1;
#X connect 5 0 7 0;
#X connect 6 0 7 0;
#X restore 186 427 pd interpolate~;
#X obj 186 363 *~ -1;
#X obj 362 306 max;
#X obj 399 216 loadbang;
#X msg 262 270 0;
#X obj 274 359 -;
#X obj 181 128 t f f;
#X obj 366 263 t b f;
#X obj 361 285 f;
#X obj 394 52 hsl 128 15 1 100 0 0 empty empty empty -2 -8 0 10 -262144
-1 -1 3800 1;
#X floatatom 391 74 5 0 0 0 - - -;
#X obj 39 216 sqrt~;
#X obj 279 300 t b f;
#X obj 279 323 f;
#X obj 340 146 /;
#X obj 341 124 f;
#X obj 339 103 t b f;
#X obj 402 148 /;
#X obj 403 126 f;
#X obj 401 105 t b f;
#X obj 341 171 clip 1 5;
#X obj 402 171 clip 1 5;
#X obj 311 353 clip~ 0 1;
#X obj 186 335 clip~ -1 0;
#X msg 399 241 30;
#X obj 444 388 block~ 1;
#N canvas 47 73 155 220 lp~ 0;
#X obj 26 159 outlet~;
#X obj 26 109 *~;
#X obj 41 65 sig~ 1;
#X obj 41 87 -~;
#X obj 26 133 rpole~;
#X obj 26 34 inlet~;
#X obj 72 34 inlet~;
#X connect 1 0 4 0;
#X connect 2 0 3 0;
#X connect 3 0 1 1;
#X connect 4 0 0 0;
#X connect 5 0 1 0;
#X connect 6 0 3 1;
#X connect 6 0 4 1;
#X restore 21 276 pd lp~;
#X obj 108 228 sig~;
#X obj 112 164 hsl 128 15 1 100 0 0 empty empty empty -2 -8 0 10 -262144
-1 -1 1255 1;
#X floatatom 109 186 5 0 0 0 - - -;
#X obj 108 205 timeconst;
#X obj 152 281 *~ 1;
#X obj 210 278 *~ 1;
#X obj 176 189 loadbang;
#X msg 176 214 10;
#N canvas 47 73 155 220 lp~ 0;
#X obj 26 159 outlet~;
#X obj 26 109 *~;
#X obj 41 65 sig~ 1;
#X obj 41 87 -~;
#X obj 26 133 rpole~;
#X obj 26 34 inlet~;
#X obj 72 34 inlet~;
#X connect 1 0 4 0;
#X connect 2 0 3 0;
#X connect 3 0 1 1;
#X connect 4 0 0 0;
#X connect 5 0 1 0;
#X connect 6 0 3 1;
#X connect 6 0 4 1;
#X restore 21 300 pd lp~;
#X connect 0 0 3 0;
#X connect 0 0 3 1;
#X connect 1 0 30 0;
#X connect 2 0 1 0;
#X connect 3 0 2 0;
#X connect 3 0 45 0;
#X connect 4 0 10 2;
#X connect 4 0 38 0;
#X connect 4 0 12 0;
#X connect 5 0 4 0;
#X connect 7 0 8 1;
#X connect 8 0 50 0;
#X connect 8 0 51 0;
#X connect 10 0 16 0;
#X connect 10 0 9 0;
#X connect 11 0 25 0;
#X connect 12 0 11 0;
#X connect 12 1 11 1;
#X connect 13 0 11 0;
#X connect 14 0 13 0;
#X connect 16 0 15 0;
#X connect 18 0 2 1;
#X connect 18 0 1 1;
#X connect 19 0 16 0;
#X connect 19 0 9 0;
#X connect 20 0 19 0;
#X connect 21 0 10 1;
#X connect 21 0 31 0;
#X connect 22 0 43 0;
#X connect 22 0 23 0;
#X connect 23 0 19 1;
#X connect 24 0 19 2;
#X connect 25 0 32 0;
#X connect 25 0 35 0;
#X connect 25 1 27 0;
#X connect 26 0 27 0;
#X connect 26 1 21 1;
#X connect 27 0 21 0;
#X connect 28 0 29 0;
#X connect 29 0 26 0;
#X connect 29 0 34 0;
#X connect 29 0 37 0;
#X connect 30 0 17 0;
#X connect 31 0 32 0;
#X connect 31 1 24 1;
#X connect 32 0 24 0;
#X connect 33 0 39 0;
#X connect 34 0 33 0;
#X connect 35 0 34 0;
#X connect 35 1 33 1;
#X connect 36 0 40 0;
#X connect 37 0 36 0;
#X connect 38 0 37 0;
#X connect 38 1 36 1;
#X connect 41 0 10 0;
#X connect 42 0 20 0;
#X connect 43 0 26 0;
#X connect 45 0 54 0;
#X connect 46 0 45 1;
#X connect 46 0 54 1;
#X connect 47 0 48 0;
#X connect 48 0 49 0;
#X connect 49 0 46 0;
#X connect 50 0 42 0;
#X connect 51 0 41 0;
#X connect 52 0 53 0;
#X connect 53 0 47 0;
#X connect 54 0 6 0;
#X connect 54 0 8 0;
