#N canvas 875 281 485 418 10;
#X obj 26 18 inlet~ env;
#X obj 93 18 inlet~ prev-out;
#X obj 26 361 outlet~ torr;
#X obj 140 41 inlet attack;
#N canvas 0 22 227 175 interpolate~ 0;
#X obj 42 52 sig~ 1;
#X obj 42 74 -~;
#X obj 57 28 inlet~;
#X obj 118 29 inlet;
#X obj 157 29 inlet;
#X obj 78 96 *~ 0;
#X obj 42 96 *~ 1;
#X obj 42 139 outlet~;
#X connect 0 0 1 0;
#X connect 1 0 6 0;
#X connect 2 0 1 1;
#X connect 2 0 5 0;
#X connect 3 0 6 1;
#X connect 4 0 5 1;
#X connect 5 0 7 0;
#X connect 6 0 7 0;
#X restore 26 220 pd interpolate~;
#X obj 140 87 f \$1;
#X obj 155 65 loadbang;
#X obj 280 65 loadbang;
#X obj 265 87 f \$2;
#X obj 265 41 inlet release;
#X obj 387 65 loadbang;
#X obj 372 41 inlet hold;
#X obj 372 87 f \$3;
#X obj 140 108 timeconst;
#X obj 265 108 timeconst;
#X obj 113 194 max;
#X obj 113 170 t b f;
#N canvas 144 136 129 205 compare~ 0;
#X obj 21 76 -~;
#X obj 21 98 *~ 1e+10;
#X obj 21 120 clip~ 0 1;
#X obj 21 145 outlet~;
#X obj 21 24 inlet~;
#X obj 36 48 inlet~;
#X connect 0 0 1 0;
#X connect 1 0 2 0;
#X connect 2 0 3 0;
#X connect 4 0 0 0;
#X connect 5 0 0 1;
#X restore 26 103 pd compare~;
#N canvas 182 264 241 180 exppulse~ 0;
#X obj 22 25 inlet~ compare;
#X obj 22 138 outlet~;
#X obj 124 25 inlet release;
#X obj 22 56 rzero~ 1;
#X obj 22 83 clip~ 0 1;
#X obj 22 110 attrel~ 0 50;
#X connect 0 0 3 0;
#X connect 2 0 5 2;
#X connect 3 0 4 0;
#X connect 4 0 5 0;
#X connect 5 0 1 0;
#X restore 156 219 pd exppulse~;
#X obj 26 296 max~;
#X obj 331 254 timeconst;
#X obj 331 203 loadbang;
#X obj 388 203 bng 15 250 50 0 empty empty empty 17 7 0 10 -262144
-1 -1;
#X obj 331 228 f 100;
#N canvas 0 22 227 175 interpolate~ 0;
#X obj 42 52 sig~ 1;
#X obj 42 74 -~;
#X obj 57 28 inlet~;
#X obj 118 29 inlet;
#X obj 157 29 inlet;
#X obj 78 96 *~ 0;
#X obj 42 96 *~ 1;
#X obj 42 139 outlet~;
#X connect 0 0 1 0;
#X connect 1 0 6 0;
#X connect 2 0 1 1;
#X connect 2 0 5 0;
#X connect 3 0 6 1;
#X connect 4 0 5 1;
#X connect 5 0 7 0;
#X connect 6 0 7 0;
#X restore 156 253 pd interpolate~;
#X obj 291 153 hsl 128 15 10 1000 1 0 empty empty empty -2 -8 0 10
-262144 -1 -1 0 1;
#X floatatom 288 174 5 0 0 0 - - -;
#X floatatom 204 311 8 0 0 0 - - -;
#X obj 26 328 timeconst~;
#X connect 0 0 17 1;
#X connect 1 0 17 0;
#X connect 3 0 5 0;
#X connect 4 0 19 0;
#X connect 5 0 13 0;
#X connect 5 0 24 1;
#X connect 5 0 4 1;
#X connect 5 0 16 0;
#X connect 6 0 5 0;
#X connect 7 0 8 0;
#X connect 8 0 14 0;
#X connect 8 0 15 0;
#X connect 9 0 8 0;
#X connect 10 0 12 0;
#X connect 11 0 12 0;
#X connect 12 0 18 1;
#X connect 15 0 4 2;
#X connect 16 0 15 0;
#X connect 16 1 15 1;
#X connect 17 0 18 0;
#X connect 17 0 4 0;
#X connect 18 0 24 0;
#X connect 19 0 28 0;
#X connect 21 0 23 0;
#X connect 22 0 23 0;
#X connect 23 0 20 0;
#X connect 23 0 24 2;
#X connect 24 0 19 1;
#X connect 25 0 26 0;
#X connect 26 0 23 0;
#X connect 28 0 2 0;
