#N canvas 774 89 387 333 10;
#X obj 19 17 inlet~;
#X obj 164 50 inlet;
#X obj 82 47 -~;
#X obj 82 69 *~ 1e+10;
#X obj 82 91 clip~ 0 1;
#X obj 121 113 sig~ 1;
#X obj 121 135 -~;
#X obj 19 300 outlet~;
#X obj 19 224 *~;
#X obj 34 180 sig~ 1;
#X obj 34 202 -~;
#X obj 82 180 +~;
#X obj 19 248 rpole~;
#X obj 121 157 *~;
#X obj 82 157 *~;
#X obj 164 95 f \$1;
#X obj 179 73 loadbang;
#X obj 270 50 inlet;
#X obj 285 73 loadbang;
#X obj 270 95 f \$2;
#X obj 97 23 delread~ \$0-compare 0;
#X obj 34 274 delwrite~ \$0-compare 1;
#N canvas 1033 142 148 258 time-constant 0;
#X obj 30 12 inlet;
#X obj 57 200 exp;
#X obj 57 175 * -2.2;
#X obj 57 224 outlet;
#X obj 57 81 samplerate~;
#X obj 57 58 t b f;
#X obj 57 104 *;
#X obj 57 127 swap 1000;
#X obj 57 151 /;
#X obj 30 35 sel 0;
#X obj 30 200 f 0;
#X connect 0 0 9 0;
#X connect 1 0 3 0;
#X connect 2 0 1 0;
#X connect 4 0 6 0;
#X connect 5 0 4 0;
#X connect 5 1 6 1;
#X connect 6 0 7 0;
#X connect 7 0 8 0;
#X connect 7 1 8 1;
#X connect 8 0 2 0;
#X connect 9 0 10 0;
#X connect 9 1 5 0;
#X connect 10 0 3 0;
#X restore 164 116 pd time-constant;
#N canvas 1033 142 148 258 time-constant 0;
#X obj 30 12 inlet;
#X obj 57 200 exp;
#X obj 57 175 * -2.2;
#X obj 57 224 outlet;
#X obj 57 81 samplerate~;
#X obj 57 58 t b f;
#X obj 57 104 *;
#X obj 57 127 swap 1000;
#X obj 57 151 /;
#X obj 30 35 sel 0;
#X obj 30 200 f 0;
#X connect 0 0 9 0;
#X connect 1 0 3 0;
#X connect 2 0 1 0;
#X connect 4 0 6 0;
#X connect 5 0 4 0;
#X connect 5 1 6 1;
#X connect 6 0 7 0;
#X connect 7 0 8 0;
#X connect 7 1 8 1;
#X connect 8 0 2 0;
#X connect 9 0 10 0;
#X connect 9 1 5 0;
#X connect 10 0 3 0;
#X restore 270 116 pd time-constant;
#X connect 0 0 2 0;
#X connect 0 0 8 0;
#X connect 1 0 15 0;
#X connect 2 0 3 0;
#X connect 3 0 4 0;
#X connect 4 0 6 1;
#X connect 4 0 14 0;
#X connect 5 0 6 0;
#X connect 6 0 13 0;
#X connect 8 0 12 0;
#X connect 9 0 10 0;
#X connect 10 0 8 1;
#X connect 11 0 10 1;
#X connect 11 0 12 1;
#X connect 12 0 7 0;
#X connect 12 0 21 0;
#X connect 13 0 11 1;
#X connect 14 0 11 0;
#X connect 15 0 22 0;
#X connect 16 0 15 0;
#X connect 17 0 19 0;
#X connect 18 0 19 0;
#X connect 19 0 23 0;
#X connect 20 0 2 1;
#X connect 22 0 14 1;
#X connect 23 0 13 1;
