#N canvas 780 251 379 289 10;
#X obj 26 18 inlet~ env;
#X obj 93 18 inlet~ prev-out;
#X obj 26 248 outlet~ torr;
#X obj 140 41 inlet attack;
#N canvas 0 22 227 175 interpolate~ 0;
#X obj 42 52 sig~ 1;
#X obj 42 74 -~;
#X obj 57 28 inlet~;
#X obj 118 29 inlet;
#X obj 157 29 inlet;
#X obj 78 96 *~ 0;
#X obj 42 96 *~ 1;
#X obj 42 139 outlet~;
#X connect 0 0 1 0;
#X connect 1 0 6 0;
#X connect 2 0 1 1;
#X connect 2 0 5 0;
#X connect 3 0 6 1;
#X connect 4 0 5 1;
#X connect 5 0 7 0;
#X connect 6 0 7 0;
#X restore 26 220 pd interpolate~;
#X obj 140 87 f \$1;
#X obj 155 65 loadbang;
#X obj 280 65 loadbang;
#X obj 265 87 f \$2;
#X obj 265 41 inlet release;
#X obj 140 108 timeconst;
#X obj 265 108 timeconst;
#X obj 113 194 max;
#X obj 113 170 t b f;
#N canvas 144 136 129 205 compare~ 0;
#X obj 21 76 -~;
#X obj 21 98 *~ 1e+10;
#X obj 21 120 clip~ 0 1;
#X obj 21 145 outlet~;
#X obj 21 24 inlet~;
#X obj 36 48 inlet~;
#X connect 0 0 1 0;
#X connect 1 0 2 0;
#X connect 2 0 3 0;
#X connect 4 0 0 0;
#X connect 5 0 0 1;
#X restore 26 103 pd compare~;
#X connect 0 0 14 1;
#X connect 1 0 14 0;
#X connect 3 0 5 0;
#X connect 4 0 2 0;
#X connect 5 0 10 0;
#X connect 6 0 5 0;
#X connect 7 0 8 0;
#X connect 8 0 11 0;
#X connect 9 0 8 0;
#X connect 10 0 4 1;
#X connect 10 0 13 0;
#X connect 11 0 12 0;
#X connect 12 0 4 2;
#X connect 13 0 12 0;
#X connect 13 1 12 1;
#X connect 14 0 4 0;
