#N canvas 521 22 324 305 10;
#X obj 19 17 inlet~;
#X obj 19 269 outlet~;
#X obj 138 91 f \$1;
#X obj 153 69 loadbang;
#X obj 237 69 loadbang;
#X obj 222 91 f \$2;
#X obj 105 17 delread~ \$0-compare 0;
#X obj 34 243 delwrite~ \$0-compare 1;
#X obj 138 196 block~ 1;
#N canvas 47 73 155 220 lp~ 0;
#X obj 26 159 outlet~;
#X obj 26 109 *~;
#X obj 41 65 sig~ 1;
#X obj 41 87 -~;
#X obj 26 133 rpole~;
#X obj 26 34 inlet~;
#X obj 72 34 inlet~;
#X connect 1 0 4 0;
#X connect 2 0 3 0;
#X connect 3 0 1 1;
#X connect 4 0 0 0;
#X connect 5 0 1 0;
#X connect 6 0 3 1;
#X connect 6 0 4 1;
#X restore 19 207 pd lp~;
#X obj 222 115 * 0.707;
#X obj 138 116 * 0.707;
#N canvas 47 73 155 220 lp~ 0;
#X obj 26 159 outlet~;
#X obj 26 109 *~;
#X obj 41 65 sig~ 1;
#X obj 41 87 -~;
#X obj 26 133 rpole~;
#X obj 26 34 inlet~;
#X obj 72 34 inlet~;
#X connect 1 0 4 0;
#X connect 2 0 3 0;
#X connect 3 0 1 1;
#X connect 4 0 0 0;
#X connect 5 0 1 0;
#X connect 6 0 3 1;
#X connect 6 0 4 1;
#X restore 19 181 pd lp~;
#X obj 138 46 inlet attack;
#X obj 222 46 inlet release;
#X obj 72 150 attrelcontroller~;
#X connect 0 0 12 0;
#X connect 0 0 15 0;
#X connect 2 0 11 0;
#X connect 3 0 2 0;
#X connect 4 0 5 0;
#X connect 5 0 10 0;
#X connect 6 0 15 1;
#X connect 9 0 1 0;
#X connect 9 0 7 0;
#X connect 10 0 15 3;
#X connect 11 0 15 2;
#X connect 12 0 9 0;
#X connect 13 0 2 0;
#X connect 14 0 5 0;
#X connect 15 0 9 1;
#X connect 15 0 12 1;
