#N canvas 856 22 395 269 10;
#X obj 21 47 inlet~;
#X obj 120 49 inlet;
#X obj 120 166 pow;
#X obj 219 169 /;
#X obj 219 142 swap 1;
#X obj 21 166 clip~ -2 1.999;
#X obj 120 107 - 1;
#X obj 21 223 outlet~;
#X obj 318 146 loadbang;
#X obj 120 136 swap 2;
#X obj 184 43 f \$1;
#X obj 184 19 loadbang;
#X obj 120 79 max 1;
#X obj 21 195 expr~ (int(($v1 + 2) * $f2) + $f4 + 0.5) * $f3 - 2;
#X obj 318 170 f \$2;
#X connect 0 0 5 0;
#X connect 1 0 12 0;
#X connect 2 0 4 0;
#X connect 2 0 13 1;
#X connect 3 0 13 2;
#X connect 4 0 3 0;
#X connect 4 1 3 1;
#X connect 5 0 13 0;
#X connect 6 0 9 0;
#X connect 8 0 14 0;
#X connect 9 0 2 0;
#X connect 9 1 2 1;
#X connect 10 0 12 0;
#X connect 11 0 10 0;
#X connect 12 0 6 0;
#X connect 13 0 7 0;
#X connect 14 0 13 3;
