#N canvas 767 92 356 654 10;
#X obj 149 10 inlet~;
#X obj 169 237 block~ 1;
#X obj 149 102 rzero~ 1;
#X obj -34 355 +~;
#X obj -19 236 -~;
#X obj -34 537 delwrite~ \$0-buzz 1;
#X obj -34 11 delread~ \$0-buzz 0;
#X obj 160 581 outlet~;
#X obj 20 51 expr~ if($v1 <= $v2 \, 1 \, 0);
#X obj -34 174 rzero~ 1;
#X obj -13 491 tgl 15 1 empty empty empty 17 7 0 10 -262144 -1 -1 1
1;
#X obj -34 513 *~ 1;
#X obj -34 133 +~;
#X obj -19 288 *~;
#X obj -34 466 rpole~ 0.999999;
#X obj -19 263 max~ 0;
#X obj -34 383 -~ 0;
#X obj 41 288 *~;
#X obj 41 263 min~ 0;
#X obj 160 465 clip~ 0.0001 0.01;
#X obj -34 440 *~ 0.9;
#X obj -34 201 -~ 1e-06;
#X text 36 200 1-e05;
#X text 28 319 1.5;
#X text 104 411 0.0002;
#X obj -19 317 *~ 1.9;
#X obj -34 412 clip~ -2e-06 2e-06;
#X text 18 441 0.9;
#X obj 53 77 expr~ if($v1 >= $v2 + 0.01 \, 1 \, 0);
#X text 262 74 0.5;
#X obj 160 494 -~ 0.005;
#X obj 160 535 *~ 20;
#X connect 0 0 2 0;
#X connect 0 0 8 1;
#X connect 0 0 28 1;
#X connect 2 0 4 0;
#X connect 3 0 16 0;
#X connect 4 0 15 0;
#X connect 4 0 18 0;
#X connect 6 0 8 0;
#X connect 6 0 12 0;
#X connect 6 0 28 0;
#X connect 8 0 13 1;
#X connect 9 0 21 0;
#X connect 10 0 11 1;
#X connect 11 0 5 0;
#X connect 12 0 9 0;
#X connect 13 0 25 0;
#X connect 14 0 11 0;
#X connect 15 0 13 0;
#X connect 16 0 26 0;
#X connect 17 0 25 0;
#X connect 18 0 17 0;
#X connect 19 0 30 0;
#X connect 20 0 14 0;
#X connect 21 0 4 1;
#X connect 21 0 3 0;
#X connect 25 0 3 1;
#X connect 25 0 19 0;
#X connect 26 0 20 0;
#X connect 28 0 17 1;
#X connect 30 0 31 0;
#X connect 31 0 7 0;
