#N canvas 160 94 305 262 10;
#X obj 31 33 inlet~;
#X obj 31 195 *~ 0.5;
#X obj 31 220 outlet~;
#X obj 78 116 /;
#X obj 78 87 swap 500;
#X obj 121 13 inlet;
#X floatatom 78 141 5 0 0 0 - - -;
#X obj 78 165 delread~ \$0-comb;
#X obj 215 60 block~ 2;
#X obj 121 36 clip 5 10000;
#X obj 51 60 delwrite~ \$0-comb 200;
#X connect 0 0 1 0;
#X connect 0 0 10 0;
#X connect 1 0 2 0;
#X connect 3 0 6 0;
#X connect 4 0 3 0;
#X connect 4 1 3 1;
#X connect 5 0 9 0;
#X connect 6 0 7 0;
#X connect 7 0 1 0;
#X connect 9 0 4 0;
