#N canvas 807 199 388 270 10;
#X declare -path ../.;
#X obj 25 22 inlet~;
#X obj 25 58 *~ 1;
#X obj 40 92 *~;
#X obj 40 142 sqrt~;
#X obj 106 23 inlet;
#X obj 40 171 dynamics~ -12 3;
#X obj 25 198 *~;
#X obj 25 228 outlet~;
#X obj 127 197 outlet~;
#X obj 106 49 route attack release threshold ratio knee;
#X obj 40 118 attrel~ 20 100;
#X connect 0 0 1 0;
#X connect 1 0 2 0;
#X connect 1 0 2 1;
#X connect 1 0 6 0;
#X connect 2 0 10 0;
#X connect 3 0 5 0;
#X connect 4 0 9 0;
#X connect 5 0 6 1;
#X connect 5 1 8 0;
#X connect 6 0 7 0;
#X connect 9 0 10 1;
#X connect 9 1 10 2;
#X connect 9 2 5 1;
#X connect 9 3 5 2;
#X connect 9 4 5 3;
#X connect 10 0 3 0;
