#N canvas 242 83 321 269 10;
#X declare -path ../.;
#X declare -path ../.;
#X declare -path ../.;
#X obj 18 62 inlet~;
#X obj 79 18 inlet;
#X obj 33 98 envelope~ 10 100;
#X obj 18 163 *~;
#X obj 18 191 outlet~;
#X obj 79 44 route attack decay threshold ratio;
#X obj 18 229 declare -path ../.;
#X obj 33 134 dynamics~ -12 3;
#X obj 157 97 defarg \$1 -12;
#X obj 244 97 defarg \$2 3;
#X obj 236 69 defarg \$4 10;
#X obj 157 69 defarg \$3 10;
#X connect 0 0 2 0;
#X connect 0 0 3 0;
#X connect 1 0 5 0;
#X connect 2 0 7 0;
#X connect 3 0 4 0;
#X connect 5 0 2 1;
#X connect 5 1 2 2;
#X connect 5 2 7 1;
#X connect 5 3 7 2;
#X connect 7 0 3 1;
#X connect 8 0 7 1;
#X connect 9 0 7 2;
#X connect 10 0 2 2;
#X connect 11 0 2 1;
