#N canvas 70 474 183 221 10;
#X obj -31 39 inlet~;
#X obj -31 165 biquad~;
#X obj -13 138 lowpass;
#X obj 46 138 highpass;
#X obj 27 166 biquad~;
#X obj 27 63 route 0;
#X msg 27 87 1000;
#X obj 27 17 loadbang;
#X obj 27 40 f \$1;
#X msg 27 112 \$1 254.31;
#X obj 71 87 inlet;
#X obj -31 189 outlet~;
#X obj 27 189 outlet~;
#X obj -16 85 *~ -1;
#X connect 0 0 1 0;
#X connect 0 0 13 0;
#X connect 1 0 11 0;
#X connect 2 0 1 0;
#X connect 3 0 4 0;
#X connect 4 0 12 0;
#X connect 5 0 6 0;
#X connect 5 1 9 0;
#X connect 6 0 9 0;
#X connect 7 0 8 0;
#X connect 8 0 5 0;
#X connect 9 0 2 0;
#X connect 9 0 3 0;
#X connect 10 0 9 0;
#X connect 13 0 4 0;
