#N canvas 635 116 124 176 10;
#X obj 20 136 outlet;
#X obj 20 39 f \$1;
#X obj 20 17 loadbang;
#X obj 59 109 f \$1;
#X obj 20 62 route 0;
#X obj 20 109 f \$2;
#X msg 59 86 bang;
#X connect 1 0 4 0;
#X connect 2 0 1 0;
#X connect 3 0 0 0;
#X connect 4 0 5 0;
#X connect 4 1 6 0;
#X connect 5 0 0 0;
#X connect 6 0 3 0;
