#N canvas 942 22 467 261 10;
#X declare -path ../.;
#X obj -70 -59 inlet~;
#X obj -70 37 outlet~;
#X obj 29 -39 inlet;
#X obj 74 -16 inlet;
#X obj -66 152 declare -path ../.;
#X obj 29 -62 defarg \$1 -12;
#X obj 74 -39 defarg \$2 3;
#N canvas 625 88 224 281 comp 0;
#X obj -6 -19 rmstodb~;
#X obj -6 4 -~ 40;
#X obj -6 75 -~;
#X obj 9 51 -~ 100;
#X obj -6 120 dbtorms~;
#X obj -6 98 +~ 100;
#X obj -6 -47 inlet~;
#X obj -6 146 outlet~;
#N canvas 630 331 234 275 meters 0;
#X obj 41 23 inlet~;
#X obj 88 23 inlet~;
#X obj 90 134 snapshot~;
#X obj 90 112 metro 50;
#X obj 90 67 loadbang;
#X obj 90 90 tgl 15 0 empty empty empty 17 7 0 10 -262144 -1 -1 1 1
;
#X obj 90 201 s \$0-input-level;
#X obj 90 157 rmstodb;
#X obj 90 178 - 100;
#X obj 26 201 snapshot~;
#X obj 26 224 s \$0-output-level;
#X connect 0 0 2 0;
#X connect 1 0 9 0;
#X connect 2 0 7 0;
#X connect 3 0 2 0;
#X connect 3 0 9 0;
#X connect 4 0 5 0;
#X connect 5 0 3 0;
#X connect 7 0 8 0;
#X connect 8 0 6 0;
#X connect 9 0 10 0;
#X restore -79 75 pd meters;
#X obj -6 26 tabread4~ \$0-dynamics;
#X obj 71 146 outlet~;
#X connect 0 0 1 0;
#X connect 0 0 3 0;
#X connect 1 0 9 0;
#X connect 2 0 5 0;
#X connect 2 0 10 0;
#X connect 3 0 2 1;
#X connect 4 0 7 0;
#X connect 5 0 4 0;
#X connect 6 0 0 0;
#X connect 6 0 8 0;
#X connect 9 0 2 0;
#X connect 9 0 8 1;
#X restore -70 -32 pd comp;
#N canvas 884 278 353 349 curve 1;
#X obj 33 -4 inlet;
#X obj 84 -4 inlet;
#X obj 33 90 clip -60 0;
#X obj 150 276 + 60;
#X obj 33 245 f;
#X obj 84 45 t b f;
#X obj 117 248 f;
#N canvas 182 53 210 177 counter 0;
#X obj 131 78 + 1;
#X obj 92 78 f;
#X msg 92 50 -60;
#X obj 18 25 route 0;
#X msg 57 50 bang;
#X obj 92 102 t f f f;
#X obj 131 128 outlet;
#X obj 92 22 inlet;
#X connect 0 0 1 1;
#X connect 1 0 5 0;
#X connect 2 0 1 0;
#X connect 3 1 4 0;
#X connect 4 0 1 0;
#X connect 5 0 3 0;
#X connect 5 1 0 0;
#X connect 5 2 6 0;
#X connect 7 0 2 0;
#X restore 33 145 pd counter;
#X obj 33 118 t b f f;
#X obj 33 169 t f f f;
#X obj 33 300 tabwrite \$0-dynamics;
#X obj 220 48 symbol \$0-dynamics;
#X msg 226 7 bang;
#X msg 220 71 \; \$1 xticks 0 2 5;
#X msg 220 104 \; \$1 yticks 0 2 5;
#X obj 267 8 loadbang;
#X obj 64 245 f;
#N canvas 492 208 382 303 knee 1;
#X obj 25 263 outlet;
#X obj 25 30 inlet in;
#X obj 92 30 inlet threshold;
#X obj 200 30 inlet ratio;
#X obj 280 30 inlet knee;
#X obj 25 237 +;
#X obj 200 105 /;
#X msg 200 83 1 \$1;
#X obj 52 209 *;
#X obj 25 59 t f f;
#X obj 52 84 -;
#X obj 52 108 +;
#X obj 82 84 / 2;
#X obj 52 133 t f f;
#X obj 52 158 *;
#X obj 52 183 /;
#X obj 87 158 * 2;
#X obj 200 127 - 1;
#X connect 1 0 9 0;
#X connect 2 0 10 1;
#X connect 3 0 7 0;
#X connect 4 0 12 0;
#X connect 4 0 16 0;
#X connect 5 0 0 0;
#X connect 6 0 17 0;
#X connect 7 0 6 0;
#X connect 8 0 5 1;
#X connect 9 0 5 0;
#X connect 9 1 10 0;
#X connect 10 0 11 0;
#X connect 11 0 13 0;
#X connect 12 0 11 1;
#X connect 13 0 14 0;
#X connect 13 1 14 1;
#X connect 14 0 15 0;
#X connect 15 0 8 0;
#X connect 16 0 15 1;
#X connect 17 0 8 1;
#X restore 79 219 pd knee;
#N canvas 606 213 311 233 above 0;
#X obj 25 192 outlet;
#X obj 25 30 inlet in;
#X obj 92 30 inlet threshold;
#X obj 200 30 inlet ratio;
#X obj 25 115 -;
#X obj 25 138 *;
#X obj 25 162 +;
#X obj 200 79 /;
#X msg 200 57 1 \$1;
#X connect 1 0 4 0;
#X connect 2 0 4 1;
#X connect 2 0 6 1;
#X connect 3 0 8 0;
#X connect 4 0 5 0;
#X connect 5 0 6 0;
#X connect 6 0 0 0;
#X connect 7 0 5 1;
#X connect 8 0 7 0;
#X restore 132 219 pd above;
#X obj 139 -4 inlet;
#X obj 84 21 max 1;
#X obj 139 45 t b f;
#N canvas 54 248 313 369 zone 0;
#X obj 35 40 inlet in;
#X obj 102 40 inlet threshold;
#X obj 214 40 inlet knee;
#X obj 35 70 -;
#X obj 214 64 / 2;
#X obj 50 122 * -1;
#X obj 35 324 outlet below;
#X obj 121 324 outlet knee;
#X obj 35 144 <=;
#X obj 54 215 >;
#X obj 35 94 t f f;
#X obj 35 167 sel 1 0;
#X obj 54 190 f;
#X obj 54 239 sel 0 1;
#X obj 200 324 outlet above;
#X connect 0 0 3 0;
#X connect 1 0 3 1;
#X connect 2 0 4 0;
#X connect 3 0 10 0;
#X connect 4 0 5 0;
#X connect 4 0 9 1;
#X connect 5 0 8 1;
#X connect 8 0 11 0;
#X connect 9 0 13 0;
#X connect 10 0 8 0;
#X connect 10 1 12 1;
#X connect 11 0 6 0;
#X connect 11 1 12 0;
#X connect 12 0 9 0;
#X connect 13 0 7 0;
#X connect 13 1 14 0;
#X restore 33 203 pd zone;
#X obj 139 21 clip 0 24;
#X connect 0 0 2 0;
#X connect 1 0 20 0;
#X connect 2 0 8 0;
#X connect 3 0 10 1;
#X connect 4 0 10 0;
#X connect 5 0 2 0;
#X connect 5 1 18 2;
#X connect 5 1 17 2;
#X connect 6 0 10 0;
#X connect 7 0 9 0;
#X connect 8 0 7 0;
#X connect 8 1 22 1;
#X connect 8 2 18 1;
#X connect 8 2 17 1;
#X connect 9 0 22 0;
#X connect 9 1 4 1;
#X connect 9 1 18 0;
#X connect 9 1 17 0;
#X connect 9 2 3 0;
#X connect 11 0 13 0;
#X connect 11 0 14 0;
#X connect 12 0 11 0;
#X connect 15 0 11 0;
#X connect 16 0 10 0;
#X connect 17 0 16 1;
#X connect 18 0 6 1;
#X connect 19 0 23 0;
#X connect 20 0 5 0;
#X connect 21 0 2 0;
#X connect 21 1 17 3;
#X connect 21 1 22 2;
#X connect 22 0 4 0;
#X connect 22 1 16 0;
#X connect 22 2 6 0;
#X connect 23 0 21 0;
#X restore 29 13 pd curve;
#N canvas 0 22 450 300 (subpatch) 0;
#X array \$0-dynamics 61 float 1;
#A 0 -60 -59 -58 -57 -56 -55 -54 -53 -52 -51 -50 -49 -48 -47 -46 -45
-44 -43 -42 -41 -40 -39 -38 -37 -36.004 -35.0439 -34.1269 -33.253 -32.422
-31.6342 -30.8893 -30.1875 -29.5287 -28.913 -28.3403 -27.8107 -27.3241
-26.8805 -26.48 -26.1225 -25.808 -25.5366 -25.3043 -25.0789 -24.8536
-24.6283 -24.403 -24.1777 -23.9524 -23.7271 -23.5018 -23.2765 -23.0512
-22.8259 -22.6006 -22.3753 -22.15 -21.9247 -21.6994 -21.474 -21.2487
;
#X coords 0 0 60 -60 200 200 1;
#X restore 178 -60 graph;
#X obj 160 -60 vsl 15 200 -60 0 0 0 empty \$0-output-level empty 0
-9 0 10 -262144 -1 -1 332 1;
#X obj 178 143 hsl 200 15 -60 0 0 0 empty \$0-input-level empty -2
-8 0 10 -262144 -1 -1 0 1;
#X obj 101 74 vsl 20 64 -36 0 0 0 empty \$0-grm GRM 0 -9 0 10 -262144
-1 -1 6300 1;
#X obj -11 129 s \$0-grm;
#X text 129 67 0;
#X text 123 87 -12;
#X text 123 108 -24;
#X text 123 128 -36;
#X obj -11 35 loadbang;
#X obj -11 59 tgl 15 0 empty empty empty 17 7 0 10 -262144 -1 -1 1
1;
#X obj -11 105 snapshot~;
#X obj -11 81 metro 10;
#X obj -31 14 outlet~;
#X obj 118 -16 inlet;
#X connect 0 0 7 0;
#X connect 2 0 8 0;
#X connect 3 0 8 1;
#X connect 5 0 8 0;
#X connect 6 0 8 1;
#X connect 7 0 1 0;
#X connect 7 1 22 0;
#X connect 7 1 20 0;
#X connect 18 0 19 0;
#X connect 19 0 21 0;
#X connect 20 0 13 0;
#X connect 21 0 20 0;
#X connect 23 0 8 2;
