#N canvas 179 22 341 369 10;
#X obj 25 187 inlet~;
#X obj 25 322 outlet~;
#X obj 25 243 -~;
#X obj 25 271 *~;
#N canvas 166 105 145 139 allpass 0;
#X obj 23 71 rpole~;
#X obj 23 46 rzero_rev~;
#X obj 23 22 inlet~;
#X obj 23 94 outlet~;
#X obj 80 22 inlet;
#X connect 0 0 3 0;
#X connect 1 0 0 0;
#X connect 2 0 1 0;
#X connect 4 0 1 1;
#X connect 4 0 0 1;
#X restore 40 217 pd allpass;
#N canvas 756 272 142 151 a-b_a+b 0;
#X obj 30 71 -;
#X obj 75 43 t f f;
#X obj 87 72 +;
#X obj 30 43 t f f;
#X obj 30 95 /;
#X obj 30 18 inlet;
#X obj 75 18 inlet;
#X obj 30 118 outlet;
#X connect 0 0 4 0;
#X connect 1 0 0 1;
#X connect 1 1 2 1;
#X connect 2 0 4 1;
#X connect 3 0 0 0;
#X connect 3 1 2 0;
#X connect 4 0 7 0;
#X connect 5 0 3 0;
#X connect 6 0 1 0;
#X restore 97 170 pd a-b_a+b;
#N canvas 200 359 138 175 f-to-tanw0 0;
#X obj 16 12 inlet;
#X obj 16 35 * 3.14159;
#X obj 55 78 samplerate~;
#X obj 55 56 loadbang;
#X obj 16 144 outlet;
#X obj 16 122 tan;
#X obj 16 100 / 44100;
#X connect 0 0 1 0;
#X connect 1 0 6 0;
#X connect 2 0 6 1;
#X connect 3 0 2 0;
#X connect 5 0 4 0;
#X connect 6 0 5 0;
#X restore 97 96 pd f-to-tanw0;
#N canvas 920 298 122 146 db-to-gain 0;
#X obj 26 21 inlet;
#X obj 26 44 / 20;
#X obj 26 121 outlet;
#X obj 26 71 swap 10;
#X obj 26 98 pow;
#X connect 0 0 1 0;
#X connect 1 0 3 0;
#X connect 3 0 4 0;
#X connect 3 1 4 1;
#X connect 4 0 2 0;
#X restore 214 122 pd db-to-gain;
#X obj 97 73 f \$1;
#X obj 187 73 f \$2;
#X obj 178 218 * 0.5;
#X obj 178 195 - 1;
#X obj 25 297 +~;
#X obj 97 193 * -1;
#N canvas 920 298 122 146 db-to-gain 0;
#X obj 26 21 inlet;
#X obj 26 44 / 20;
#X obj 26 121 outlet;
#X obj 26 71 swap 10;
#X obj 26 98 pow;
#X connect 0 0 1 0;
#X connect 1 0 3 0;
#X connect 3 0 4 0;
#X connect 3 1 4 1;
#X connect 4 0 2 0;
#X restore 154 145 pd db-to-gain;
#X obj 154 123 abs;
#X obj 187 49 inlet gain;
#X obj 97 49 inlet freq;
#X obj 187 96 t f f;
#X obj 97 122 t f b;
#X obj 178 170 f;
#X obj 143 -2 loadbang;
#X obj 143 23 t b b;
#X connect 0 0 2 0;
#X connect 0 0 4 0;
#X connect 0 0 12 1;
#X connect 2 0 3 0;
#X connect 3 0 12 0;
#X connect 4 0 2 1;
#X connect 5 0 13 0;
#X connect 6 0 19 0;
#X connect 7 0 20 1;
#X connect 8 0 6 0;
#X connect 9 0 18 0;
#X connect 10 0 3 1;
#X connect 11 0 10 0;
#X connect 12 0 1 0;
#X connect 13 0 4 1;
#X connect 14 0 5 1;
#X connect 15 0 14 0;
#X connect 16 0 9 0;
#X connect 17 0 8 0;
#X connect 18 0 15 0;
#X connect 18 1 7 0;
#X connect 19 0 5 0;
#X connect 19 1 20 0;
#X connect 20 0 11 0;
#X connect 21 0 22 0;
#X connect 22 0 8 0;
#X connect 22 1 9 0;
