#N canvas 349 273 333 253 10;
#X obj 25 42 abs~;
#X obj 29 121 sig~ 1;
#X obj 29 143 /~;
#X obj 29 165 min~ 1;
#X obj 14 187 *~;
#X obj 14 19 inlet~;
#X obj 14 211 outlet~;
#X obj 221 133 dbtorms;
#X obj 221 65 loadbang;
#X obj 221 87 f \$1;
#X obj 136 -3 inlet;
#X obj 136 21 route threshold attack release;
#X obj 221 110 + 100;
#X obj 44 98 attackrelease~ \$2 \$3;
#X obj 70 19 inlet~;
#X obj 70 187 *~;
#X obj 70 211 outlet~;
#X obj 44 74 max~;
#X obj 79 42 abs~;
#X connect 0 0 17 0;
#X connect 1 0 2 0;
#X connect 2 0 3 0;
#X connect 3 0 4 1;
#X connect 3 0 15 1;
#X connect 4 0 6 0;
#X connect 5 0 4 0;
#X connect 5 0 0 0;
#X connect 7 0 1 0;
#X connect 8 0 9 0;
#X connect 9 0 12 0;
#X connect 10 0 11 0;
#X connect 11 0 9 0;
#X connect 11 1 13 1;
#X connect 11 2 13 2;
#X connect 12 0 7 0;
#X connect 13 0 2 1;
#X connect 14 0 15 0;
#X connect 14 0 18 0;
#X connect 15 0 16 0;
#X connect 17 0 13 0;
#X connect 18 0 17 1;
