#N canvas 776 22 548 274 10;
#X msg 205 -45 0.7;
#X obj 19 153 biquad~;
#X obj 20 97 noise~;
#X obj 19 120 *~ 0.1;
#X obj 205 101 lowpass;
#X obj 71 -22 hsl 128 15 20 20000 1 0 empty empty empty -2 -8 0 10
-262144 -1 -1 7100 1;
#X floatatom 68 -3 10 0 0 0 - - -;
#X obj 19 181 dac~;
#X obj 208 -22 hsl 128 15 0.25 10 1 0 empty empty empty -2 -8 0 10
-262144 -1 -1 3545 1;
#X floatatom 205 -3 5 0 0 0 - - -;
#X msg 205 124 set \$1 \$2 \$3 \$4 \$5;
#X msg 205 148 1.85225 -0.869381 0.00428368 0.00856735 0.00428368;
#X msg 68 124 set \$1 \$2 \$3 \$4 \$5;
#X msg 205 171 1.8073 -0.824015 0.00417971 0.00835942 0.00417971;
#X obj 110 74 t b f;
#X obj 205 74 f;
#X obj 244 49 swap 100;
#X obj 244 75 /;
#X obj 205 23 t b f;
#X obj 68 100 lowpasscoefs;
#X connect 0 0 8 0;
#X connect 1 0 7 0;
#X connect 1 0 7 1;
#X connect 2 0 3 0;
#X connect 3 0 1 0;
#X connect 4 0 10 0;
#X connect 5 0 6 0;
#X connect 6 0 15 0;
#X connect 6 0 19 0;
#X connect 8 0 9 0;
#X connect 9 0 14 0;
#X connect 9 0 18 0;
#X connect 10 0 11 0;
#X connect 12 0 13 0;
#X connect 14 0 19 0;
#X connect 14 1 19 1;
#X connect 15 0 4 0;
#X connect 16 0 17 0;
#X connect 16 1 17 1;
#X connect 17 0 4 1;
#X connect 18 0 15 0;
#X connect 18 1 16 0;
#X connect 19 0 1 0;
#X connect 19 0 12 0;
