#N canvas 785 144 271 499 10;
#X obj 47 3 inlet freq;
#X obj 140 18 inlet Q;
#X obj 43 415 pack 0 0 0 0;
#X obj 43 463 outlet;
#N canvas 878 320 119 234 toC 0;
#X obj 13 13 inlet;
#X obj 13 105 /;
#X obj 28 83 samplerate~;
#X obj 28 61 loadbang;
#X obj 13 197 outlet;
#X obj 13 37 * 3.14159;
#X obj 13 128 tan;
#X obj 13 151 swap 1;
#X obj 13 174 /;
#X connect 0 0 5 0;
#X connect 1 0 6 0;
#X connect 2 0 1 1;
#X connect 3 0 2 0;
#X connect 5 0 1 0;
#X connect 6 0 7 0;
#X connect 7 0 8 0;
#X connect 7 1 8 1;
#X connect 8 0 4 0;
#X restore 47 54 pd toC;
#X obj 145 360 * 2;
#X obj 97 289 /;
#X msg 43 438 \$1 \$2 \$3 \$4 \$3;
#X obj 76 175 + 1;
#X obj 48 126 *;
#X obj 48 103 t f f;
#N canvas 909 237 111 177 QtoD 0;
#X obj 25 20 inlet;
#X obj 25 129 outlet;
#X obj 25 48 * 2;
#X obj 25 74 swap 1;
#X obj 25 101 /;
#X connect 0 0 2 0;
#X connect 2 0 3 0;
#X connect 3 0 4 0;
#X connect 3 1 4 1;
#X connect 4 0 1 0;
#X restore 140 98 pd QtoD;
#X obj 125 148 * 2;
#X obj 97 238 +;
#X obj 125 123 *;
#X obj 60 242 -;
#X text 157 314 b0;
#X obj 38 339 * 2;
#X obj 18 275 swap 1;
#X obj 18 301 -;
#X obj 23 363 *;
#X obj 66 356 *;
#X obj 97 315 t f f f f;
#X obj 125 173 t f f;
#X obj 76 197 t f f;
#X obj 47 78 t f f;
#X obj 48 150 t f f;
#X obj 97 266 swap 1;
#X obj 47 30 f;
#X obj 15 391 * -1;
#X obj 60 387 * -1;
#X obj 194 24 f \$1;
#X obj 194 47 sel 0;
#X obj 194 70 f 0.5;
#X obj 194 2 loadbang;
#X connect 0 0 28 0;
#X connect 1 0 11 0;
#X connect 2 0 7 0;
#X connect 4 0 25 0;
#X connect 5 0 2 3;
#X connect 6 0 22 0;
#X connect 7 0 3 0;
#X connect 8 0 24 0;
#X connect 9 0 26 0;
#X connect 10 0 9 0;
#X connect 10 1 9 1;
#X connect 11 0 14 1;
#X connect 12 0 23 0;
#X connect 13 0 27 0;
#X connect 14 0 12 0;
#X connect 15 0 21 0;
#X connect 17 0 20 1;
#X connect 18 0 19 0;
#X connect 18 1 19 1;
#X connect 19 0 20 0;
#X connect 20 0 29 0;
#X connect 21 0 30 0;
#X connect 22 0 17 0;
#X connect 22 1 21 1;
#X connect 22 2 2 2;
#X connect 22 3 5 0;
#X connect 23 0 15 1;
#X connect 23 1 13 1;
#X connect 24 0 15 0;
#X connect 24 1 13 0;
#X connect 25 0 10 0;
#X connect 25 1 14 0;
#X connect 26 0 18 0;
#X connect 26 1 8 0;
#X connect 27 0 6 0;
#X connect 27 1 6 1;
#X connect 28 0 4 0;
#X connect 29 0 2 0;
#X connect 30 0 2 1;
#X connect 31 0 32 0;
#X connect 32 0 33 0;
#X connect 32 1 11 0;
#X connect 33 0 11 0;
#X connect 34 0 31 0;
