#N canvas 857 176 370 321 10;
#X declare -path ../.;
#X obj 9 58 inlet~;
#X obj 54 58 inlet~;
#X obj 28 118 *~ 0.9;
#X obj 156 120 *~ 0.9;
#N canvas 44 464 236 201 rotmatrix 1;
#X obj 31 89 inlet~;
#X obj 97 89 inlet~;
#X obj 150 -11 inlet;
#X obj 31 147 outlet~;
#X obj 97 147 outlet~;
#X obj 31 117 *~ 1;
#X obj 65 117 *~ 0;
#X obj 129 117 *~ 1;
#X obj 97 117 *~ 0;
#X obj 150 58 cos;
#X obj 179 58 sin;
#X obj 179 83 * -1;
#X obj 150 35 * 0.785398;
#X floatatom 181 120 5 0 0 0 - - -;
#X obj 150 13 / 45;
#X connect 0 0 5 0;
#X connect 0 0 6 0;
#X connect 1 0 7 0;
#X connect 1 0 8 0;
#X connect 2 0 14 0;
#X connect 5 0 3 0;
#X connect 6 0 4 0;
#X connect 7 0 4 0;
#X connect 8 0 3 0;
#X connect 9 0 5 1;
#X connect 9 0 7 1;
#X connect 9 0 13 0;
#X connect 10 0 6 1;
#X connect 10 0 11 0;
#X connect 11 0 8 1;
#X connect 12 0 9 0;
#X connect 12 0 10 0;
#X connect 14 0 12 0;
#X restore 28 142 pd rotmatrix;
#X obj 28 178 delwrite~ \$0-left 1000;
#X obj 170 178 delwrite~ \$0-right 1000;
#X obj 138 -40 inlet;
#X obj 138 -18 route delay feedback angle;
#X obj 13 239 declare -path ../.;
#X obj 134 6 defarg \$1 200;
#X obj 28 93 delread~ \$0-left 200;
#X obj 156 93 delread~ \$0-right 200;
#X obj 12 203 outlet~;
#X obj 61 203 outlet~;
#X obj 170 25 defarg \$2 0;
#X obj 210 45 defarg \$3 0;
#X connect 0 0 5 0;
#X connect 1 0 6 0;
#X connect 2 0 4 0;
#X connect 3 0 4 1;
#X connect 4 0 5 0;
#X connect 4 1 6 0;
#X connect 7 0 8 0;
#X connect 8 0 11 0;
#X connect 8 0 12 0;
#X connect 8 1 2 1;
#X connect 8 1 3 1;
#X connect 8 2 4 2;
#X connect 10 0 11 0;
#X connect 10 0 12 0;
#X connect 11 0 2 0;
#X connect 11 0 13 0;
#X connect 12 0 3 0;
#X connect 12 0 14 0;
#X connect 15 0 2 1;
#X connect 15 0 3 1;
#X connect 16 0 4 2;
