#N canvas 183 131 352 322 10;
#X obj 19 15 inlet~;
#X obj 72 83 clip~;
#X obj 85 56 * -1;
#X obj 19 116 -~;
#X obj 19 141 /~;
#X obj 19 213 *~;
#X obj 174 63 -;
#X obj 85 11 r \$0-ampl-low;
#X obj 85 33 t f f;
#X obj 189 0 r \$0-ampl-low;
#X obj 174 -23 r \$0-ampl-high;
#X obj 72 266 outlet~;
#X obj 157 194 inlet;
#X obj 157 227 f \$1;
#X obj 157 253 s \$0-ampl-low;
#X obj 189 27 t b f;
#X obj 250 194 inlet;
#X obj 250 227 f \$2;
#X obj 250 253 s \$0-ampl-high;
#X obj 197 171 loadbang;
#X obj 197 195 t b b;
#X obj 19 165 clip~ -0.25 0.25;
#X obj 174 86 t f f;
#X obj 174 109 * 6.28319;
#N canvas 293 113 109 141 sin~ 0;
#X obj 16 14 inlet~;
#X obj 16 45 -~ 0.25;
#X obj 16 76 cos~;
#X obj 16 103 outlet~;
#X connect 0 0 1 0;
#X connect 1 0 2 0;
#X connect 2 0 3 0;
#X restore 19 189 pd sin~;
#X connect 0 0 1 0;
#X connect 0 0 3 0;
#X connect 1 0 3 1;
#X connect 1 0 11 0;
#X connect 2 0 1 1;
#X connect 3 0 4 0;
#X connect 4 0 21 0;
#X connect 5 0 11 0;
#X connect 6 0 22 0;
#X connect 7 0 8 0;
#X connect 8 0 2 0;
#X connect 8 1 1 2;
#X connect 9 0 15 0;
#X connect 10 0 6 0;
#X connect 12 0 13 0;
#X connect 13 0 14 0;
#X connect 15 0 6 0;
#X connect 15 1 6 1;
#X connect 16 0 17 0;
#X connect 17 0 18 0;
#X connect 19 0 20 0;
#X connect 20 0 13 0;
#X connect 20 1 17 0;
#X connect 21 0 24 0;
#X connect 22 0 23 0;
#X connect 22 1 5 1;
#X connect 23 0 4 1;
#X connect 24 0 5 0;
