#N canvas 330 307 431 266 10;
#X obj 21 58 -~ 0.5;
#N canvas 0 22 450 300 (subpatch) 0;
#X array \$0-amplitude 100 float 0;
#X coords 0 2 99 -2 200 200 1;
#X restore 192 39 graph;
#X obj 21 210 tabwrite~ \$0-amplitude;
#X msg 35 159 1;
#X obj 35 136 loadbang;
#X obj 35 182 metro 200;
#X obj 21 33 phasor~ 400;
#X msg 129 59 2;
#X obj 21 109 softclip~ 1 2;
#X msg 95 43 1.5;
#X obj 21 83 *~ 6;
#X msg 129 81 1.5;
#X msg 94 84 0;
#X msg 95 63 0.7;
#X msg 141 128 1;
#X connect 0 0 10 0;
#X connect 3 0 5 0;
#X connect 4 0 3 0;
#X connect 5 0 2 0;
#X connect 6 0 0 0;
#X connect 7 0 8 2;
#X connect 8 0 2 0;
#X connect 9 0 8 1;
#X connect 10 0 8 0;
#X connect 11 0 8 2;
#X connect 12 0 8 1;
#X connect 13 0 8 1;
#X connect 14 0 8 2;
