#N canvas 189 437 280 267 10;
#X obj 13 101 inlet~;
#X obj 13 227 outlet~;
#X obj 46 136 cos;
#X obj 140 83 + 1;
#X obj 140 63 inlet;
#X obj 86 101 inlet~;
#X obj 86 227 outlet~;
#X obj 127 136 sin;
#X obj 127 177 line~;
#X obj 106 18 loadbang;
#X msg 106 63 0;
#X obj 13 201 *~;
#X obj 86 201 *~;
#X obj 46 178 line~;
#X obj 46 157 pack;
#X obj 127 157 pack;
#X obj 140 104 * 0.785398;
#X obj 218 71 f \$1;
#X obj 106 40 t b b;
#X obj 218 94 route 0;
#X msg 218 117 50;
#X connect 0 0 11 0;
#X connect 2 0 14 0;
#X connect 3 0 16 0;
#X connect 4 0 3 0;
#X connect 5 0 12 0;
#X connect 7 0 15 0;
#X connect 8 0 12 1;
#X connect 9 0 18 0;
#X connect 10 0 3 0;
#X connect 11 0 1 0;
#X connect 12 0 6 0;
#X connect 13 0 11 1;
#X connect 14 0 13 0;
#X connect 15 0 8 0;
#X connect 16 0 7 0;
#X connect 16 0 2 0;
#X connect 17 0 19 0;
#X connect 18 0 10 0;
#X connect 18 1 17 0;
#X connect 19 0 20 0;
#X connect 19 1 14 1;
#X connect 19 1 15 1;
#X connect 20 0 14 1;
#X connect 20 0 15 1;
