#N canvas 715 22 539 482 10;
#X obj 64 47 inlet~;
#X obj 121 188 delwrite~ \$0-delay 2000;
#X obj 119 371 vd~ \$0-delay;
#X obj 64 437 outlet~;
#X obj 198 48 inlet delay;
#X obj 119 218 ../control/noiselfo~ 0.5;
#X obj 282 48 inlet feedback;
#X obj 387 48 inlet mix;
#X obj 235 246 sig~ \$1;
#X obj 121 110 softclip~ 0 0.5;
#X obj 121 143 hip~ 200;
#X obj 121 165 lop~ 12000;
#X obj 339 362 vd~ \$0-delay2;
#X obj 320 108 softclip~ 0 0.5;
#X obj 320 141 hip~ 200;
#X obj 320 163 lop~ 12000;
#X obj 320 186 delwrite~ \$0-delay2 2000;
#X obj 339 216 ../control/noiselfo~ 0.5;
#X obj 284 432 outlet~;
#X obj 130 47 inlet~;
#X obj 235 270 lop~ 5;
#X obj 235 293 lop~ 5;
#X obj 339 326 *~;
#X obj 119 334 *~;
#X obj 64 407 ../audio/blend~ \$3;
#X obj 284 404 ../audio/blend~ \$3;
#X obj 339 242 *~ 0.015;
#X obj 119 248 *~ 0.015;
#X msg 239 83 \$1 50;
#X obj 213 138 *~;
#X obj 464 49 loadbang;
#X obj 464 73 f \$2;
#X obj 239 107 line~;
#X obj 260 137 *~;
#X connect 0 0 9 0;
#X connect 0 0 24 0;
#X connect 2 0 24 1;
#X connect 2 0 29 0;
#X connect 4 0 8 0;
#X connect 5 0 27 0;
#X connect 6 0 28 0;
#X connect 7 0 24 2;
#X connect 7 0 25 2;
#X connect 8 0 20 0;
#X connect 9 0 10 0;
#X connect 10 0 11 0;
#X connect 11 0 1 0;
#X connect 12 0 25 1;
#X connect 12 0 33 0;
#X connect 13 0 14 0;
#X connect 14 0 15 0;
#X connect 15 0 16 0;
#X connect 17 0 26 0;
#X connect 19 0 13 0;
#X connect 19 0 25 0;
#X connect 20 0 21 0;
#X connect 21 0 22 0;
#X connect 21 0 23 1;
#X connect 21 0 12 0;
#X connect 21 0 2 0;
#X connect 22 0 12 0;
#X connect 23 0 2 0;
#X connect 24 0 3 0;
#X connect 25 0 18 0;
#X connect 26 0 22 1;
#X connect 27 0 23 0;
#X connect 28 0 32 0;
#X connect 29 0 13 0;
#X connect 30 0 31 0;
#X connect 31 0 28 0;
#X connect 32 0 29 1;
#X connect 32 0 33 1;
#X connect 33 0 9 0;
