#N canvas 138 133 381 390 10;
#X obj 54 40 inlet~;
#X obj 111 178 delwrite~ \$0-delay 2000;
#X obj 109 287 vd~ \$0-delay;
#X obj 54 348 outlet~;
#X obj 129 40 inlet delay;
#X obj 157 206 ../control/noiselfo~ 0.5;
#X obj 209 40 inlet feedback;
#X obj 248 67 inlet mix;
#X obj 240 116 *~ \$2;
#X obj 109 206 sig~ \$1;
#X obj 54 318 ../audio/blend~ 0.5;
#X obj 111 100 softclip~ 0 0.5;
#X obj 157 232 *~ 15;
#X obj 111 133 hip~ 200;
#X obj 111 155 lop~ 12000;
#X connect 0 0 10 0;
#X connect 0 0 11 0;
#X connect 2 0 8 0;
#X connect 2 0 10 1;
#X connect 4 0 9 0;
#X connect 5 0 12 0;
#X connect 6 0 8 1;
#X connect 7 0 10 2;
#X connect 8 0 11 0;
#X connect 9 0 2 0;
#X connect 10 0 3 0;
#X connect 11 0 13 0;
#X connect 12 0 2 0;
#X connect 13 0 14 0;
#X connect 14 0 1 0;
