#N canvas 260 89 158 276 10;
#X obj 16 14 inlet;
#X obj 43 202 exp;
#X obj 43 177 * -2.2;
#X obj 43 226 outlet;
#X obj 43 83 samplerate~;
#X obj 43 60 t b f;
#X obj 43 106 *;
#X obj 43 129 swap 1000;
#X obj 43 153 /;
#X obj 16 37 sel 0;
#X obj 16 202 f 0;
#X connect 0 0 9 0;
#X connect 1 0 3 0;
#X connect 2 0 1 0;
#X connect 4 0 6 0;
#X connect 5 0 4 0;
#X connect 5 1 6 1;
#X connect 6 0 7 0;
#X connect 7 0 8 0;
#X connect 7 1 8 1;
#X connect 8 0 2 0;
#X connect 9 0 10 0;
#X connect 9 1 5 0;
#X connect 10 0 3 0;
