#N canvas 260 89 210 312 10;
#X obj 16 14 inlet~;
#X obj 16 280 outlet~;
#X obj 91 42 max~ 0.001;
#X obj 91 170 *~ 0;
#X obj 112 117 samplerate~;
#X obj 112 94 loadbang;
#X obj 24 170 sig~ 1000;
#X obj 76 195 /~;
#X obj 112 144 / -2.2;
#X obj 76 220 exp~;
#X obj 16 42 *~ 1e+10;
#X obj 16 65 min~ 1;
#X obj 16 255 *~;
#X connect 0 0 2 0;
#X connect 0 0 10 0;
#X connect 2 0 3 0;
#X connect 3 0 7 1;
#X connect 4 0 8 0;
#X connect 5 0 4 0;
#X connect 6 0 7 0;
#X connect 7 0 9 0;
#X connect 8 0 3 1;
#X connect 9 0 12 1;
#X connect 10 0 11 0;
#X connect 11 0 12 0;
#X connect 12 0 1 0;
