#N canvas 698 275 587 507 10;
#X obj 23 179 block~ 1;
#X obj 248 -3 inlet~;
#X obj 248 135 +~;
#X obj 296 110 *~;
#X obj 296 -3 inlet~ delay;
#X obj 414 21 inlet~ feedback;
#X obj 419 114 sig~ \$1;
#X obj 247 271 *~;
#X obj 379 -3 inlet~ blend;
#X obj 436 47 inlet~ feedforward;
#X obj 247 302 +~;
#X obj 296 37 vd~ \$0-unicomb;
#X obj 247 201 vd~ \$0-unicomb;
#X obj 248 173 delwrite~ \$0-unicomb 100;
#X obj 311 86 sig~ \$3;
#X obj 353 257 *~;
#X obj 247 327 outlet~;
#X obj 51 56 hsl 51 15 -1 1 0 0 empty \$0-blend-slider empty -2 -8
0 10 -262144 -1 -1 2500 1;
#X text 12 55 BL;
#X obj 30 56 bng 15 250 50 0 empty empty empty 17 7 0 10 -262144 -1
-1;
#X obj 51 80 hsl 51 15 -1 1 0 0 empty \$0-feedback-slider empty -2
-8 0 10 -262144 -1 -1 2500 1;
#X obj 30 80 bng 15 250 50 0 empty empty empty 17 7 0 10 -262144 -1
-1;
#X obj 51 104 hsl 51 15 -1 1 0 0 empty \$0-feedforward-slider empty
-2 -8 0 10 -262144 -1 -1 700 1;
#X obj 30 104 bng 15 250 50 0 empty empty empty 17 7 0 10 -262144 -1
-1;
#X text 12 79 FB;
#X text 12 103 FF;
#X obj 17 32 hsl 79 15 0.1 100 1 0 empty \$0-delay-slider empty -2
-8 0 10 -262144 -1 -1 3700 1;
#X floatatom 101 32 5 0.1 100 0 - #0-delay-number -;
#X floatatom 107 56 4 -1 1 0 - #0-blend-number -;
#X floatatom 107 80 4 -1 1 0 - #0-feedback-number -;
#X floatatom 107 104 4 -1 1 0 - #0-feedforward-number -;
#X msg 149 52 0;
#X msg 179 52 0;
#X msg 209 52 0;
#X obj 419 92 r \$0-delay;
#X obj 311 65 r \$0-feedback;
#X obj 121 132 s \$0-delay;
#X obj 121 153 s \$0-blend;
#X obj 121 195 s \$0-feedforward;
#X obj 121 174 s \$0-feedback;
#X obj 18 252 t b b b b;
#X obj 18 231 loadbang;
#X obj 18 366 f \$1;
#X obj 18 430 t f f;
#X obj 35 302 t f f;
#X obj 35 281 f \$2;
#X obj 155 429 t f f;
#X obj 172 344 t f f;
#X obj 155 408 f \$3;
#X obj 172 323 f \$4;
#X obj 18 387 sel 0;
#X msg 18 408 10;
#X text 12 12 In Delay Blend FB FF;
#X obj 35 344 s \$0-blend-number;
#X obj 62 323 s \$0-blend-slider;
#X obj 45 451 s \$0-delay-slider;
#X obj 18 472 s \$0-delay-number;
#X obj 182 450 s \$0-feedback-slider;
#X obj 199 365 s \$0-feedforward-slider;
#X obj 172 386 s \$0-feedforward-number;
#X obj 155 471 s \$0-feedback-number;
#X obj 92 222 s \$0-delay-number;
#X obj 92 243 s \$0-blend-number;
#X obj 92 264 s \$0-feedback-number;
#X obj 92 285 s \$0-feedforward-number;
#X obj 312 305 route delay blend feedback feedforward;
#X obj 517 69 inlet;
#X obj 262 223 r \$0-feedforward;
#X obj 262 246 sig~ \$4;
#X obj 368 235 sig~ \$2;
#X obj 368 213 r \$0-blend;
#X connect 1 0 2 0;
#X connect 2 0 13 0;
#X connect 2 0 15 0;
#X connect 3 0 2 1;
#X connect 4 0 11 0;
#X connect 4 0 12 0;
#X connect 5 0 3 1;
#X connect 6 0 11 0;
#X connect 6 0 12 0;
#X connect 7 0 10 0;
#X connect 8 0 15 1;
#X connect 9 0 7 1;
#X connect 10 0 16 0;
#X connect 11 0 3 0;
#X connect 12 0 7 0;
#X connect 14 0 3 1;
#X connect 15 0 10 1;
#X connect 17 0 62 0;
#X connect 19 0 31 0;
#X connect 20 0 63 0;
#X connect 21 0 32 0;
#X connect 22 0 64 0;
#X connect 23 0 33 0;
#X connect 26 0 61 0;
#X connect 27 0 36 0;
#X connect 28 0 37 0;
#X connect 29 0 39 0;
#X connect 30 0 38 0;
#X connect 31 0 44 0;
#X connect 32 0 46 0;
#X connect 33 0 47 0;
#X connect 34 0 6 0;
#X connect 35 0 14 0;
#X connect 40 0 42 0;
#X connect 40 1 45 0;
#X connect 40 2 48 0;
#X connect 40 3 49 0;
#X connect 41 0 40 0;
#X connect 42 0 50 0;
#X connect 43 0 56 0;
#X connect 43 1 55 0;
#X connect 44 0 53 0;
#X connect 44 1 54 0;
#X connect 45 0 44 0;
#X connect 46 0 60 0;
#X connect 46 1 57 0;
#X connect 47 0 59 0;
#X connect 47 1 58 0;
#X connect 48 0 46 0;
#X connect 49 0 47 0;
#X connect 50 0 51 0;
#X connect 50 1 43 0;
#X connect 51 0 43 0;
#X connect 65 0 43 0;
#X connect 65 1 44 0;
#X connect 65 2 46 0;
#X connect 65 3 47 0;
#X connect 66 0 65 0;
#X connect 67 0 68 0;
#X connect 68 0 7 1;
#X connect 69 0 15 1;
#X connect 70 0 69 0;
#X coords 0 -1 1 1 128 115 2 10 10;
