#N canvas 894 255 401 296 10;
#X obj 19 50 noise~;
#X obj 19 202 *~ 0.05;
#X obj 19 235 dac~;
#X msg 140 45 blend 0.6 \, feedback -0.6 \, feedforward 1;
#X text 85 -21 FIR Comb;
#X text 90 45 Allpass;
#X msg 140 -21 blend 1 \, feedback 0 \, feedforward 1;
#X text 86 1 IIR Comb;
#X msg 140 1 blend 1 \, feedback 0.9 \, feedforward 0;
#X text 103 22 Delay;
#X msg 140 23 blend 0 \, feedback 0 \, feedforward 1;
#X obj 23 8 *~ 2;
#X obj 23 -15 osc~ 0.1;
#X obj 19 79 unicomb~ 12 0.5 -0.5 -1;
#X text 265 236 reference: DAFX p66;
#X connect 0 0 13 0;
#X connect 1 0 2 0;
#X connect 1 0 2 1;
#X connect 3 0 13 5;
#X connect 6 0 13 5;
#X connect 8 0 13 5;
#X connect 10 0 13 5;
#X connect 11 0 13 1;
#X connect 12 0 11 0;
#X connect 13 0 1 0;
