#N canvas 1107 542 223 193 10;
#X obj 18 14 inlet;
#X obj 18 161 outlet;
#X msg 85 58 stop;
#X obj 58 14 inlet reset;
#X obj 130 59 inlet time;
#X obj 85 82 delay \$1;
#X obj 58 37 t b b;
#X obj 18 110 once 1;
#X obj 18 135 t a b;
#X connect 0 0 7 0;
#X connect 2 0 5 0;
#X connect 3 0 6 0;
#X connect 4 0 5 1;
#X connect 5 0 7 1;
#X connect 6 0 7 1;
#X connect 6 1 2 0;
#X connect 7 0 8 0;
#X connect 8 0 1 0;
#X connect 8 1 5 0;
