#N canvas 805 30 248 351 10;
#X obj 26 38 inlet;
#X obj 26 143 t f b;
#X obj 53 220 + 1;
#X obj 26 170 until;
#X obj 26 220 f;
#X obj 41 195 f 1;
#X obj 26 247 t f f;
#X obj 26 117 t f f;
#X obj 106 287 sel;
#X obj 108 20 loadbang;
#X obj 108 64 sel 0;
#X obj 108 42 f \$1;
#X obj 108 87 f 1;
#X obj 106 315 outlet finished;
#X obj 28 315 outlet count;
#X obj 26 92 moses 1;
#X obj 89 260 bang;
#X obj 26 65 i;
#X connect 0 0 17 0;
#X connect 1 0 3 0;
#X connect 1 1 5 0;
#X connect 2 0 4 1;
#X connect 3 0 4 0;
#X connect 4 0 2 0;
#X connect 4 0 6 0;
#X connect 5 0 4 1;
#X connect 6 0 8 0;
#X connect 6 1 14 0;
#X connect 7 0 1 0;
#X connect 7 1 8 1;
#X connect 8 0 13 0;
#X connect 9 0 11 0;
#X connect 10 0 12 0;
#X connect 10 1 17 1;
#X connect 11 0 10 0;
#X connect 12 0 17 1;
#X connect 15 0 16 0;
#X connect 15 1 7 0;
#X connect 16 0 13 0;
#X connect 17 0 15 0;
