#N canvas 1654 227 186 272 10;
#X obj 26 42 t f f;
#X obj 26 67 -;
#X obj 26 116 sel 0;
#X obj 53 141 > 0;
#X obj 26 18 inlet;
#X obj 71 19 inlet;
#X obj 53 239 outlet;
#X obj 53 165 * 2;
#X obj 53 189 - 1;
#X obj 71 43 t b b;
#X obj 53 214 change \$1;
#X obj 86 165 f \$1;
#X msg 86 189 set \$1;
#X obj 26 90 first;
#X connect 0 0 1 1;
#X connect 0 1 1 0;
#X connect 1 0 13 0;
#X connect 2 1 3 0;
#X connect 3 0 7 0;
#X connect 4 0 0 0;
#X connect 5 0 9 0;
#X connect 7 0 8 0;
#X connect 8 0 10 0;
#X connect 9 0 13 1;
#X connect 9 1 11 0;
#X connect 10 0 6 0;
#X connect 11 0 12 0;
#X connect 12 0 10 0;
#X connect 13 0 2 0;
