#N canvas 1061 365 222 187 10;
#X obj 18 15 inlet;
#X obj 93 38 inlet;
#X obj 63 103 == 0;
#X msg 63 71 0;
#X msg 93 71 1;
#X obj 124 151 outlet first;
#X obj 18 151 outlet remaining;
#X obj 18 127 spigot 0;
#X obj 124 127 spigot 1;
#X obj 18 40 t b a a;
#X connect 0 0 9 0;
#X connect 1 0 4 0;
#X connect 2 0 7 1;
#X connect 3 0 8 1;
#X connect 3 0 2 0;
#X connect 4 0 8 1;
#X connect 4 0 2 0;
#X connect 7 0 6 0;
#X connect 8 0 5 0;
#X connect 9 0 3 0;
#X connect 9 1 7 0;
#X connect 9 2 8 0;
