#N canvas 615 188 356 367 10;
#X obj 20 99 unpack 0 0 0;
#X obj 20 72 pack \$1 \$2 \$3;
#N canvas 270 112 219 271 color-curve 0;
#X obj 24 86 moses 60;
#X obj 69 108 moses 180;
#X obj 120 131 moses 240;
#X obj 24 135 / 60;
#X msg 69 135 1;
#X obj 120 156 swap 240;
#X obj 120 180 -;
#X obj 120 204 / 60;
#X msg 184 156 0;
#X obj 24 244 outlet;
#X obj 24 62 mywrap 0 360;
#X obj 24 15 inlet;
#X obj 24 39 + 120;
#X connect 0 0 3 0;
#X connect 0 1 1 0;
#X connect 1 0 4 0;
#X connect 1 1 2 0;
#X connect 2 0 5 0;
#X connect 2 1 8 0;
#X connect 3 0 9 0;
#X connect 4 0 9 0;
#X connect 5 0 6 0;
#X connect 5 1 6 1;
#X connect 6 0 7 0;
#X connect 7 0 9 0;
#X connect 8 0 9 0;
#X connect 10 0 0 0;
#X connect 11 0 12 0;
#X connect 12 0 10 0;
#X restore 20 254 pd color-curve;
#X obj 20 141 t f f f;
#N canvas 119 159 322 215 saturation-value 0;
#X obj 17 18 inlet component;
#X obj 118 18 inlet saturation;
#X obj 225 18 inlet value;
#X obj 17 75 *;
#X obj 17 149 *;
#X obj 17 123 -;
#X obj 118 40 t f f;
#X obj 17 183 outlet;
#X obj 17 99 + 1;
#X connect 0 0 3 0;
#X connect 1 0 6 0;
#X connect 2 0 4 1;
#X connect 3 0 8 0;
#X connect 4 0 7 0;
#X connect 5 0 4 0;
#X connect 6 0 3 1;
#X connect 6 1 5 1;
#X connect 8 0 5 0;
#X restore 20 278 pd saturation-value;
#X obj 20 305 pack 0 0 0;
#N canvas 270 112 219 271 color-curve 0;
#X obj 24 86 moses 60;
#X obj 69 108 moses 180;
#X obj 120 131 moses 240;
#X obj 24 135 / 60;
#X msg 69 135 1;
#X obj 120 156 swap 240;
#X obj 120 180 -;
#X obj 120 204 / 60;
#X msg 184 156 0;
#X obj 24 244 outlet;
#X obj 24 62 mywrap 0 360;
#X obj 24 15 inlet;
#X obj 24 39 + 120;
#X connect 0 0 3 0;
#X connect 0 1 1 0;
#X connect 1 0 4 0;
#X connect 1 1 2 0;
#X connect 2 0 5 0;
#X connect 2 1 8 0;
#X connect 3 0 9 0;
#X connect 4 0 9 0;
#X connect 5 0 6 0;
#X connect 5 1 6 1;
#X connect 6 0 7 0;
#X connect 7 0 9 0;
#X connect 8 0 9 0;
#X connect 10 0 0 0;
#X connect 11 0 12 0;
#X connect 12 0 10 0;
#X restore 75 201 pd color-curve;
#X obj 75 179 - 120;
#N canvas 270 112 219 271 color-curve 0;
#X obj 24 86 moses 60;
#X obj 69 108 moses 180;
#X obj 120 131 moses 240;
#X obj 24 135 / 60;
#X msg 69 135 1;
#X obj 120 156 swap 240;
#X obj 120 180 -;
#X obj 120 204 / 60;
#X msg 184 156 0;
#X obj 24 244 outlet;
#X obj 24 62 mywrap 0 360;
#X obj 24 15 inlet;
#X obj 24 39 + 120;
#X connect 0 0 3 0;
#X connect 0 1 1 0;
#X connect 1 0 4 0;
#X connect 1 1 2 0;
#X connect 2 0 5 0;
#X connect 2 1 8 0;
#X connect 3 0 9 0;
#X connect 4 0 9 0;
#X connect 5 0 6 0;
#X connect 5 1 6 1;
#X connect 6 0 7 0;
#X connect 7 0 9 0;
#X connect 8 0 9 0;
#X connect 10 0 0 0;
#X connect 11 0 12 0;
#X connect 12 0 10 0;
#X restore 204 201 pd color-curve;
#X obj 204 179 + 120;
#X obj 20 334 outlet;
#N canvas 119 159 322 215 saturation-value 0;
#X obj 17 18 inlet component;
#X obj 118 18 inlet saturation;
#X obj 225 18 inlet value;
#X obj 17 75 *;
#X obj 17 149 *;
#X obj 17 123 -;
#X obj 118 40 t f f;
#X obj 17 183 outlet;
#X obj 17 99 + 1;
#X connect 0 0 3 0;
#X connect 1 0 6 0;
#X connect 2 0 4 1;
#X connect 3 0 8 0;
#X connect 4 0 7 0;
#X connect 5 0 4 0;
#X connect 6 0 3 1;
#X connect 6 1 5 1;
#X connect 8 0 5 0;
#X restore 75 227 pd saturation-value;
#N canvas 119 159 322 215 saturation-value 0;
#X obj 17 18 inlet component;
#X obj 118 18 inlet saturation;
#X obj 225 18 inlet value;
#X obj 17 75 *;
#X obj 17 149 *;
#X obj 17 123 -;
#X obj 118 40 t f f;
#X obj 17 183 outlet;
#X obj 17 99 + 1;
#X connect 0 0 3 0;
#X connect 1 0 6 0;
#X connect 2 0 4 1;
#X connect 3 0 8 0;
#X connect 4 0 7 0;
#X connect 5 0 4 0;
#X connect 6 0 3 1;
#X connect 6 1 5 1;
#X connect 8 0 5 0;
#X restore 204 227 pd saturation-value;
#X obj 105 134 t f f f;
#X obj 175 129 t f f f;
#X obj 96 45 inlet s;
#X obj 147 45 inlet v;
#X obj 20 45 inlet h/hsv;
#X connect 0 0 3 0;
#X connect 0 1 13 0;
#X connect 0 2 14 0;
#X connect 1 0 0 0;
#X connect 2 0 4 0;
#X connect 3 0 2 0;
#X connect 3 1 7 0;
#X connect 3 2 9 0;
#X connect 4 0 5 0;
#X connect 5 0 10 0;
#X connect 6 0 11 0;
#X connect 7 0 6 0;
#X connect 8 0 12 0;
#X connect 9 0 8 0;
#X connect 11 0 5 1;
#X connect 12 0 5 2;
#X connect 13 0 4 1;
#X connect 13 1 11 1;
#X connect 13 2 12 1;
#X connect 14 0 4 2;
#X connect 14 1 11 2;
#X connect 14 2 12 2;
#X connect 15 0 1 1;
#X connect 16 0 1 2;
#X connect 17 0 1 0;
