#N canvas 300 179 256 199 10;
#X obj 23 27 inlet;
#X obj 23 165 outlet;
#X obj 23 117 f \$1;
#X obj 37 95 f \$2;
#X obj 50 74 f \$3;
#X obj 63 117 f \$4;
#X obj 77 95 f \$5;
#X obj 90 74 f \$6;
#X obj 104 117 f \$7;
#X obj 117 95 f \$8;
#X obj 131 74 f \$9;
#X obj 144 117 f \$10;
#X obj 23 50 sel 0 1 2 3 4 5 6 7 8 9;
#X obj 191 117 t f;
#X obj 191 162 outlet;
#X obj 191 140 - 10;
#X connect 0 0 12 0;
#X connect 2 0 1 0;
#X connect 3 0 1 0;
#X connect 4 0 1 0;
#X connect 5 0 1 0;
#X connect 6 0 1 0;
#X connect 7 0 1 0;
#X connect 8 0 1 0;
#X connect 9 0 1 0;
#X connect 10 0 1 0;
#X connect 11 0 1 0;
#X connect 12 0 2 0;
#X connect 12 1 3 0;
#X connect 12 2 4 0;
#X connect 12 3 5 0;
#X connect 12 4 6 0;
#X connect 12 5 7 0;
#X connect 12 6 8 0;
#X connect 12 7 9 0;
#X connect 12 8 10 0;
#X connect 12 9 11 0;
#X connect 12 10 13 0;
#X connect 13 0 15 0;
#X connect 15 0 14 0;
