#N canvas 328 176 196 300 10;
#X msg 23 232 1;
#X msg 95 232 0;
#X obj 23 208 spigot 1;
#X msg 95 127 stop;
#X msg 116 183 1;
#X obj 68 103 t b b;
#X msg 68 183 0;
#X obj 23 260 outlet;
#X obj 23 23 key;
#X obj 116 22 keyup;
#X obj 23 51 route \$1;
#X obj 116 50 route \$1;
#X obj 116 158 delay 50;
#X connect 0 0 7 0;
#X connect 1 0 7 0;
#X connect 2 0 0 0;
#X connect 2 0 5 0;
#X connect 3 0 12 0;
#X connect 4 0 2 1;
#X connect 5 0 6 0;
#X connect 5 1 3 0;
#X connect 6 0 2 1;
#X connect 8 0 10 0;
#X connect 9 0 11 0;
#X connect 10 0 2 0;
#X connect 11 0 12 0;
#X connect 12 0 1 0;
#X connect 12 0 4 0;
