#N canvas 638 173 165 222 10;
#X obj 18 20 inlet;
#X obj 85 71 > \$1;
#X obj 106 20 inlet;
#X obj 51 142 <= \$1;
#X obj 18 168 spigot;
#X obj 52 96 spigot;
#X obj 18 45 t f f f f;
#X obj 18 194 outlet;
#X obj 52 117 outlet;
#X connect 0 0 6 0;
#X connect 1 0 5 1;
#X connect 2 0 1 1;
#X connect 2 0 3 1;
#X connect 3 0 4 1;
#X connect 4 0 7 0;
#X connect 5 0 8 0;
#X connect 6 0 4 0;
#X connect 6 1 3 0;
#X connect 6 2 5 0;
#X connect 6 3 1 0;
