#N canvas 558 73 451 378 10;
#X obj 32 23 inlet;
#X obj 32 54 moses \$1;
#X obj 77 80 moses \$2;
#X obj 77 323 outlet;
#X obj 47 123 - \$1;
#X obj 47 152 /;
#X obj 186 2 loadbang;
#X obj 186 27 pack \$2 \$1;
#X obj 186 51 -;
#X obj 47 179 * -1;
#X obj 47 206 int;
#X obj 47 232 + 1;
#X obj 47 260 *;
#X obj 32 80 t f f;
#X obj 32 286 +;
#X obj 122 103 t f f;
#X obj 149 128 - \$1;
#X obj 149 157 /;
#X obj 149 187 int;
#X obj 149 241 *;
#X obj 122 290 -;
#X obj 186 76 t f f f f;
#X connect 0 0 1 0;
#X connect 1 0 13 0;
#X connect 1 1 2 0;
#X connect 2 0 3 0;
#X connect 2 1 15 0;
#X connect 4 0 5 0;
#X connect 5 0 9 0;
#X connect 6 0 7 0;
#X connect 7 0 8 0;
#X connect 8 0 21 0;
#X connect 9 0 10 0;
#X connect 10 0 11 0;
#X connect 11 0 12 0;
#X connect 12 0 14 1;
#X connect 13 0 14 0;
#X connect 13 1 4 0;
#X connect 14 0 3 0;
#X connect 15 0 20 0;
#X connect 15 1 16 0;
#X connect 16 0 17 0;
#X connect 17 0 18 0;
#X connect 18 0 19 0;
#X connect 19 0 20 1;
#X connect 20 0 3 0;
#X connect 21 0 5 1;
#X connect 21 1 12 1;
#X connect 21 2 17 1;
#X connect 21 3 19 1;
