#N canvas 69 425 133 149 10;
#X obj 18 14 inlet;
#X obj 69 14 inlet;
#X obj 18 115 outlet;
#X msg 69 38 1;
#X msg 83 65 0;
#X obj 18 65 spigot \$1;
#X obj 18 89 t a b;
#X connect 0 0 5 0;
#X connect 1 0 3 0;
#X connect 3 0 5 1;
#X connect 4 0 5 1;
#X connect 5 0 6 0;
#X connect 6 0 2 0;
#X connect 6 1 4 0;
