#N canvas 185 258 418 419 10;
#X msg 22 194 bang;
#X obj 22 146 namecanvas \$0-oscillo;
#X obj 168 138 inlet;
#X obj 283 161 + 1;
#X obj 268 255 f 0;
#X msg 310 232 0;
#X obj 169 213 t f b;
#N canvas 379 203 206 194 scale 1;
#X obj 21 -52 inlet;
#X obj 130 22 -;
#X obj 21 105 outlet;
#X obj 21 -28 max \$1;
#X obj 21 -5 min \$2;
#X obj 130 -1 f \$2;
#X obj 164 -1 f \$1;
#X obj 21 19 - \$1;
#X obj 84 -50 inlet;
#X obj 101 -1 + 2;
#X obj 84 25 /;
#X obj 21 82 *;
#X obj 84 -25 t f f b b;
#X obj 84 51 /;
#X connect 0 0 3 0;
#X connect 1 0 13 1;
#X connect 3 0 4 0;
#X connect 4 0 7 0;
#X connect 5 0 1 0;
#X connect 6 0 1 1;
#X connect 7 0 11 0;
#X connect 8 0 12 0;
#X connect 9 0 10 1;
#X connect 10 0 13 0;
#X connect 11 0 2 0;
#X connect 12 0 10 0;
#X connect 12 1 9 0;
#X connect 12 2 5 0;
#X connect 12 3 6 0;
#X connect 13 0 11 1;
#X restore 169 257 pd scale;
#X obj 337 292 outlet;
#X msg 337 266 reset;
#X obj 310 209 t b b;
#N canvas 829 114 297 321 defaults 0;
#X obj 39 30 inlet;
#X obj 102 81 route 0;
#X msg 102 104 200;
#X obj 162 101 route 0;
#X msg 162 124 200;
#X obj 223 119 route 0;
#X msg 223 142 100;
#X obj 39 275 outlet;
#X obj 238 197 + 2;
#X obj 39 57 unpack 0 0 0 0 0 0;
#X obj 39 248 pack 0 0 0 0 0 0 0;
#X connect 0 0 9 0;
#X connect 1 0 2 0;
#X connect 1 1 10 3;
#X connect 2 0 10 3;
#X connect 3 0 4 0;
#X connect 3 1 10 4;
#X connect 4 0 10 4;
#X connect 5 0 6 0;
#X connect 5 1 8 0;
#X connect 5 1 10 5;
#X connect 6 0 8 0;
#X connect 6 0 10 5;
#X connect 8 0 10 6;
#X connect 9 0 10 0;
#X connect 9 1 10 1;
#X connect 9 2 10 2;
#X connect 9 3 1 0;
#X connect 9 4 3 0;
#X connect 9 5 5 0;
#X connect 10 0 7 0;
#X restore 22 252 pd defaults;
#X obj 22 223 pack \$0 \$1 \$2 \$3 \$4 \$5;
#X obj 169 289 tabwrite \$0-array;
#X msg 22 321 \; \$1-oscillo coords 0 0 1 1 \$5 \$6 2 100 22 \; \$1-oscillo
graph \$1-graph \; pd-\$1-graph pop \; pd-\$1-graph array \$1-array
\$4 float 0 \; pd-\$1-graph coords 0 1 \$4 0 \$5 \$7 2;
#X obj 283 184 moses;
#X obj 22 170 loadbang;
#X obj 168 162 route reset clear;
#X msg 296 294 bang;
#X msg 296 345 \; \$1-array const 0;
#X obj 296 318 f \$0;
#X obj 43 285 unpack 0 0 0 0 0 0;
#X connect 0 0 12 0;
#X connect 2 0 17 0;
#X connect 3 0 15 0;
#X connect 4 0 3 0;
#X connect 4 0 13 1;
#X connect 5 0 4 1;
#X connect 6 0 7 0;
#X connect 6 1 4 0;
#X connect 7 0 13 0;
#X connect 9 0 8 0;
#X connect 10 0 5 0;
#X connect 10 1 9 0;
#X connect 11 0 14 0;
#X connect 11 0 21 0;
#X connect 12 0 11 0;
#X connect 15 0 4 1;
#X connect 15 1 10 0;
#X connect 16 0 0 0;
#X connect 17 0 10 0;
#X connect 17 1 18 0;
#X connect 17 2 6 0;
#X connect 18 0 20 0;
#X connect 20 0 19 0;
#X connect 21 3 15 1;
#X connect 21 5 7 1;
#X coords 0 -1 1 1 200 100 2 100 20;
