#N canvas 647 69 390 330 10;
#X obj 28 31 r inputfile;
#X obj 125 17 r outputfile;
#X obj 28 102 readsf~;
#X msg 67 223 \; pd quit;
#X obj 28 263 outlet~;
#X obj 67 125 t b b;
#X msg 94 148 stop;
#X msg 277 101 \; pd dsp 1;
#X obj 277 67 loadbang;
#X obj 193 199 outlet writesf~;
#X obj 193 148 symbol;
#X obj 28 56 symbol;
#X msg 125 93 start;
#X msg 28 80 open \$1;
#X msg 193 174 open \$1;
#X obj 125 44 t b a;
#X obj 125 69 delay 10;
#X obj 67 190 delay 50;
#X connect 0 0 11 0;
#X connect 1 0 15 0;
#X connect 2 0 4 0;
#X connect 2 1 5 0;
#X connect 5 0 17 0;
#X connect 5 1 6 0;
#X connect 6 0 9 0;
#X connect 8 0 7 0;
#X connect 10 0 14 0;
#X connect 11 0 13 0;
#X connect 12 0 2 0;
#X connect 12 0 9 0;
#X connect 13 0 2 0;
#X connect 14 0 9 0;
#X connect 15 0 16 0;
#X connect 15 1 10 0;
#X connect 16 0 12 0;
#X connect 17 0 3 0;
