#N canvas 112 322 198 171 10;
#X obj 1 -1 inlet~;
#X obj 1 139 throw~ \$1;
#X obj 113 22 symbol \$2;
#X obj 113 1 loadbang;
#X msg 113 45 label \$1;
#X obj 25 22 hsl 21 15 0 1 0 0 empty \$0-slider sum 25 7 0 10 -262144
-1 -1 600 1;
#X obj 113 68 s \$0-slider;
#X msg 22 71 \$1 50;
#X obj 22 91 line~;
#X obj 1 117 *~;
#X obj 11 45 outlet~;
#X obj 44 -1 inlet;
#X obj 61 45 outlet;
#X connect 0 0 9 0;
#X connect 0 0 10 0;
#X connect 2 0 4 0;
#X connect 3 0 2 0;
#X connect 4 0 6 0;
#X connect 5 0 7 0;
#X connect 5 0 12 0;
#X connect 7 0 8 0;
#X connect 8 0 9 1;
#X connect 9 0 1 0;
#X connect 11 0 5 0;
#X coords 0 -1 1 1 69 19 2 20 20;
