#N canvas 699 244 379 220 10;
#X obj 15 160 symbolchange;
#X msg 15 114 symbol one;
#X msg 25 137 symbol two;
#X text 13 11 [symbolchange] is the symbol eqivalent to [change] except
that it does not accept an initial value and accepts no arguments.
;
#X text 13 66 [symbolchange] outputs a bang out of it's second outlet
when it recieves the same symbol twice.;
#X obj 84 185 bng 15 250 50 0 empty empty empty 17 7 0 10 -262144 -1
-1;
#X symbolatom 15 183 10 0 0 0 - - -;
#X connect 0 0 6 0;
#X connect 0 1 5 0;
#X connect 1 0 0 0;
#X connect 2 0 0 0;
