#N canvas 303 168 220 177 10;
#X obj 22 19 inlet;
#X obj 22 141 outlet;
#X obj 22 114 symbol;
#X obj 22 46 t a a a;
#X obj 22 79 sel last-symbol-for-comparison;
#X obj 77 141 outlet;
#X connect 0 0 3 0;
#X connect 2 0 1 0;
#X connect 3 0 4 1;
#X connect 3 1 4 0;
#X connect 3 2 2 1;
#X connect 4 0 5 0;
#X connect 4 1 2 0;
