#N canvas 356 330 211 171 10;
#X obj 22 22 tgl 15 0 empty \$0-toggle Scope1 17 7 0 10 -262144 -1
-1 1 1;
#X obj 1 -1 inlet~;
#X obj 1 146 throw~ \$1;
#X obj 113 68 s \$0-toggle;
#X obj 113 22 symbol \$2;
#X obj 113 1 loadbang;
#X msg 113 45 label \$1;
#X msg 22 72 \$1 50;
#X obj 22 96 line~;
#X obj 1 124 *~;
#X obj 13 46 outlet~;
#X obj 44 -1 inlet;
#X obj 64 46 outlet;
#X connect 0 0 7 0;
#X connect 0 0 12 0;
#X connect 1 0 9 0;
#X connect 1 0 10 0;
#X connect 4 0 6 0;
#X connect 5 0 4 0;
#X connect 6 0 3 0;
#X connect 7 0 8 0;
#X connect 8 0 9 1;
#X connect 9 0 2 0;
#X connect 11 0 0 0;
#X coords 0 -1 1 1 58 19 2 20 20;
