#N canvas 837 300 217 306 10;
#X obj 26 98 inlet~;
#X obj 26 211 rpole~;
#X obj 26 181 rzero_rev~;
#X obj 26 271 outlet~;
#X obj 43 14 inlet b0 b1 a1;
#X obj 43 39 route clear;
#X msg 43 64 clear;
#X obj 106 69 unpack \$1 \$2 \$3;
#X obj 143 45 loadbang;
#X obj 134 120 *;
#X obj 26 240 *~;
#X obj 134 144 * -1;
#X obj 106 184 swap 1;
#X obj 106 209 /;
#X obj 106 94 t f f;
#X connect 0 0 2 0;
#X connect 1 0 10 0;
#X connect 2 0 1 0;
#X connect 4 0 5 0;
#X connect 5 0 6 0;
#X connect 5 1 7 0;
#X connect 6 0 1 0;
#X connect 7 0 14 0;
#X connect 7 1 9 1;
#X connect 7 2 1 1;
#X connect 8 0 7 0;
#X connect 9 0 11 0;
#X connect 10 0 3 0;
#X connect 11 0 2 1;
#X connect 12 0 13 0;
#X connect 12 1 13 1;
#X connect 13 0 10 1;
#X connect 14 0 12 0;
#X connect 14 1 9 0;
