#N canvas 1041 129 315 420 10;
#X obj 38 58 inlet freq;
#X obj 162 41 inlet gain;
#N canvas 920 298 122 146 db-to-gain 0;
#X obj 26 21 inlet;
#X obj 26 44 / 20;
#X obj 26 121 outlet;
#X obj 26 71 swap 10;
#X obj 26 98 pow;
#X connect 0 0 1 0;
#X connect 1 0 3 0;
#X connect 3 0 4 0;
#X connect 3 1 4 1;
#X connect 4 0 2 0;
#X restore 162 83 pd db-to-gain;
#X obj 162 107 sqrt;
#X obj 38 362 pack -1 0 0;
#N canvas 234 71 139 197 freq-to-timeconst 0;
#X obj 22 15 inlet;
#X obj 61 37 loadbang;
#X obj 61 62 samplerate~;
#X obj 22 112 * -3.14159;
#X obj 22 136 exp;
#X obj 22 160 outlet;
#X obj 22 87 / 44100;
#X connect 0 0 6 0;
#X connect 1 0 2 0;
#X connect 2 0 6 1;
#X connect 3 0 4 0;
#X connect 4 0 5 0;
#X connect 6 0 3 0;
#X restore 174 186 pd freq-to-timeconst;
#X obj 38 312 *;
#X obj 38 335 t b f;
#X obj 82 312 *;
#X obj 65 236 swap 1;
#X obj 65 259 -;
#X obj 112 259 - 1;
#X obj 65 284 /;
#X obj 174 211 t f f;
#X obj 38 211 t f f;
#X obj 38 109 t f f;
#X obj 162 131 t f f;
#X obj 38 83 f \$1;
#X obj 162 62 f \$2;
#X obj 38 387 outlet;
#X obj 97 15 loadbang;
#N canvas 234 71 139 197 freq-to-timeconst 0;
#X obj 22 15 inlet;
#X obj 61 37 loadbang;
#X obj 61 62 samplerate~;
#X obj 22 112 * -3.14159;
#X obj 22 136 exp;
#X obj 22 160 outlet;
#X obj 22 87 / 44100;
#X connect 0 0 6 0;
#X connect 1 0 2 0;
#X connect 2 0 6 1;
#X connect 3 0 4 0;
#X connect 4 0 5 0;
#X connect 6 0 3 0;
#X restore 38 186 pd freq-to-timeconst;
#X floatatom 79 209 5 0 0 0 - - -;
#X floatatom 222 214 5 0 0 0 - - -;
#X floatatom 203 109 5 0 0 0 - - -;
#X obj 38 160 /;
#X obj 174 161 *;
#X connect 0 0 17 0;
#X connect 1 0 18 0;
#X connect 2 0 3 0;
#X connect 2 0 24 0;
#X connect 3 0 16 0;
#X connect 4 0 19 0;
#X connect 5 0 13 0;
#X connect 5 0 23 0;
#X connect 6 0 7 0;
#X connect 7 0 4 0;
#X connect 7 1 4 2;
#X connect 8 0 4 1;
#X connect 9 0 10 0;
#X connect 9 1 10 1;
#X connect 10 0 12 0;
#X connect 11 0 12 1;
#X connect 12 0 6 1;
#X connect 12 0 8 0;
#X connect 13 0 11 0;
#X connect 13 1 8 1;
#X connect 14 0 6 0;
#X connect 14 1 9 0;
#X connect 15 0 25 0;
#X connect 15 1 26 0;
#X connect 16 0 25 1;
#X connect 16 1 26 1;
#X connect 17 0 15 0;
#X connect 18 0 2 0;
#X connect 20 0 18 0;
#X connect 21 0 14 0;
#X connect 21 0 22 0;
#X connect 25 0 21 0;
#X connect 26 0 5 0;
