#N canvas 772 327 451 223 10;
#X obj 33 29 dumpOSC 7000;
#X obj 33 59 ../utility/split2msg /;
#X obj 33 88 route 1;
#X obj 33 156 s midi-faders-tx;
#X obj 196 25 r midi-faders-rx;
#X obj 196 117 list2osc;
#X msg 264 120 connect 192.168.1.91 9000;
#X obj 196 163 sendOSC;
#X obj 196 59 list prepend 1;
#X obj 264 93 loadbang;
#X connect 0 0 1 0;
#X connect 1 0 2 0;
#X connect 2 0 3 0;
#X connect 4 0 8 0;
#X connect 5 0 7 0;
#X connect 6 0 7 0;
#X connect 8 0 5 0;
#X connect 9 0 6 0;
