#N canvas 373 59 190 391 10;
#X obj 30 35 inlet;
#X obj 87 88 list length;
#X obj 30 144 list split;
#X obj 87 115 - 1;
#X obj 30 177 l2s /;
#X obj 30 237 unsymbol;
#X obj 30 265 list append;
#X obj 30 347 outlet;
#X obj 30 61 t a a;
#X obj 30 291 list prepend send;
#X obj 30 318 list trim;
#X obj 30 207 makefilename /%s;
#X connect 0 0 8 0;
#X connect 1 0 3 0;
#X connect 2 0 4 0;
#X connect 2 1 6 1;
#X connect 3 0 2 1;
#X connect 4 0 11 0;
#X connect 5 0 6 0;
#X connect 6 0 9 0;
#X connect 8 0 2 0;
#X connect 8 1 1 0;
#X connect 9 0 10 0;
#X connect 10 0 7 0;
#X connect 11 0 5 0;
