#N canvas 676 55 350 319 10;
#X obj 120 -13 inlet;
#X obj 120 11 route off;
#X obj 27 45 unpack 0 0 0;
#X obj 27 96 ../utility/first;
#X obj 120 45 t b b;
#X obj 120 168 mtof;
#X obj 120 191 sig~;
#X obj 120 219 *~;
#X obj 189 119 mtof;
#X obj 189 97 + 69;
#X obj 189 142 / 440;
#X obj 154 193 line~;
#X msg 189 165 \$1 20;
#X msg 154 167 1;
#N canvas 826 249 300 325 snap 0;
#X obj 23 12 inlet;
#X obj 23 290 outlet;
#X obj 50 94 int;
#X obj 23 65 t f f;
#X obj 23 146 -;
#X obj 50 120 t f f;
#X obj 23 230 +;
#X obj 23 39 + 1000;
#X obj 23 258 - 1000;
#N canvas 281 42 132 186 cosine-curve 0;
#X obj 24 72 cos;
#X obj 24 97 * -0.5;
#X obj 24 121 + 0.5;
#X obj 24 47 * 3.14159;
#X obj 24 24 inlet;
#X obj 24 147 outlet;
#X connect 0 0 1 0;
#X connect 1 0 2 0;
#X connect 2 0 5 0;
#X connect 3 0 0 0;
#X connect 4 0 3 0;
#X restore 23 199 pd cosine-curve;
#N canvas 281 42 132 186 cosine-curve 0;
#X obj 24 72 cos;
#X obj 24 97 * -0.5;
#X obj 24 121 + 0.5;
#X obj 24 47 * 3.14159;
#X obj 24 24 inlet;
#X obj 24 147 outlet;
#X connect 0 0 1 0;
#X connect 1 0 2 0;
#X connect 2 0 5 0;
#X connect 3 0 0 0;
#X connect 4 0 3 0;
#X restore 121 54 pd cosine-curve;
#X obj 124 31 hsl 128 15 0 1 0 0 empty empty empty -2 -8 0 10 -262144
-1 -1 0 1;
#X obj 124 134 hsl 128 15 0 1 0 0 empty empty empty -2 -8 0 10 -262144
-1 -1 0 1;
#N canvas 281 42 132 186 cosine-curve 0;
#X obj 24 72 cos;
#X obj 24 97 * -0.5;
#X obj 24 121 + 0.5;
#X obj 24 47 * 3.14159;
#X obj 24 24 inlet;
#X obj 24 147 outlet;
#X connect 0 0 1 0;
#X connect 1 0 2 0;
#X connect 2 0 5 0;
#X connect 3 0 0 0;
#X connect 4 0 3 0;
#X restore 121 105 pd cosine-curve;
#N canvas 281 42 132 186 cosine-curve 0;
#X obj 24 72 cos;
#X obj 24 97 * -0.5;
#X obj 24 121 + 0.5;
#X obj 24 47 * 3.14159;
#X obj 24 24 inlet;
#X obj 24 147 outlet;
#X connect 0 0 1 0;
#X connect 1 0 2 0;
#X connect 2 0 5 0;
#X connect 3 0 0 0;
#X connect 4 0 3 0;
#X restore 23 172 pd cosine-curve;
#X obj 124 80 hsl 128 15 0 1 0 0 empty empty empty -2 -8 0 10 -262144
-1 -1 0 1;
#X connect 0 0 7 0;
#X connect 2 0 5 0;
#X connect 3 0 4 0;
#X connect 3 1 2 0;
#X connect 4 0 14 0;
#X connect 5 0 4 1;
#X connect 5 1 6 1;
#X connect 6 0 8 0;
#X connect 7 0 3 0;
#X connect 8 0 1 0;
#X connect 9 0 6 0;
#X connect 10 0 15 0;
#X connect 11 0 10 0;
#X connect 13 0 12 0;
#X connect 14 0 9 0;
#X connect 15 0 13 0;
#X restore 189 71 pd snap;
#X obj 17 264 outlet~ pitch;
#X obj 192 237 outlet attack;
#X obj 248 265 outlet release;
#X obj 109 264 outlet value;
#X obj 120 129 t f b b;
#X connect 0 0 1 0;
#X connect 1 0 4 0;
#X connect 1 1 2 0;
#X connect 2 0 3 0;
#X connect 2 1 18 0;
#X connect 2 2 14 0;
#X connect 3 1 19 0;
#X connect 4 0 3 1;
#X connect 4 1 17 0;
#X connect 5 0 6 0;
#X connect 6 0 7 0;
#X connect 7 0 15 0;
#X connect 8 0 10 0;
#X connect 9 0 8 0;
#X connect 10 0 12 0;
#X connect 11 0 7 1;
#X connect 12 0 11 0;
#X connect 13 0 11 0;
#X connect 14 0 9 0;
#X connect 19 0 5 0;
#X connect 19 1 13 0;
#X connect 19 2 16 0;
