#N canvas 86 123 243 374 10;
#X obj 16 12 inlet;
#X obj 55 333 outlet~;
#X obj 109 114 vline~;
#X msg 109 88 0 \, 1 10 \, 0.7 50 10;
#X msg 126 65 0 100;
#X obj 16 274 *~;
#X obj 16 96 phasor~;
#X obj 49 200 + 400;
#X obj 49 150 pow 2;
#X obj 49 175 * 3000;
#X obj 16 120 -~ 0.5;
#X obj 76 275 line~;
#X msg 76 246 \$1 20;
#X obj 34 245 f;
#X obj 82 65 t b b;
#X obj 49 222 t f f;
#X obj 16 304 vcf~ 10;
#X obj 16 38 ribbonsynthvoice~;
#X connect 0 0 17 0;
#X connect 2 0 5 1;
#X connect 3 0 2 0;
#X connect 4 0 2 0;
#X connect 5 0 16 0;
#X connect 6 0 10 0;
#X connect 7 0 15 0;
#X connect 8 0 9 0;
#X connect 9 0 7 0;
#X connect 10 0 5 0;
#X connect 11 0 16 1;
#X connect 12 0 11 0;
#X connect 13 0 11 0;
#X connect 14 0 13 0;
#X connect 14 1 3 0;
#X connect 15 0 13 1;
#X connect 15 1 12 0;
#X connect 16 1 1 0;
#X connect 17 0 6 0;
#X connect 17 1 8 0;
#X connect 17 2 14 0;
#X connect 17 3 4 0;
