#N canvas 619 62 222 227 10;
#X obj 5 48 route 1 2 3 4 5;
#X obj 5 195 outlet;
#X obj 5 23 inlet;
#X obj 5 169 ribbon-voice 1 \$1 \$2;
#X obj 136 22 inlet;
#X obj 22 146 ribbon-voice 2 \$1 \$2;
#X obj 39 123 ribbon-voice 3 \$1 \$2;
#X obj 57 98 ribbon-voice 4 \$1 \$2;
#X obj 74 74 ribbon-voice 5 \$1 \$2;
#X connect 0 0 3 0;
#X connect 0 1 5 0;
#X connect 0 2 6 0;
#X connect 0 3 7 0;
#X connect 0 4 8 0;
#X connect 2 0 0 0;
#X connect 3 0 1 0;
#X connect 4 0 3 1;
#X connect 4 0 5 1;
#X connect 4 0 6 1;
#X connect 4 0 7 1;
#X connect 4 0 8 1;
#X connect 5 0 1 0;
#X connect 6 0 1 0;
#X connect 7 0 1 0;
#X connect 8 0 1 0;
