#N canvas 395 87 256 387 10;
#X obj -7 21 inlet;
#X obj -7 45 route z;
#X obj -7 69 sel 0;
#X obj 65 117 - 0.5;
#X obj 32 69 unpack;
#X obj 65 194 -;
#X obj 158 165 t f f;
#X obj 185 208 int;
#X obj -7 93 t b b;
#X obj 185 187 + 0.5;
#X obj 32 311 pack 0 0 0;
#X msg 113 285 0;
#X obj 32 283 f;
#X obj 32 256 t b f;
#X obj 86 260 t f b;
#X obj -7 366 outlet;
#X msg -7 311 off;
#X obj 65 142 ../utility/first;
#X obj 206 127 inlet;
#X obj -7 340 list prepend \$1;
#X obj 65 93 * \$2;
#X obj 185 229 + \$3;
#X connect 0 0 1 0;
#X connect 1 0 2 0;
#X connect 1 1 4 0;
#X connect 2 0 8 0;
#X connect 3 0 17 0;
#X connect 4 0 13 0;
#X connect 4 1 20 0;
#X connect 5 0 10 2;
#X connect 6 0 5 1;
#X connect 6 1 9 0;
#X connect 7 0 21 0;
#X connect 8 0 16 0;
#X connect 8 1 17 1;
#X connect 9 0 7 0;
#X connect 10 0 19 0;
#X connect 11 0 10 2;
#X connect 12 0 10 0;
#X connect 13 0 12 0;
#X connect 13 1 10 1;
#X connect 14 0 12 1;
#X connect 14 1 11 0;
#X connect 16 0 19 0;
#X connect 17 0 5 0;
#X connect 17 1 6 0;
#X connect 18 0 21 1;
#X connect 19 0 15 0;
#X connect 20 0 3 0;
#X connect 21 0 14 0;
