#N canvas 943 97 317 321 10;
#N canvas 160 143 295 386 acc-control 0;
#N canvas 292 157 210 136 acc-signal 0;
#X obj 15 91 outlet;
#X obj 98 18 inlet;
#N canvas 431 116 230 365 resample3 0;
#X obj 60 70 f;
#X obj 93 70 f;
#X obj 127 70 f;
#X obj 137 -5 t b b b;
#X obj 60 99 pack 0 0 0;
#X obj 33 -5 unpack 0 0 0;
#X obj 137 -112 t b f;
#X obj 137 -32 metro;
#X obj 32 -31 inlet;
#X obj 60 127 outlet;
#X obj 59 -163 route b;
#X msg 137 -90 1;
#X obj 59 -137 t b b;
#X msg 98 -90 0;
#X obj 59 -187 inlet;
#X obj 98 -137 route 0;
#X connect 0 0 4 0;
#X connect 1 0 4 1;
#X connect 2 0 4 2;
#X connect 3 0 0 0;
#X connect 3 1 1 0;
#X connect 3 2 2 0;
#X connect 4 0 9 0;
#X connect 5 0 0 1;
#X connect 5 1 1 1;
#X connect 5 2 2 1;
#X connect 6 0 11 0;
#X connect 6 1 7 1;
#X connect 7 0 3 0;
#X connect 8 0 5 0;
#X connect 10 0 12 0;
#X connect 10 1 15 0;
#X connect 11 0 7 0;
#X connect 12 0 3 0;
#X connect 12 1 13 0;
#X connect 13 0 7 0;
#X connect 14 0 10 0;
#X connect 15 0 13 0;
#X connect 15 1 6 0;
#X restore 15 41 pd resample3;
#X obj 15 17 inlet;
#X obj 15 65 ../3d/scale3 9.8;
#X connect 1 0 2 1;
#X connect 2 0 4 0;
#X connect 3 0 2 0;
#X connect 4 0 0 0;
#X restore 16 71 pd acc-signal;
#X obj 16 23 inlet;
#N canvas 699 230 167 209 angle 0;
#X obj 40 73 atan2;
#X obj 65 108 /;
#X obj 80 65 atan;
#X msg 80 44 1;
#X obj 80 86 * 2;
#X obj 80 23 loadbang;
#X obj 65 161 outlet;
#X obj 6 22 inlet;
#X obj 36 41 inlet;
#X obj 65 136 * 90;
#X connect 0 0 1 0;
#X connect 1 0 9 0;
#X connect 2 0 4 0;
#X connect 3 0 2 0;
#X connect 4 0 1 1;
#X connect 5 0 3 0;
#X connect 7 0 0 0;
#X connect 8 0 0 1;
#X connect 9 0 6 0;
#X restore 16 230 pd angle;
#X obj 16 175 unpack 0 0 0;
#X obj 85 200 * -1;
#X obj 16 258 outlet;
#X obj 49 353 outlet;
#X obj 16 96 t a a a;
#X obj 147 238 outlet;
#X obj 147 194 / 9.8;
#X obj 69 269 expr sqrt($f1 * $f1 + $f2 * $f2);
#N canvas 699 230 167 209 angle 0;
#X obj 40 73 atan2;
#X obj 65 108 /;
#X obj 80 65 atan;
#X msg 80 44 1;
#X obj 80 86 * 2;
#X obj 80 23 loadbang;
#X obj 65 161 outlet;
#X obj 6 22 inlet;
#X obj 36 41 inlet;
#X obj 65 136 * 90;
#X connect 0 0 1 0;
#X connect 1 0 9 0;
#X connect 2 0 4 0;
#X connect 3 0 2 0;
#X connect 4 0 1 1;
#X connect 5 0 3 0;
#X connect 7 0 0 0;
#X connect 8 0 0 1;
#X connect 9 0 6 0;
#X restore 49 332 pd angle;
#X obj 69 289 t b f;
#X obj 48 310 f;
#X obj 147 216 - 1;
#X obj 91 33 inlet;
#X obj 168 120 ../3d/lpf3 0.05;
#X obj 168 146 ../3d/normalise3;
#X obj 147 171 ../3d/dot3;
#X connect 0 0 7 0;
#X connect 1 0 0 0;
#X connect 2 0 5 0;
#X connect 3 0 2 0;
#X connect 3 0 10 0;
#X connect 3 1 13 1;
#X connect 3 2 4 0;
#X connect 3 2 10 1;
#X connect 4 0 2 1;
#X connect 7 0 3 0;
#X connect 7 1 18 0;
#X connect 7 2 16 0;
#X connect 9 0 14 0;
#X connect 10 0 12 0;
#X connect 11 0 6 0;
#X connect 12 0 13 0;
#X connect 12 1 11 1;
#X connect 13 0 11 0;
#X connect 14 0 8 0;
#X connect 15 0 0 1;
#X connect 16 0 17 0;
#X connect 17 0 18 1;
#X connect 18 0 9 0;
#X restore 15 75 pd acc-control;
#X obj 15 14 route accxyz;
#X obj 15 -46 dumpOSC 7000;
#X obj 15 -14 ../utility/split2msg /;
#X obj 15 232 outlet;
#X obj 55 209 outlet;
#X obj 96 188 outlet;
#X obj 219 -10 loadbang;
#X obj 219 35 route 0;
#X msg 219 68 20;
#X obj 15 45 ../3d/lpf3 0.1;
#X obj 219 12 f \$5;
#X obj 15 157 ../control/rescale \$1 \$2 0 1;
#X obj 55 129 ../control/rescale \$3 \$4 0 1;
#X obj 96 102 + 0.5;
#X obj 164 -45 inlet;
#X connect 0 0 12 0;
#X connect 0 1 13 0;
#X connect 0 2 14 0;
#X connect 1 0 10 0;
#X connect 2 0 3 0;
#X connect 3 0 1 0;
#X connect 7 0 11 0;
#X connect 8 0 9 0;
#X connect 8 1 0 1;
#X connect 9 0 0 1;
#X connect 10 0 0 0;
#X connect 11 0 8 0;
#X connect 12 0 4 0;
#X connect 13 0 5 0;
#X connect 14 0 6 0;
#X connect 15 0 1 0;
