#N canvas 108 69 247 399 10;
#X obj 105 82 list;
#X obj 105 285 sel \$1;
#X obj 126 27 inlet;
#X obj 105 111 t b l;
#X obj 105 142 until;
#X obj 105 171 list append;
#X obj 105 199 list split 1;
#X obj 193 199 bang;
#X obj 105 226 t a b;
#X obj 132 254 f;
#X obj 164 254 + 1;
#X obj 105 345 f;
#X obj 105 313 t b b;
#X obj 48 2 inlet;
#X msg 147 226 0;
#X obj 105 373 outlet;
#X msg 152 313 -1;
#X obj 48 31 route bang;
#X obj 105 56 t b a;
#X connect 0 0 3 0;
#X connect 1 0 12 0;
#X connect 2 0 0 1;
#X connect 3 0 4 0;
#X connect 3 1 5 1;
#X connect 4 0 5 0;
#X connect 5 0 6 0;
#X connect 6 0 8 0;
#X connect 6 1 5 1;
#X connect 6 2 7 0;
#X connect 6 2 16 0;
#X connect 7 0 4 1;
#X connect 7 0 14 0;
#X connect 8 0 1 0;
#X connect 8 1 9 0;
#X connect 9 0 10 0;
#X connect 9 0 11 1;
#X connect 10 0 9 1;
#X connect 11 0 15 0;
#X connect 12 0 11 0;
#X connect 12 1 7 0;
#X connect 13 0 17 0;
#X connect 14 0 9 1;
#X connect 16 0 15 0;
#X connect 17 0 0 0;
#X connect 17 1 18 0;
#X connect 18 0 0 0;
#X connect 18 1 1 1;
