#N canvas 821 104 426 175 10;
#X obj 206 92 indexof /;
#X floatatom 206 127 5 0 0 0 - - -;
#X msg 206 33 0 65 aaa 64 100 / 65 0;
#X msg 257 63 symbol aaa;
#X floatatom 20 127 5 0 0 0 - - -;
#X msg 20 33 0 65 aaa 64 100 / 65 0;
#X obj 20 92 indexof 100;
#X msg 332 63 symbol bbb;
#X msg 122 67 50;
#X msg 80 62 65;
#X connect 0 0 1 0;
#X connect 2 0 0 0;
#X connect 3 0 0 1;
#X connect 5 0 6 0;
#X connect 6 0 4 0;
#X connect 7 0 0 1;
#X connect 8 0 6 1;
#X connect 9 0 6 1;
