#N canvas 242 247 517 511 10;
#N canvas 784 306 300 273 shaper 0;
#X obj 154 20 inlet shape;
#X obj 59 85 *~;
#X obj 110 87 -~;
#X obj 110 113 *~;
#X obj 95 185 -~;
#X obj 59 42 inlet~;
#X obj 22 205 *~ 1;
#X obj 59 205 *~ 0;
#X obj 95 206 *~ 0;
#X obj 59 240 outlet~;
#X obj 154 93 - 1;
#X obj 154 118 abs;
#X obj 154 142 swap 1;
#X obj 154 168 -;
#X obj 154 71 t f f f;
#X obj 200 117 min 1;
#X obj 200 142 swap 1;
#X obj 200 168 -;
#X obj 249 141 - 1;
#X obj 249 164 max 0;
#X obj 154 46 clip 0 2;
#X obj 110 64 sig~ 1;
#X obj 95 162 sig~ 1;
#X obj 59 111 *~;
#X obj 110 138 *~;
#X connect 0 0 20 0;
#X connect 1 0 23 0;
#X connect 2 0 3 0;
#X connect 2 0 3 1;
#X connect 2 0 24 1;
#X connect 3 0 24 0;
#X connect 4 0 8 0;
#X connect 5 0 1 0;
#X connect 5 0 1 1;
#X connect 5 0 2 1;
#X connect 5 0 6 0;
#X connect 5 0 23 1;
#X connect 6 0 9 0;
#X connect 7 0 9 0;
#X connect 8 0 9 0;
#X connect 10 0 11 0;
#X connect 11 0 12 0;
#X connect 12 0 13 0;
#X connect 12 1 13 1;
#X connect 13 0 6 1;
#X connect 14 0 10 0;
#X connect 14 1 15 0;
#X connect 14 2 18 0;
#X connect 15 0 16 0;
#X connect 16 0 17 0;
#X connect 16 1 17 1;
#X connect 17 0 7 1;
#X connect 18 0 19 0;
#X connect 19 0 8 1;
#X connect 20 0 14 0;
#X connect 21 0 2 0;
#X connect 22 0 4 0;
#X connect 23 0 7 0;
#X connect 24 0 4 1;
#X restore 93 203 pd shaper;
#X obj 147 174 hsl 64 15 0 2 0 0 empty empty empty -2 -8 0 10 -262144
-1 -1 6300 1;
#X msg 144 150 1;
#X obj 179 287 tabwrite~ waveform;
#X obj 174 15 bng 15 250 50 0 empty empty empty 17 7 0 10 -262144 -1
-1;
#N canvas 0 0 450 300 (subpatch) 0;
#X array waveform 88200 float 0;
#X coords 0 1 88199 0 200 140 1;
#X restore 94 336 graph;
#X obj 93 174 vline~;
#X obj 367 173 vline~;
#X obj 421 174 hsl 64 15 0 2 0 0 empty empty empty -2 -8 0 10 -262144
-1 -1 0 1;
#X msg 418 150 1;
#X obj 202 48 t b b b;
#X obj 202 25 bng 15 250 50 0 empty empty empty 17 7 0 10 -262144 -1
-1;
#X obj 221 173 vline~;
#N canvas 704 247 300 273 shaper 0;
#X obj 154 20 inlet shape;
#X obj 59 85 *~;
#X obj 110 87 -~;
#X obj 110 113 *~;
#X obj 95 185 -~;
#X obj 59 42 inlet~;
#X obj 22 205 *~ 1;
#X obj 59 205 *~ 0;
#X obj 95 206 *~ 0;
#X obj 59 240 outlet~;
#X obj 154 93 - 1;
#X obj 154 118 abs;
#X obj 154 142 swap 1;
#X obj 154 168 -;
#X obj 154 71 t f f f;
#X obj 200 117 min 1;
#X obj 200 142 swap 1;
#X obj 200 168 -;
#X obj 249 141 - 1;
#X obj 249 164 max 0;
#X obj 154 46 clip 0 2;
#X obj 110 64 sig~ 1;
#X obj 95 162 sig~ 1;
#X obj 59 111 *~;
#X obj 110 138 *~;
#X connect 0 0 20 0;
#X connect 1 0 23 0;
#X connect 2 0 3 0;
#X connect 2 0 3 1;
#X connect 2 0 24 1;
#X connect 3 0 24 0;
#X connect 4 0 8 0;
#X connect 5 0 1 0;
#X connect 5 0 1 1;
#X connect 5 0 2 1;
#X connect 5 0 6 0;
#X connect 5 0 23 1;
#X connect 6 0 9 0;
#X connect 7 0 9 0;
#X connect 8 0 9 0;
#X connect 10 0 11 0;
#X connect 11 0 12 0;
#X connect 12 0 13 0;
#X connect 12 1 13 1;
#X connect 13 0 6 1;
#X connect 14 0 10 0;
#X connect 14 1 15 0;
#X connect 14 2 18 0;
#X connect 15 0 16 0;
#X connect 16 0 17 0;
#X connect 16 1 17 1;
#X connect 17 0 7 1;
#X connect 18 0 19 0;
#X connect 19 0 8 1;
#X connect 20 0 14 0;
#X connect 21 0 2 0;
#X connect 22 0 4 0;
#X connect 23 0 7 0;
#X connect 24 0 4 1;
#X restore 367 200 pd shaper;
#X msg 104 101 300;
#X obj 367 229 *~ 0.5;
#X msg 320 91 0;
#X obj 320 69 t b b;
#X msg 221 101 300 100 0.5;
#X msg 367 102 400;
#X msg 367 126 1 \, 0 \$1;
#X obj 320 47 delay 600;
#X obj 179 239 max~;
#X obj 179 262 max~;
#X msg 221 122 1 0 \$1 \, \$3 \$2 \$1;
#X msg 93 122 1 \$1 \, 0 0 \$1;
#X connect 0 0 22 0;
#X connect 1 0 0 1;
#X connect 2 0 1 0;
#X connect 4 0 3 0;
#X connect 4 0 11 0;
#X connect 6 0 0 0;
#X connect 7 0 13 0;
#X connect 8 0 13 1;
#X connect 9 0 8 0;
#X connect 10 0 14 0;
#X connect 10 1 18 0;
#X connect 10 2 21 0;
#X connect 11 0 10 0;
#X connect 12 0 22 1;
#X connect 13 0 15 0;
#X connect 14 0 25 0;
#X connect 15 0 23 1;
#X connect 16 0 12 0;
#X connect 17 0 16 0;
#X connect 17 1 19 0;
#X connect 18 0 24 0;
#X connect 19 0 20 0;
#X connect 20 0 7 0;
#X connect 21 0 17 0;
#X connect 22 0 23 0;
#X connect 23 0 3 0;
#X connect 24 0 12 0;
#X connect 25 0 6 0;
