#N canvas 561 132 177 180 10;
#X obj 25 13 inlet;
#X obj 99 23 table \$1;
#X obj 52 59 list length;
#X obj 25 38 t l l;
#X obj 53 101 s \$1;
#X msg 52 80 resize \$1;
#X obj 25 124 list prepend 0;
#X obj 24 147 s \$1;
#X connect 0 0 3 0;
#X connect 2 0 5 0;
#X connect 3 0 6 0;
#X connect 3 1 2 0;
#X connect 5 0 4 0;
#X connect 6 0 7 0;
