#N canvas 909 260 235 223 10;
#X obj 25 13 inlet;
#X obj 76 13 inlet;
#X obj 25 37 symbol \$1;
#X msg 25 123 0;
#X obj 122 126 - 1;
#X msg 64 120 set \$1;
#X obj 25 61 t b s s;
#X obj 25 180 outlet;
#X obj 122 181 outlet;
#X obj 25 149 tabread;
#X obj 122 150 tabread;
#X obj 122 101 tablength;
#X connect 0 0 2 0;
#X connect 1 0 2 1;
#X connect 2 0 6 0;
#X connect 3 0 9 0;
#X connect 4 0 10 0;
#X connect 5 0 9 0;
#X connect 5 0 10 0;
#X connect 6 0 3 0;
#X connect 6 1 11 0;
#X connect 6 2 5 0;
#X connect 9 0 7 0;
#X connect 10 0 8 0;
#X connect 11 0 4 0;
