#N canvas 447 22 287 745 10;
#X obj 28 17 inlet;
#X obj 28 713 outlet;
#X obj 133 340 tabread \$1;
#X msg 197 206 set \$1;
#X obj 28 43 route float symbol;
#X obj 88 206 expr size("$s1");
#X obj 121 156 symbol \$1;
#X obj 28 114 until;
#X msg 43 151 0;
#X obj 28 177 f;
#X obj 57 177 + 1;
#X obj 96 425 sel 1;
#X obj 28 258 sel 1;
#X obj 28 316 f;
#X obj 28 289 t b b;
#X obj 96 450 t b b;
#X obj 123 475 s \$0-stop;
#X obj 55 92 r \$0-stop;
#X obj 55 316 s \$0-stop;
#X obj 133 315 f;
#X obj 28 205 t f f f;
#X obj 96 475 f;
#X obj 96 399 >;
#X obj 96 578 -;
#X obj 148 578 -;
#X obj 96 607 swap;
#X obj 96 630 /;
#X obj 96 682 +;
#X obj 148 290 t f f;
#X obj 175 616 - 1;
#X obj 121 135 loadbang;
#X obj 82 284 bang;
#X obj 148 524 t b f;
#X obj 148 554 f;
#X obj 28 234 >=;
#X obj 28 341 - 1;
#X obj 175 641 max 0;
#X obj 28 67 t b b f f b;
#X msg 200 99 0;
#X obj 121 503 t f f;
#X obj 133 363 t f f f;
#X connect 0 0 4 0;
#X connect 2 0 40 0;
#X connect 3 0 2 0;
#X connect 4 0 37 0;
#X connect 4 1 3 0;
#X connect 4 1 5 0;
#X connect 5 0 34 1;
#X connect 6 0 5 0;
#X connect 7 0 9 0;
#X connect 8 0 9 1;
#X connect 9 0 10 0;
#X connect 9 0 20 0;
#X connect 10 0 9 1;
#X connect 11 0 15 0;
#X connect 12 0 14 0;
#X connect 12 1 31 0;
#X connect 13 0 35 0;
#X connect 14 0 13 0;
#X connect 14 1 18 0;
#X connect 15 0 21 0;
#X connect 15 1 16 0;
#X connect 17 0 7 1;
#X connect 19 0 2 0;
#X connect 20 0 34 0;
#X connect 20 1 13 1;
#X connect 20 2 28 0;
#X connect 21 0 23 0;
#X connect 22 0 11 0;
#X connect 23 0 25 0;
#X connect 24 0 25 1;
#X connect 25 0 26 0;
#X connect 25 1 26 1;
#X connect 26 0 27 0;
#X connect 27 0 1 0;
#X connect 28 0 19 1;
#X connect 28 1 29 0;
#X connect 29 0 36 0;
#X connect 30 0 6 0;
#X connect 31 0 19 0;
#X connect 32 0 33 0;
#X connect 32 1 24 1;
#X connect 33 0 24 0;
#X connect 34 0 12 0;
#X connect 35 0 1 0;
#X connect 36 0 27 1;
#X connect 37 0 7 0;
#X connect 37 1 8 0;
#X connect 37 2 22 1;
#X connect 37 3 33 1;
#X connect 37 4 38 0;
#X connect 38 0 39 0;
#X connect 39 0 23 1;
#X connect 39 1 32 0;
#X connect 40 0 39 0;
#X connect 40 1 22 0;
#X connect 40 2 21 1;
