#N canvas 796 136 450 300 10;
#X obj 250 126 f;
#X msg 277 72 0;
#X obj 250 45 t b b;
#X obj 250 178 sqrt;
#X obj 250 152 t f f;
#X obj 250 16 loadbang;
#X obj 250 101 until;
#X msg 250 72 10;
#X obj 250 226 - 0;
#X obj 250 203 * 1;
#X obj 278 126 + 1;
#X floatatom 81 151 5 0 0 0 - - -;
#X floatatom 81 100 5 0 0 0 - - -;
#X obj 326 60 table \$0-array 10;
#X obj 250 247 tabwrite \$0-array;
#X obj 78 124 tabinverse \$0-array;
#X connect 0 0 4 0;
#X connect 0 0 10 0;
#X connect 1 0 0 1;
#X connect 2 0 7 0;
#X connect 2 1 1 0;
#X connect 3 0 9 0;
#X connect 4 0 3 0;
#X connect 4 1 14 1;
#X connect 5 0 2 0;
#X connect 6 0 0 0;
#X connect 7 0 6 0;
#X connect 8 0 14 0;
#X connect 9 0 8 0;
#X connect 10 0 0 1;
#X connect 12 0 15 0;
#X connect 15 0 11 0;
