#N canvas 596 71 213 383 10;
#X obj 29 23 inlet;
#X msg 144 130 set \$1;
#X obj 29 324 +;
#X obj 56 106 int;
#X obj 29 160 -;
#X obj 29 82 t f f;
#X obj 44 230 + 1;
#X obj 29 285 *;
#X obj 112 286 *;
#X obj 29 350 outlet;
#X obj 29 189 t f f;
#X obj 112 214 swap 1;
#X obj 112 238 -;
#X obj 56 129 t f f f;
#X obj 44 259 tabread \$1;
#X obj 127 259 tabread \$1;
#X obj 29 50 route float set;
#X connect 0 0 16 0;
#X connect 1 0 14 0;
#X connect 1 0 15 0;
#X connect 2 0 9 0;
#X connect 3 0 13 0;
#X connect 4 0 10 0;
#X connect 5 0 4 0;
#X connect 5 1 3 0;
#X connect 6 0 14 0;
#X connect 7 0 2 0;
#X connect 8 0 2 1;
#X connect 10 0 7 0;
#X connect 10 1 11 0;
#X connect 11 0 12 0;
#X connect 11 1 12 1;
#X connect 12 0 8 0;
#X connect 13 0 4 1;
#X connect 13 1 6 0;
#X connect 13 2 15 0;
#X connect 14 0 7 1;
#X connect 15 0 8 1;
#X connect 16 0 5 0;
#X connect 16 1 1 0;
